<svg version="1.2" xmlns="http://www.w3.org/2000/svg" viewBox="0 0 1200 669" width="1200" height="669"><style>.a{fill:#fff}.b{fill:#84a0bd}.c{fill:#256ba6}.d{fill:#5c90ba}.e{fill:#bfd5e3}.f{fill:#e1f1f7}.g{fill:#9cc2dc}.h{fill:#3273a7}.i{fill:#cbe1f2}.j{fill:#687b93}.k{fill:#132d5a}.l{fill:#a0b0be}.m{fill:#9ac079}.n{fill:#6a9e41}.o{fill:#a3c972}.p{fill:#334970}.q{fill:#509dd3}.r{fill:#7baf40}.s{fill:#1a80c3}.t{fill:#26baed}.u{fill:#98c93b}.v{fill:#2196d3}.w{fill:#1ca6df}.x{fill:#1c3560}.y{fill:#47c5f0}</style><path class="a" d="m0 334.5v334.5h1200v-669h-1200z"/><path class="b" d="m27.5 644.7c1.6 0.2 4.8 0.2 7 0 2.2-0.2 0.9-0.4-3-0.4-3.9 0-5.6 0.2-4 0.4z"/><path class="c" d="m687 631.8c0 0.6 0.6 2.4 1.4 4 0.7 1.5 2.7 3.9 4.5 5.5 1.7 1.5 3.7 2.7 4.3 2.7 0.7 0-0.3-1-2.2-2.2-1.9-1.3-4.5-4.3-5.8-6.8-1.2-2.5-2.2-3.9-2.2-3.2z"/><path class="c" d="m1026.2 632.5c2.6 2.8 6.2 5.8 8 6.8 3.1 1.7 3.2 1.7 0.8 0-1.4-1-5-4-8-6.8l-5.5-4.9z"/><path class="d" d="m632.4 634c0 5.2 0.1 7.3 0.3 4.5 0.2-2.8 0.2-7 0-9.5-0.2-2.5-0.3-0.2-0.3 5z"/><path class="c" d="m633.4 631.5c0 5 0.1 7.2 0.3 5 0.2-2.2 0.2-6.3 0-9-0.2-2.8-0.3-1-0.3 4z"/><path class="e" d="m278 594.7c11.8 0.2 30.7 0.2 42 0 11.3-0.1 1.6-0.2-21.5-0.2-23.1 0-32.3 0.1-20.5 0.2z"/><path class="c" d="m244.3 592.5c0 4.4 0.2 6 0.4 3.5 0.2-2.5 0.2-6.1 0-8-0.2-1.9-0.4 0.1-0.4 4.5z"/><path class="b" d="m375.4 613.5c0 16.5 0.2 23.5 0.3 15.5 0.2-8 0.2-21.5 0-30-0.1-8.5-0.3-2-0.3 14.5z"/><path class="c" d="m1011.4 591c0 5.2 0.1 7.3 0.3 4.5 0.2-2.8 0.2-7 0-9.5-0.2-2.5-0.3-0.2-0.3 5z"/><path class="c" d="m882.4 591.5c0 5.5 0.1 7.5 0.3 4.5 0.2-3 0.2-7.5 0-10-0.2-2.5-0.3 0-0.3 5.5z"/><path class="f" d="m511.4 612c0 17.3 0.2 24.5 0.3 16 0.2-8.5 0.2-22.7 0-31.5-0.1-8.8-0.3-1.8-0.3 15.5z"/><path class="c" d="m374 612v31l-11.5 0.6 12.5 0.4c0-48.8-0.2-63-0.5-63-0.3 0-0.5 14-0.5 31z"/><path class="c" d="m339 587v6l-82.5 0.5 83.5 0.5c0-10.1-0.2-13-0.5-13-0.3 0-0.5 2.7-0.5 6z"/><path class="c" d="m980.2 611.8l-0.2 32.2 11.5-0.4-10.5-0.6-0.5-63.5z"/><path class="b" d="m524.4 611c0 17.9 0.2 25.1 0.3 16 0.2-9.1 0.2-23.7 0-32.5-0.1-8.8-0.3-1.4-0.3 16.5z"/><path class="b" d="m156.4 611c0 17.9 0.2 25.1 0.3 16 0.2-9.1 0.2-23.7 0-32.5-0.1-8.8-0.3-1.4-0.3 16.5z"/><path class="d" d="m979.4 610.5c0 18.1 0.2 25.8 0.3 17 0.2-8.8 0.2-23.6 0-33-0.1-9.4-0.3-2.1-0.3 16z"/><path class="d" d="m991.4 610c0 18.4 0.2 26.1 0.3 17 0.2-9.1 0.2-24.1 0-33.5-0.1-9.4-0.3-1.9-0.3 16.5z"/><path class="b" d="m915.4 610c0 18.4 0.2 26.1 0.3 17 0.2-9.1 0.2-24.1 0-33.5-0.1-9.4-0.3-1.9-0.3 16.5z"/><path class="f" d="m143.4 611c0 19 0.2 26.9 0.3 17.5 0.2-9.4 0.2-24.9 0-34.5-0.1-9.6-0.3-2-0.3 17z"/><path class="g" d="m448.4 610c0 19 0.2 26.9 0.3 17.5 0.2-9.4 0.2-24.9 0-34.5-0.1-9.6-0.3-2-0.3 17z"/><path class="g" d="m80.4 610c0 19 0.2 26.9 0.3 17.5 0.2-9.4 0.2-24.9 0-34.5-0.1-9.6-0.3-2-0.3 17z"/><path class="c" d="m914 609v34l-10.5 0.6 11.5 0.4c0-53.5-0.2-69-0.5-69-0.3 0-0.5 15.3-0.5 34z"/><path class="c" d="m523 608.5v34.5l-11.5 0.6 12.5 0.4c0-54.3-0.2-70-0.5-70-0.3 0-0.5 15.5-0.5 34.5z"/><path class="c" d="m155 608.5v34.5l-10.5 0.6 11.5 0.4c0-54.3-0.2-70-0.5-70-0.3 0-0.5 15.5-0.5 34.5z"/><path class="c" d="m990.3 578c0 4.1 0.2 5.9 0.4 4 0.2-1.9 0.2-5.3 0-7.5-0.2-2.2-0.4-0.6-0.4 3.5z"/><path class="f" d="m362.5 603.5c0 22 0.1 30.8 0.2 19.5 0.2-11.3 0.2-29.3 0-40-0.1-10.7-0.2-1.5-0.2 20.5z"/><path class="f" d="m902.5 604c0 22.8 0.1 32 0.2 20.5 0.2-11.5 0.2-30.2 0-41.5-0.1-11.3-0.2-1.8-0.2 21z"/><path class="e" d="m435.5 603.5c0 22.5 0.1 32 0.2 21 0.2-11 0.2-29.5 0-41-0.1-11.5-0.2-2.5-0.2 20z"/><path class="e" d="m67.5 603.5c0 22.5 0.1 32 0.2 21 0.2-11 0.2-29.5 0-41-0.1-11.5-0.2-2.5-0.2 20z"/><path class="c" d="m1019.2 559.3c-1.7 2.9-3.4 6.1-3.7 7.2-0.4 1.1 0.7-0.5 2.5-3.5 1.7-3 3.7-6.1 4.3-6.8 0.7-0.7 0.9-1.4 0.6-1.7-0.3-0.2-1.9 1.9-3.7 4.8z"/><path class="g" d="m684.5 584.5c0 19.3 0.1 26.9 0.2 17 0.2-9.9 0.2-25.6 0-35-0.1-9.4-0.3-1.3-0.2 18z"/><path class="g" d="m190.5 584.5c0 19.3 0.1 26.9 0.2 17 0.2-9.9 0.2-25.6 0-35-0.1-9.4-0.3-1.3-0.2 18z"/><path class="c" d="m436.2 596.3l-0.2 47.7h12l-0.5-71.5-0.5 70.5h-10l-0.5-94.5z"/><path class="c" d="m68.2 596.3l-0.2 47.7h12l-0.5-71.5-0.5 70.5h-10l-0.5-94.5z"/><path class="g" d="m697.5 584c0 20.1 0.1 28.2 0.2 18 0.2-10.2 0.2-26.6 0-36.5-0.1-9.9-0.2-1.6-0.2 18.5z"/><path class="c" d="m696.5 587c0 21.7 0.1 30.5 0.2 19.5 0.2-11 0.2-28.8 0-39.5-0.1-10.7-0.2-1.7-0.2 20z"/><path class="c" d="m685.5 585c0 20.6 0.1 29 0.2 18.5 0.2-10.5 0.2-27.3 0-37.5-0.1-10.2-0.2-1.6-0.2 19z"/><path class="g" d="m203.5 584c0 20.1 0.1 28.2 0.2 18 0.2-10.2 0.2-26.6 0-36.5-0.1-9.9-0.2-1.6-0.2 18.5z"/><path class="c" d="m202.5 587.5c0 22 0.1 30.8 0.2 19.5 0.2-11.3 0.2-29.3 0-40-0.1-10.7-0.2-1.5-0.2 20.5z"/><path class="c" d="m191.5 585c0 20.6 0.1 29 0.2 18.5 0.2-10.5 0.2-27.3 0-37.5-0.1-10.2-0.2-1.6-0.2 19z"/><path class="d" d="m703 547.7c3.6 0.2 9.9 0.2 14 0 4.1-0.1 1.2-0.3-6.5-0.3-7.7 0-11.1 0.1-7.5 0.3z"/><path class="d" d="m669.5 547.7c3.3 0.2 8.3 0.2 11 0 2.8-0.2 0-0.3-6-0.3-6 0-8.3 0.1-5 0.3z"/><path class="d" d="m209 547.7c3.6 0.2 9.9 0.2 14 0 4.1-0.1 1.2-0.3-6.5-0.3-7.7 0-11.1 0.1-7.5 0.3z"/><path class="c" d="m947.5 546.7c2.8 0.2 6.8 0.2 9 0 2.2-0.2 0-0.3-5-0.3-5 0-6.8 0.1-4 0.3z"/><path class="c" d="m624 551.5c2.9 3.3 5.8 6.5 6.3 7 0.6 0.5 0.1-0.4-1.1-2-1.1-1.6-4-4.8-6.3-7-3.7-3.4-3.5-3.1 1.1 2z"/><path class="c" d="m479.5 546.7c2.2 0.2 6 0.2 8.5 0 2.5-0.2 0.7-0.4-4-0.4-4.7 0-6.7 0.2-4.5 0.4z"/><path class="c" d="m363.3 553.5c0 4.4 0.2 6 0.4 3.5 0.2-2.5 0.2-6.1 0-8-0.2-1.9-0.4 0.1-0.4 4.5z"/><path class="d" d="m169.8 547.3c0.4 0.4 5.4 0.6 11.2 0.5l10.5-0.3c-17.4-0.8-22.1-0.7-21.7-0.2z"/><path class="c" d="m111.5 546.7c2.2 0.2 6 0.2 8.5 0 2.5-0.2 0.7-0.4-4-0.4-4.7 0-6.7 0.2-4.5 0.4z"/><path class="c" d="m903.4 551.5c0 5 0.1 7.2 0.3 5 0.2-2.2 0.2-6.3 0-9-0.2-2.8-0.3-1-0.3 4z"/><path class="c" d="m447.4 550.5c0 5 0.1 7.2 0.3 5 0.2-2.2 0.2-6.3 0-9-0.2-2.8-0.3-1-0.3 4z"/><path class="c" d="m79.4 550.5c0 5 0.1 7.2 0.3 5 0.2-2.2 0.2-6.3 0-9-0.2-2.8-0.3-1-0.3 4z"/><path class="d" d="m757.5 592c0 28.3 0.1 39.8 0.2 25.5 0.2-14.3 0.2-37.5 0-51.5-0.1-14-0.2-2.3-0.2 26z"/><path class="d" d="m745.5 592c0 28.3 0.1 39.8 0.2 25.5 0.2-14.3 0.2-37.5 0-51.5-0.1-14-0.2-2.3-0.2 26z"/><path class="b" d="m1113.2 591.8l-0.2 52.2-12.5 0.6c10.5 0.3 12.7 0 13-0.8 0.3-0.7 0.4-24.5 0.3-52.8l-0.3-51.5z"/><path class="c" d="m1102.1 541.8c0 0.9 0.2 1.1 0.5 0.5 0.2-0.8 2.2-1.3 4.9-1.3h4.5v102h-10l-0.6-18.5-0.4 19.5h12v-104c-10.1 0-11 0.3-10.9 1.8z"/><path class="c" d="m908.3 540.7l5.7 0.3 0.6 15.5 0.4-16.5-12.5 0.4z"/><path class="c" d="m750.8 540.7l5.2 0.3v102l-10.5 0.6 11.5 0.4v-104l-11.5 0.4z"/><path class="h" d="m745.5 592v51.5l10.5-0.5v-102l-10.5-0.5z"/><path class="c" d="m664 543.5v3.5l20.5-0.4c-19.4-0.6-19.5-0.6-19.5-3.1 0-2.5 0.1-2.5 10.3-2.8l10.2-0.3-21.5-0.4z"/><path class="f" d="m645.5 592.5c0 29.1 0.1 40.9 0.2 26 0.2-14.9 0.2-38.7 0-53-0.1-14.3-0.2-2.1-0.2 27z"/><path class="c" d="m633.2 549.8l0.2 9.7 0.6-18.5 10.5-0.6-11.5-0.4z"/><path class="c" d="m437.5 540.7c1.6 0.2 4.8 0.2 7 0 2.2-0.2 0.9-0.4-3-0.4-3.9 0-5.6 0.2-4 0.4z"/><path class="c" d="m367.8 540.7l6.2 0.3 0.6 22.5 0.4-23.5-13.5 0.4z"/><path class="c" d="m170 543.5v3.5l20.5-0.4c-19.4-0.6-19.5-0.6-19.5-3.1 0-2.5 0.1-2.5 10.3-2.8l10.2-0.3-21.5-0.4z"/><path class="c" d="m69.5 540.7c1.7 0.2 4.8 0.2 7 0 2.2-0.2 0.8-0.4-3-0.4-3.8 0-5.7 0.2-4 0.4z"/><path class="g" d="m908.3 539.7c5.7 0.3 6.8 0.6 7.2 2.3 0.4 1.6 0.5 1.5 0.3-0.3-0.3-2-0.8-2.2-7.3-2.3l-7-0.1z"/><path class="g" d="m747.5 539.7c1.6 0.2 4.8 0.2 7 0 2.2-0.2 0.9-0.4-3-0.4-3.9 0-5.6 0.2-4 0.4z"/><path class="g" d="m663.4 540.3c-0.3 0.6-0.3 2.6-0.1 4.2 0.4 2.7 0.4 2.6 0.6-0.7l0.1-3.8 20.5-0.6c-17.7-0.3-20.7-0.1-21.1 0.9z"/><path class="g" d="m437.5 539.7c1.6 0.2 4.8 0.2 7 0 2.2-0.2 0.9-0.4-3-0.4-3.9 0-5.6 0.2-4 0.4z"/><path class="g" d="m364.5 539.7c1.6 0.2 4.8 0.2 7 0 2.2-0.2 0.9-0.4-3-0.4-3.9 0-5.6 0.2-4 0.4z"/><path class="g" d="m174.5 539.7c2.8 0.2 7.5 0.2 10.5 0 3-0.2 0.8-0.3-5-0.3-5.8 0-8.3 0.1-5.5 0.3z"/><path class="g" d="m69.5 539.7c1.7 0.2 4.8 0.2 7 0 2.2-0.2 0.8-0.4-3-0.4-3.8 0-5.7 0.2-4 0.4z"/><path class="h" d="m1053.1 538.3c-0.3 0.5-1.6 0.8-2.8 0.6-1.3-0.2-2.3-0.1-2.3 0.4 0 0.4-0.9 0.5-2 0.2-1.1-0.3-2 0-2 0.5 0 0.6-0.7 0.8-1.5 0.5-0.8-0.3-1.5 0-1.5 0.5 0 0.6-0.4 0.8-1 0.5-0.5-0.3-1 0-1 0.5 0 0.6-1 1.3-2.2 1.6-1.3 0.4-2.4 0.6-2.5 0.5-0.2 0-1.2 0.9-2.3 2.2-1 1.2-1.9 1.9-2 1.5 0-0.5-1.6 0.8-3.5 2.7-1.9 1.9-3.5 4-3.5 4.5 0 0.5-0.6 0.7-1.2 0.3-0.7-0.3-1-0.3-0.5 0 0.4 0.4-0.7 3.3-2.5 6.5-1.8 3.1-3.6 5.8-4 6-0.4 0.1-0.6 1.1-0.3 2.2 0.3 1.1 0.1 2-0.5 2-0.5 0-0.8 0.7-0.5 1.5 0.3 0.8 0.2 1.5-0.2 1.5-0.5 0-0.7 1.2-0.5 2.5 0.1 1.4-0.1 2.5-0.5 2.5-0.5 0-0.8 5-0.8 11 0 6 0.3 11 0.8 11 0.4 0 0.6 1.1 0.5 2.5-0.2 1.3 0 2.5 0.5 2.5 0.4 0 0.5 0.9 0.2 2-0.3 1.1 0 2 0.5 2 0.6 0 0.8 0.7 0.5 1.5-0.3 0.8 0 1.5 0.5 1.5 0.6 0 0.9 0.6 0.7 1.3-0.2 0.6 0.2 1.8 1 2.5 0.7 0.6 1.1 1.7 0.8 2.2-0.3 0.5 0 1 0.7 1 0.6 0 0.8 0.3 0.5 0.8-0.4 0.4 0 1.2 0.8 1.7 0.7 0.5 1.5 1.7 1.7 2.4 0.2 0.8 1.5 2.5 3.1 3.8 1.5 1.3 2.6 2.8 2.5 3.5-0.2 0.7 0.2 1.2 0.7 1.3 0.6 0 2 0.7 3.2 1.5 1.3 0.8 2 1.9 1.5 2.4-0.4 0.5-0.1 0.6 0.6 0.3 0.6-0.4 2.1 0.2 3.2 1.3 1.1 1.1 2.2 1.7 2.5 1.3 0.3-0.5 0.5-0.2 0.5 0.5 0 0.6 0.5 1 1 0.7 0.6-0.3 1 0 1 0.5 0 0.5 0.9 0.8 2 0.5 1.1-0.3 2 0 2 0.5 0 0.5 0.9 0.8 2 0.5 1.1-0.3 2-0.2 2 0.3 0 0.4 1.6 0.6 3.5 0.5 1.9-0.2 3.5 0.2 3.5 0.7 0 0.5 1.6 1 3.5 1 1.9 0 3.5-0.5 3.5-1 0-0.5 1.6-0.9 3.5-0.7 1.9 0.1 3.5-0.1 3.5-0.5 0-0.5 0.9-0.6 2-0.3 1.1 0.3 2 0 2-0.5 0-0.5 0.7-0.8 1.5-0.5 0.8 0.3 1.5 0 1.5-0.5 0-0.5 0.7-0.8 1.5-0.5 0.8 0.3 1.5 0 1.5-0.5 0-0.5 1.9-2.1 4.3-3.4 2.3-1.3 4.5-2.3 4.8-2.2 0.4 0 1.7-0.8 2.8-1.9 1.2-1.1 2.2-2.6 2.1-3.2 0-0.7 0.8-1.9 1.8-2.5 0.9-0.7 1.9-2 2-2.8 0.2-0.8 0.9-1.8 1.5-2.2 0.7-0.4 1.5-0.2 1.9 0.5 0.4 0.7 0.8 5.1 0.8 10v8.7h10v-102c-8.1-0.1-8.6 0.2-9.9 3.2-1 2.3-1.2 5-0.8 9.1 0.4 3.1 0.4 5.9 0 6.1-0.5 0.3-1.5 0.1-2.3-0.5-0.8-0.5-1.2-0.9-0.7-0.9 0.4 0-0.5-1.2-2-2.6-1.6-1.5-2.1-2.3-1.3-1.8 0.9 0.5 0.7 0.1-0.5-0.9-1.1-1-3.1-3-4.4-4.5-1.3-1.5-2-2-1.6-1.2 0.3 0.8-0.6 0.2-2-1.5-1.5-1.6-2.4-2.3-2-1.5 0.6 1.3 0.5 1.3-0.7 0-0.7-0.8-2-1.6-2.8-1.7-0.8-0.1-3.2-0.8-5.3-1.5-2-0.7-3.7-1.6-3.7-2 0-0.5-0.8-0.5-1.7-0.2-1 0.3-2.5 0.3-3.3-0.1-0.8-0.5-4.2-0.9-7.4-0.9-3.3-0.1-6.2 0.2-6.5 0.7z"/><path class="c" d="m1090.4 634.1c-1 1.2-3.8 3.2-6.2 4.5-2.3 1.3-4.2 2.6-4.2 2.9 0 0.3 1.8-0.5 4.1-1.8 2.2-1.2 5.2-3.4 6.6-5 1.5-1.5 2.4-2.7 2.1-2.7-0.3 0-1.4 0.9-2.4 2.1zm-69-42.1c0 5.2 0.1 7.2 0.3 4.5 0.2-2.8 0.2-7 0-9.5-0.2-2.5-0.3-0.2-0.3 5z"/><path class="a" d="m1049 549.3c-1.9 0.7-5.1 2.2-7 3.4-1.9 1.2-5.4 4.2-7.8 6.7-2.3 2.5-5.1 6.4-6.2 8.6-1.1 2.2-2.7 7-3.6 10.8-1.2 4.9-1.5 9.4-1.1 17.2 0.3 5.8 1.3 12.8 2.2 15.5 0.8 2.8 3 7.3 4.8 10 1.9 2.8 5.6 6.5 8.3 8.3 2.7 1.8 7.1 4 9.9 4.9 3.7 1.2 7.6 1.5 15 1.1 7.1-0.3 11.3-1 14.5-2.4 2.5-1.1 6.3-3.4 8.5-5.2 2.2-1.7 5.4-5.5 7.2-8.4 1.7-2.9 3.9-8 4.9-11.3 1.1-3.8 1.7-9.3 1.7-15-0.1-5.9-0.8-11.8-2.2-17-1.2-4.4-3.5-10-5.1-12.5-1.6-2.5-4.1-5.7-5.7-7.2-1.5-1.5-5.3-3.9-8.3-5.4-4.8-2.5-6.8-2.9-16-3.1-6.8-0.2-11.7 0.1-14 1z"/><path class="c" d="m1057 546.7c3 0.2 7.5 0.2 10 0 2.5-0.2 0-0.3-5.5-0.3-5.5 0-7.5 0.1-4.5 0.3z"/><path class="h" d="m948.1 538.4c-0.3 0.4-1.6 0.7-2.8 0.5-1.3-0.2-2.3-0.1-2.3 0.4 0 0.4-0.7 0.5-1.5 0.2-0.8-0.3-1.5 0-1.5 0.5 0 0.5-0.7 0.8-1.5 0.5-0.8-0.3-1.5 0-1.5 0.5 0 0.5-0.5 0.8-1 0.5-0.5-0.3-1-0.2-1 0.3 0 0.4-1.2 1.3-2.7 2.1-1.5 0.8-3 1.5-3.3 1.5-0.3 0-2.5 2.1-5 4.5-2.5 2.5-3.8 4.2-3 3.7 0.8-0.4 0.5 0.1-0.7 1.1-1.2 1-1.9 2.2-1.5 2.6 0.4 0.4 0.1 0.7-0.6 0.7-0.6 0-1 0.5-0.7 1 0.3 0.5 0 1-0.5 1-0.5 0-1.5-1.1-2-2.5-0.5-1.4-1-5.6-1-9.5v-7c-9.3-0.4-12-0.3-12 0 0 0.3 0.3 0.9 0.7 1.3 0.4 0.5 0.6 23.4 0.4 51l-0.3 50.2 11.2-0.5c0-55.7 0.4-68.2 1-68.5 0.5-0.3 0.8-1.2 0.5-2-0.3-0.8 0-1.5 0.5-1.5 0.5 0 0.8-0.7 0.5-1.5-0.3-0.8 0-1.5 0.5-1.5 0.5 0 0.8-0.5 0.5-1-0.3-0.5 0.2-1.2 1-1.5 0.8-0.3 1.3-1 1-1.5-0.3-0.5 0.7-1.9 2.2-3.1 1.6-1.1 2.1-1.7 1.3-1.3-0.8 0.4-0.3-0.7 1.1-2.4 1.5-1.8 2.9-3.2 3.3-3.2 0.3 0 0.3 0.6 0 1.3-0.3 0.6 0.3 0.2 1.3-1 1-1.2 2.1-1.9 2.6-1.5 0.4 0.4 0.7 0.1 0.7-0.5 0-0.7 1.4-2 3-2.8 1.6-0.8 3.5-1.3 4-1 0.5 0.3 1 0 1-0.5 0-0.5 0.7-0.8 1.5-0.5 0.8 0.3 1.5 0 1.5-0.5 0-0.6 3.5-1 8.5-1 5 0 8.5 0.4 8.5 1 0 0.5 0.6 0.7 1.2 0.4 0.7-0.3 2.1 0.2 3 1 1 0.9 2 1.3 2.3 0.9 0.3-0.5 0.7 0 1 1 0.3 0.9 1 1.5 1.5 1.2 0.5-0.3 2.4 1.1 4 3 1.6 1.9 2.8 4 2.5 4.5-0.3 0.5 0 1 0.5 1 0.5 0 0.8 0.5 0.5 1-0.3 0.5 0 1 0.5 1 0.5 0 0.8 0.5 0.5 1-0.3 0.5 0 1 0.5 1 0.5 0 0.8 0.9 0.5 2-0.3 1.1 0 2 0.5 2 0.5 0 1 2.4 1.1 5.3 0 2.8 0.2 19.7 0.5 37.5l0.4 32.2c8.4 0.4 10.7 0.3 10.5 0-0.2-0.3-0.4-17-0.6-37.2-0.2-20.3-0.7-36.8-1.2-36.8-0.4 0-0.6-1.1-0.5-2.5 0.2-1.3 0-2.5-0.5-2.5-0.4 0-0.5-1-0.4-2.2 0.2-1.3-0.2-2.9-1-3.5-0.7-0.7-1.1-2-0.8-2.8 0.3-0.8 0-1.3-0.5-1-0.5 0.3-1 0-1-0.5 0-0.5 0-1.3 0.1-1.7 0-0.5-0.6-1.1-1.5-1.5-0.9-0.5-1.6-1.4-1.6-2 0-0.7-1.2-2.4-2.7-3.8-1.7-1.5-2.2-1.7-1.3-0.5 1.5 1.9 1.5 1.9-1.2 0-1.5-1.1-2.8-2.3-2.8-2.7 0-0.5-0.5-0.6-1-0.3-0.5 0.3-1 0-1-0.5 0-0.5-0.5-0.8-1-0.5-0.5 0.3-1 0-1-0.5 0-0.5-0.9-0.8-2-0.5-1.1 0.3-2 0.2-2-0.2 0-0.5-1.2-0.7-2.5-0.5-1.4 0.1-2.6-0.2-2.7-0.6-0.2-0.5-3-0.8-6.2-0.8-3.3 0-6.2 0.5-6.5 1z"/><path class="h" d="m823.8 538.4c0.2 0.7-0.8 0.8-2.8 0.4-1.8-0.5-3-0.4-3 0.2 0 0.5-0.9 0.8-2 0.5-1.1-0.3-2 0-2 0.5 0 0.5-0.7 0.8-1.5 0.5-0.8-0.3-1.5 0-1.5 0.5 0 0.5-0.5 0.8-1 0.5-0.5-0.3-1 0-1 0.5 0 0.5-0.7 0.8-1.5 0.5-0.8-0.3-1.5 0-1.5 0.5 0 0.5-0.5 0.8-1 0.5-0.5-0.3-1.2 0.2-1.5 1-0.3 0.8-1 1.3-1.5 1-0.5-0.3-1.2 0.3-1.5 1.3-0.3 0.9-0.9 1.4-1.3 1-0.4-0.4-1.5 0.4-2.4 1.7-1.1 1.6-2.3 2.2-3 1.8-0.8-0.5-1-0.4-0.6 0.2 0.4 0.5-1 2.9-3 5.2-2 2.3-3.5 4.5-3.2 4.8 0.3 0.3-0.1 0.5-0.7 0.5-0.7 0-1.1 0.5-0.8 1 0.3 0.5 0 1-0.5 1-0.5 0-0.8 0.5-0.5 1 0.3 0.5 0 1-0.5 1-0.5 0-0.8 0.5-0.5 1 0.3 0.5 0 1-0.5 1-0.5 0-0.8 0.7-0.5 1.5 0.3 0.8 0 1.5-0.5 1.5-0.5 0-0.8 0.7-0.5 1.5 0.3 0.8 0 1.5-0.5 1.5-0.5 0-0.8 1.1-0.5 2.5 0.3 1.4 0.2 2.5-0.2 2.5-0.5 0-0.7 1.4-0.5 3 0.1 1.7-0.1 3-0.5 3-0.5 0-0.8 3.4-0.8 7.5 0 4.1 0.3 7.5 0.8 7.5 0.4 0 0.6 1.3 0.5 3-0.2 1.6 0 3 0.5 3 0.4 0 0.5 1.1 0.2 2.5-0.3 1.4 0 2.5 0.5 2.5 0.5 0 0.8 0.7 0.5 1.5-0.3 0.8 0 1.5 0.5 1.5 0.5 0 0.8 0.7 0.5 1.5-0.3 0.8 0 1.5 0.5 1.5 0.5 0 0.8 0.5 0.5 1-0.3 0.5 0 1 0.5 1 0.5 0 0.8 0.5 0.5 1-0.3 0.5 0.2 1.2 1 1.5 0.8 0.3 1.3 1.2 1 2-0.3 0.8-0.2 1.3 0.3 1.1 0.4-0.2 1.6 0.8 2.7 2.2 1.3 1.7 1.4 2.3 0.5 1.7-0.8-0.5 0.3 0.9 2.5 3.1 2.2 2.1 4.2 3.8 4.5 3.7 0.3-0.2 1.6 0.7 3 2 1.4 1.2 3 2.3 3.5 2.5 0.6 0.1 1.8 0.4 2.8 0.7 0.9 0.3 1.7 1 1.7 1.5 0 0.5 0.5 0.8 1 0.5 0.6-0.3 1 0 1 0.5 0 0.5 0.9 0.8 2 0.5 1.1-0.3 2 0 2 0.5 0 0.5 0.9 0.8 2 0.5 1.1-0.3 2 0 2 0.5 0 0.6 1.7 0.7 4.5 0.3 3.4-0.6 4.5-0.5 4.5 0.5 0 0.7 1.4 1.2 3.5 1.2 1.9 0 3.5-0.5 3.5-1 0-0.5 1.8-0.9 4-0.7 2.2 0.1 4-0.1 4-0.5 0-0.5 1.9-1.1 4.3-1.5 2.3-0.4 4.8-0.6 5.5-0.5 0.6 0.1 1.2-0.3 1.2-0.8 0-0.5 0.5-0.8 1-0.5 0.6 0.3 1-0.1 1-0.7 0-0.7 0.2-1 0.5-0.5 0.3 0.4 1.3 0 2.3-0.8 0.9-0.9 3.3-2.8 5.2-4.3 1.9-1.5 3.1-2.1 2.7-1.4-0.4 0.6-0.6 1.2-0.4 1.2 0.1 0 1.6-1.4 3.2-3.2 1.7-1.8 2.3-2.8 1.5-2.3-0.8 0.5-0.1-0.7 1.5-2.8 1.7-2 3.3-3.7 3.8-3.7 0.4 0 0.5-0.5 0.2-1-0.3-0.5 0-1 0.5-1 0.6 0 0.8-0.5 0.5-1-0.3-0.5 0-1 0.5-1 0.6 0 0.8-0.5 0.5-1-0.3-0.5-0.2-1 0.3-1 0.4 0 0.8-1 0.9-2.2 0.1-1.3 0.7-2.4 1.3-2.5 0.5-0.2 0.8-1.2 0.5-2.3-0.3-1.1 0-2 0.5-2 0.6 0 0.8-1.1 0.5-2.5-0.3-1.4-0.2-2.5 0.3-2.5 0.4 0 0.7-5.2 0.7-11.5 0-6.3-0.3-11.5-0.7-11.5-0.5 0-0.6-1.1-0.3-2.5 0.3-1.4 0-2.5-0.5-2.5-0.5 0-0.8-0.9-0.5-2 0.3-1.1 0-2-0.5-2-0.5 0-0.8-0.7-0.5-1.5 0.3-0.8 0.2-1.5-0.2-1.5-0.5 0.1-1.5-1.4-2.3-3.2-0.8-1.8-1.4-3.6-1.2-4 0.1-0.5-0.3-0.8-1-0.8-0.6 0-0.8-0.2-0.5-0.5 0.4-0.3-0.5-1.7-2-3.1-1.6-1.5-1.9-2.1-0.8-1.3 1.1 0.7 0.2-0.5-2-2.7-2.2-2.1-4.3-3.8-4.7-3.7-0.5 0.2-1.4-0.5-2-1.4-0.7-1-2-1.9-2.8-2.1-0.8-0.2-2.2-0.9-3-1.6-0.8-0.7-1.8-1.1-2.2-0.9-0.4 0.1-0.8-0.2-0.8-0.7 0-0.5-0.4-0.8-1-0.5-0.5 0.3-1 0-1-0.5 0-0.5-0.7-0.8-1.5-0.5-0.8 0.3-1.5 0-1.5-0.5 0-0.5-0.9-0.8-2-0.5-1.1 0.3-2 0-2-0.5 0-0.6-1.1-0.7-2.6-0.4-1.4 0.3-3.1 0.2-3.7-0.2-0.7-0.5-4.3-0.9-8.1-1-4.5 0-6.9 0.3-6.8 1z"/><path class="c" d="m871.3 592c0 4.1 0.2 5.9 0.4 4 0.2-1.9 0.2-5.3 0-7.5-0.2-2.2-0.4-0.6-0.4 3.5z"/><path class="a" d="m818.5 549.3c-2.2 0.8-5.8 2.5-8 3.9-2.2 1.4-5.7 4.4-7.8 6.7-2 2.2-4.6 5.8-5.6 7.9-1 2-2.6 6.2-3.5 9.2-1 3.5-1.6 9.2-1.6 15.5 0 5.8 0.6 12.1 1.4 15 0.8 2.8 2.6 7 4 9.5 1.4 2.5 4.5 6.4 6.8 8.8 2.4 2.4 6.8 5.5 9.8 7 5 2.5 6.5 2.7 17 2.7 10.4 0 12-0.3 17-2.7 3.4-1.6 7.5-4.9 10.8-8.5 3.3-3.5 6.1-7.9 7.4-11.3 1.1-3 2.5-8.9 3.1-13 0.8-5.4 0.8-9.9 0-16-0.6-4.9-2.2-11-3.7-14.2-1.4-3.2-4.7-8.1-7.4-10.9-2.6-2.8-7.1-6.2-10.2-7.7-4.6-2.2-7.2-2.6-15.5-2.9-6.3-0.2-11.5 0.2-14 1z"/><path class="c" d="m826 546.7c2.5 0.2 6.8 0.2 9.5 0 2.8-0.2 0.7-0.3-4.5-0.3-5.2 0-7.5 0.1-5 0.3z"/><path class="h" d="m584.8 538.4c0.2 0.7-0.9 0.8-2.9 0.4-2-0.4-3.4-0.3-3.7 0.3-0.2 0.6-1.5 1.2-2.8 1.2-1.3 0.1-2.4 0.5-2.4 1 0 0.4-0.7 0.5-1.5 0.2-0.8-0.3-1.5 0.1-1.5 0.8 0 0.6-0.2 0.9-0.5 0.5-0.3-0.5-1.7 0.3-3.2 1.7-1.6 1.4-2.9 2.3-3 2-0.2-0.3-1.5 0.8-3 2.3-1.6 1.5-2.1 1.9-1.3 0.8l1.5-2.1c-3.5 3.1-4.2 4.3-4 4.8 0.3 0.4-0.7 1.6-2.2 2.7-1.6 1.2-2.3 2.1-1.8 2.1 0.6 0 0.2 0.6-0.7 1.4-1 0.8-1.8 1.7-1.8 2 0 0.3-0.6 1.9-1.2 3.5-0.7 1.7-1.6 3.1-2 3-0.5 0-0.6 0.7-0.3 1.5 0.3 0.8 0.1 1.5-0.5 1.5-0.5 0-0.8 0.7-0.5 1.5 0.3 0.8 0.1 1.5-0.5 1.5-0.5 0-0.8 0.9-0.5 2 0.3 1.1 0.1 2-0.5 2-0.6 0-0.7 1.2-0.2 3 0.4 1.9 0.3 3-0.3 3-0.6 0-1 3.3-1 8 0 4.7 0.4 8 1 8 0.6 0 0.7 1.1 0.3 3-0.5 1.8-0.4 3 0.2 3 0.6 0 0.8 0.9 0.5 2-0.3 1.1 0 2 0.5 2 0.6 0 0.8 0.7 0.5 1.5-0.3 0.8 0 1.5 0.5 1.5 0.6 0 0.8 0.9 0.5 2-0.3 1.1 0 2 0.7 2 0.6 0 0.8 0.2 0.5 0.5-0.4 0.3 0 1.2 0.8 2 0.8 0.8 1.3 2 1 2.5-0.3 0.5 0 1 0.5 1 0.6 0 0.8 0.5 0.5 1-0.3 0.5 0.3 1.2 1.3 1.5 0.9 0.3 1.4 0.7 1 1-0.5 0.3 0.2 1.6 1.5 2.9 1.2 1.3 3.4 3.8 5 5.5 1.5 1.7 2.8 2.9 3 2.6 0.1-0.3 1.3 0.5 2.7 1.7 1.4 1.3 3 2.4 3.5 2.6 0.6 0.1 1.8 0.4 2.8 0.7 0.9 0.3 1.7 1 1.7 1.5 0 0.5 0.7 0.8 1.5 0.5 0.8-0.3 1.5 0 1.5 0.5 0 0.5 0.9 0.8 2 0.5 1.1-0.3 2 0 2 0.5 0 0.6 1.5 0.7 4 0.3 3-0.6 4-0.5 4 0.5 0 0.7 1.3 1.2 3 1.2 1.7 0 3.2-0.5 3.5-1 0.3-0.5 1.7-0.9 3.3-0.8 1.5 0.1 3.3-0.1 4-0.5 0.6-0.4 1.7-0.5 2.2-0.2 0.6 0.3 1 0 1-0.5 0-0.5 0.9-0.8 2-0.5 1.1 0.3 2 0 2-0.5 0-0.5 0.5-0.8 1-0.5 0.6 0.3 1 0 1-0.5 0-0.5 0.5-0.8 1-0.5 0.6 0.3 1-0.1 1-0.7 0-0.7 0.3-1 0.7-0.6 0.5 0.4 1.3 0.1 1.8-0.7 0.6-0.7 1.6-1.5 2.3-1.7 0.7-0.2 3.4-2.3 6-4.8 2.6-2.5 4.6-4.8 4.5-5.2-0.2-0.5 0.2-0.8 0.7-0.8 0.6 0 0.9-0.3 0.9-0.7-0.1-0.5-0.1-1.4 0-2 0-0.7 1-1.3 2.1-1.3 1.8 0 2 0.7 2 8 0 4.4-0.4 9-0.9 10.3-0.8 2.1-0.7 2.2 5.5 2.2h6.4v-103l-11 0.5c0 16.9-0.2 18-1.7 18-1 0-3.4-1.9-5.3-4.2-1.9-2.4-3.5-4.8-3.5-5.3 0-0.5-0.6-1-1.3-1-0.8 0-1.9-0.7-2.5-1.6-0.7-0.9-1.5-1.7-1.9-1.7-0.5-0.1-1.9-0.8-3.3-1.4-1.4-0.7-2.5-1.6-2.5-2 0-0.5-0.5-0.6-1-0.3-0.5 0.3-1 0-1-0.5 0-0.5-0.7-0.8-1.5-0.5-0.8 0.3-1.5 0-1.5-0.5 0-0.5-0.7-0.8-1.5-0.5-0.8 0.3-1.5 0-1.5-0.5 0-0.6-1.2-0.7-3-0.2-1.9 0.4-3.1 0.3-3.2-0.4-0.1-0.6-2.9-1-6.7-1-4 0-6.4 0.4-6.3 1z"/><path class="c" d="m633.3 594c0 4.7 0.2 6.5 0.4 4 0.2-2.5 0.2-6.3 0-8.5-0.2-2.2-0.4-0.2-0.4 4.5z"/><path class="a" d="m580 549.4c-1.9 0.7-5.3 2.4-7.5 3.8-2.2 1.4-5.5 4.2-7.4 6.4-1.9 2.1-4.5 6.2-5.8 8.9-1.2 2.8-3 8.6-3.9 13-1.4 6.7-1.5 9.5-0.6 17 0.6 5 1.7 11.3 2.6 14 0.8 2.8 3 7 4.8 9.5 1.9 2.5 5.4 6 7.9 7.8 2.4 1.9 6.6 4 9.4 4.8 2.7 0.8 8.8 1.4 13.5 1.4 6.3 0 10.2-0.6 14.9-2.2 3.9-1.4 8.2-3.9 11-6.4 2.5-2.3 5.8-6.3 7.3-9 1.5-2.7 3.4-7.8 4.2-11.4 0.9-3.6 1.6-9.3 1.6-12.7 0-3.5-0.7-9.8-1.6-14-0.9-4.3-2.8-10.2-4.2-13.2-1.6-3.2-5-7.4-8.2-10.3-3.1-2.8-7.8-5.8-10.8-6.9-3.8-1.4-7.7-1.9-14.5-1.8-5 0-10.8 0.6-12.7 1.3z"/><path class="c" d="m588 546.7c2.5 0.2 6.8 0.2 9.5 0 2.8-0.2 0.7-0.3-4.5-0.3-5.2 0-7.5 0.1-5 0.3z"/><path class="h" d="m480.8 538.2c0.1 0.4-0.9 0.7-2.3 0.5-1.3-0.1-2.5 0.1-2.5 0.5 0 0.5-0.9 0.6-2 0.3-1.1-0.3-1.9-0.1-1.8 0.3 0.1 0.5-1.1 1.4-2.5 2-1.5 0.7-3.2 1-3.7 0.7-0.6-0.3-1.2 0.3-1.5 1.2-0.3 1-0.9 1.5-1.3 1.1-0.4-0.4-1.5 0.4-2.5 1.7-0.9 1.4-2.2 2.4-2.9 2.2-0.7-0.1-1.2 0.4-1.3 1.1 0 0.7-1.1 2.2-2.5 3.3-1.4 1.2-1.8 1.8-1 1.4 0.8-0.4 0.5 0.3-0.8 1.4-1.2 1.2-2.2 2.4-2.2 2.8 0 0.5-0.6 0.8-1.3 0.8-0.9 0-1.2-2.5-1.2-9.3v-9.2h-12.5c0 5.4 0.4 7.2 1 7.5 0.6 0.3 1 17.2 1 47.5v47h10c0-57.7 0.4-70 1-70 0.6 0 0.8-0.7 0.5-1.5-0.3-0.8-0.1-1.5 0.5-1.5 0.6 0 0.7-0.6 0.3-1.3-0.3-0.6 0.3-1.8 1.3-2.5 1-0.7 1.8-1.5 1.6-1.7-0.1-0.3 0-1.2 0.3-2 0.3-0.9 1-1.2 1.7-0.8 0.8 0.5 1 0.4 0.6-0.2-0.4-0.5 1.1-2.8 3.3-5 2.1-2.2 3.9-3.7 3.9-3.3 0 0.5 0.9-0.1 2-1.2 1.1-1.1 2.4-1.8 3-1.5 0.6 0.3 1 0 1-0.5 0-0.5 0.4-0.8 1-0.5 0.6 0.3 1 0 1-0.5 0-0.5 0.7-0.8 1.5-0.5 0.8 0.3 1.5 0 1.5-0.5 0-0.5 0.7-0.8 1.5-0.5 0.8 0.3 1.5 0 1.5-0.5 0-0.6 3.3-1 8-1 4.7 0 8 0.4 8 1 0 0.5 0.7 0.8 1.5 0.5 0.8-0.3 1.5 0 1.5 0.5 0 0.5 0.7 0.8 1.5 0.5 0.8-0.3 1.7 0.2 2 1 0.3 0.8 0.9 1.3 1.5 1 0.6-0.3 1.2 0.2 1.5 1 0.3 0.8 0.9 1.3 1.5 1 0.6-0.3 1.6 0.2 2.2 1 0.7 0.9 0.9 1.6 0.3 1.5-0.6 0 0 0.7 1.2 1.5 1.3 0.8 2.1 2 1.8 2.5-0.3 0.5-0.1 1 0.5 1 0.6 0 0.8 0.5 0.5 1-0.3 0.5-0.1 1 0.5 1 0.6 0 0.8 0.9 0.5 2-0.3 1.1-0.1 2 0.5 2 0.5 0 0.8 0.9 0.5 2-0.3 1.1-0.2 2 0.2 2 0.5 0 0.7 16.4 0.5 36.5l-0.2 36.5h11c0.4-55.4 0.1-71.7-0.4-72-0.4-0.3-0.7-1.7-0.5-3.2 0.2-1.5 0.1-2.8-0.4-2.8-0.4 0-0.5-0.9-0.2-2 0.3-1.1 0-2-0.5-2-0.5 0-0.8-0.9-0.5-2 0.3-1.1 0-2-0.5-2-0.5 0-0.8-0.5-0.5-1 0.3-0.5 0-1-0.7-1-0.6 0-0.8-0.2-0.5-0.5 0.4-0.3-0.2-1.4-1.3-2.5-1.1-1.1-1.8-2.3-1.5-2.8 0.2-0.4-0.5-1.6-1.8-2.7l-2.2-2c3 3.9 2.2 3.3 0.2 1.2-2.1-2-3.9-3.4-4.2-3-0.3 0.5-0.5 0.2-0.5-0.5 0-0.6-0.4-1-1-0.7-0.6 0.3-1 0.2-1-0.3 0-0.4-1.2-0.8-2.8-0.9-1.5-0.1-2.8-0.5-3-1-0.1-0.4-1.4-0.7-2.7-0.6-1.4 0.2-2.6-0.1-2.7-0.5-0.1-0.5-3.1-0.8-6.7-0.8-3.5 0-6.4 0.3-6.3 0.8z"/><path class="h" d="m402.8 538.2c0.1 0.4-0.9 0.7-2.3 0.5-1.3-0.1-2.5 0.1-2.5 0.5 0 0.5-0.7 0.6-1.5 0.3-0.8-0.3-1.5 0-1.5 0.5 0 0.5-0.8 1.2-1.8 1.5-0.9 0.3-2 0.5-2.5 0.5-0.4 0-2.2 1.5-4 3.2-1.8 1.8-3.2 3.5-3 3.8 0.1 0.3-0.7 1.7-2 3.1-1.2 1.4-2.1 3.1-2 3.7 0.2 0.7 0 1.2-0.5 1.2-0.4 0-0.8 1.2-0.9 2.8-0.1 1.5-0.8 3-1.5 3.4-0.7 0.4-1.6 0.5-2.1 0.2-0.4-0.2-0.7-5.4-0.7-11.4v-11c-11 0-12 0.3-12 1.7 0 1 0.3 2.2 0.7 2.6 0.4 0.5 0.7 22.7 0.5 49.3l-0.2 48.4h11c0-51 0.4-62 1-62 0.6 0 0.8-1.3 0.5-3-0.3-1.7-0.1-3 0.5-3 0.6 0 0.8-0.9 0.5-2-0.3-1.1-0.1-2 0.5-2 0.6 0 0.8-0.7 0.5-1.5-0.3-0.8-0.1-1.5 0.5-1.5 0.6 0 0.8-0.5 0.5-1-0.3-0.5-0.1-1 0.5-1 0.6 0 0.8-0.5 0.5-1-0.3-0.5-0.1-1 0.5-1 0.6 0 0.8-0.5 0.5-1-0.3-0.5 2.2-3.7 5.5-7 3.3-3.3 6.4-5.8 7-5.5 0.6 0.3 1 0 1-0.5 0-0.5 0.4-0.8 1-0.5 0.6 0.3 1 0 1-0.5 0-0.5 0.7-0.8 1.5-0.5 0.8 0.3 1.5 0 1.5-0.5 0-0.6 1.7-0.8 4.2-0.4 2.4 0.4 6 0.4 8 0 3.4-0.5 3.9-1 4.3-4.1 0.3-2.1 0-4-0.8-4.8-0.6-0.6-3.6-1.2-6.6-1.3-3 0-5.4 0.3-5.3 0.8z"/><path class="h" d="m287.8 538.2c0.1 0.4-1.1 0.7-2.8 0.5-1.6-0.1-3 0.1-3 0.5 0 0.5-0.6 0.7-1.4 0.6-0.8-0.1-2.3 0.3-3.5 1-1.2 0.7-2.3 1-2.6 0.7-0.3-0.3-1.2 0.2-2 1-0.8 0.8-2 1.3-2.5 1-0.6-0.3-1.2 0.3-1.5 1.2-0.3 1-0.7 1.5-1 1-0.3-0.4-1.5 0.3-2.8 1.5-1.2 1.3-4 3.8-6.2 5.6-2.2 1.9-3.3 3.1-2.5 2.7 0.8-0.4 0.4 0.3-1 1.5-1.4 1.1-2.2 2.1-1.8 2 0.5 0 0.1 1.3-0.7 3-0.8 1.6-2 3-2.5 3-0.6 0-0.7 0.6-0.4 1.2 0.3 0.7-0.1 2-0.9 2.8-0.7 0.8-1.2 2.1-1 2.7 0.2 0.7-0.2 1.3-0.7 1.3-0.6 0-0.8 0.9-0.5 2 0.3 1.1 0.2 2.2-0.3 2.4-0.4 0.3-0.6 1.6-0.5 3 0.2 1.4 0 2.6-0.5 2.6-0.4 0-0.7 4.5-0.7 10 0 5.5 0.3 10 0.7 10 0.5 0 0.7 1.1 0.5 2.5-0.1 1.3 0.1 2.5 0.5 2.5 0.5 0 0.6 1.1 0.3 2.5-0.3 1.4-0.1 2.5 0.5 2.5 0.5 0 0.8 0.5 0.5 1-0.3 0.5-0.1 1 0.5 1 0.5 0 0.8 0.7 0.5 1.5-0.3 0.8-0.1 1.5 0.5 1.5 0.5 0 0.8 0.5 0.5 1-0.3 0.5-0.1 1 0.5 1 0.5 0 0.8 0.5 0.5 1-0.3 0.5 0 1 0.7 1 0.6 0 0.8 0.3 0.5 0.7-0.4 0.5 0.1 1.4 1.1 2.1 1 0.8 1.1 1.1 0.2 0.6-0.8-0.3 0.1 0.8 2 2.5 1.9 1.8 2.9 3 2.2 2.7-0.6-0.3-1.2-0.5-1.2-0.4 0 0.2 1.4 1.6 3.2 3.3 1.8 1.6 2.8 2.3 2.3 1.5-0.6-0.8 0.5-0.4 2.3 1 1.8 1.4 3.2 2.8 3.2 3.2 0 0.5 0.3 0.7 0.7 0.6 0.5-0.1 1.8 0.1 3 0.5 1.3 0.4 2.3 1.2 2.3 1.7 0 0.5 0.4 0.8 1 0.5 0.5-0.3 1 0 1 0.5 0 0.5 0.9 0.8 2 0.5 1.1-0.3 2 0 2 0.5 0 0.5 0.9 0.8 2 0.5 1.1-0.3 2 0 2 0.5 0 0.6 1.5 0.7 3.7 0.4 2.4-0.5 4.1-0.3 4.5 0.5 0.5 0.6 2.4 1.1 4.3 1.1 1.9 0 3.8-0.5 4.2-1.1 0.5-0.8 2.3-1 5-0.5 2.6 0.3 4.3 0.2 4.3-0.4 0-0.5 1.1-0.9 2.5-0.8 1.3 0.2 2.5 0 2.5-0.5 0-0.4 0.9-0.5 2-0.2 1.1 0.3 2 0 2-0.5 0-0.5 0.7-0.8 1.5-0.5 0.8 0.3 1.5 0 1.5-0.5 0-0.5 0.7-0.8 1.5-0.5 0.8 0.3 1.3 0 1-0.5-0.3-0.5 0.5-1.3 1.7-1.7 1.3-0.4 2.6-0.6 3-0.5 0.5 0.1 0.8-0.4 0.8-1.1 0-0.6 0.3-0.9 0.7-0.5 0.5 0.5 1.4-0.1 2-1.2 0.7-1.1 1.6-1.8 2-1.6 0.5 0.2 0.8-0.4 0.8-1.3 0-0.9-0.6-2.3-1.3-3.1-0.7-0.8-1.1-2.1-0.8-2.8 0.3-0.6 0.3-1.2-0.2-1.2-0.4-0.1-1.3 0.6-2 1.5-0.6 0.8-1.7 1.3-2.2 1-0.6-0.3-1.2 0.2-1.5 1-0.3 0.8-0.9 1.3-1.5 1-0.6-0.3-1 0-1 0.5 0 0.5-1.6 1.7-3.5 2.5-1.9 0.8-4 1.3-4.5 1-0.6-0.3-1 0-1 0.5 0 0.5-0.7 0.8-1.5 0.5-0.8-0.3-1.5 0-1.5 0.5 0 0.5-1.1 0.8-2.5 0.5-1.4-0.3-2.5-0.2-2.5 0.2 0 0.5-4.5 0.8-10 0.8-5.5 0-10-0.3-10-0.8 0-0.4-0.9-0.5-2-0.2-1.1 0.3-2 0-2-0.5 0-0.5-0.6-0.7-1.3-0.4-0.6 0.3-2-0.2-3-1-0.9-0.9-1.9-1.3-2.2-0.9-0.3 0.5-0.5 0.2-0.5-0.5 0-0.6-0.4-1-1-0.7-0.6 0.3-3.5-2-6.5-5-3-3-5.2-5.5-4.8-5.5 0.5 0 0-0.5-1-1-0.9-0.6-1.5-1.5-1.2-2 0.3-0.5 0.1-1-0.5-1-0.6 0-0.8-0.5-0.5-1 0.3-0.5 0.1-1-0.5-1-0.6 0-0.8-0.5-0.5-1 0.3-0.5 0.1-1-0.5-1-0.6 0-0.8-0.7-0.5-1.5 0.3-0.8 0.1-1.5-0.5-1.5-0.6 0-0.8-0.7-0.5-1.5 0.3-0.8 0.1-1.7-0.5-2-0.6-0.3-0.8-3.2-0.6-6.8 0.2-3.4 0.4-6.5 0.5-7 0.1-0.4 18.5-0.7 41.1-0.7h41c0.5-11.7 0.2-14.8-0.4-15.2-0.7-0.4-0.8-1.5-0.4-2.7 0.5-1.2 0.4-2.1-0.2-2.1-0.6 0-0.8-0.9-0.5-2 0.3-1.1 0-2-0.5-2-0.6 0-0.8-0.7-0.5-1.5 0.3-0.8 0-1.5-0.5-1.5-0.6 0-0.8-0.7-0.5-1.5 0.3-0.8 0-1.5-0.5-1.5-0.6 0-0.8-0.7-0.5-1.5 0.3-0.8 0-1.3-0.5-1-0.6 0.3-1.3-0.5-1.6-1.8-0.4-1.2-0.6-2.3-0.5-2.5 0-0.1-0.9-1.1-2.2-2.2-1.2-1-1.8-1.9-1.2-1.9 0.5 0-0.9-1.4-3.3-3.1-2.3-1.6-4.2-3.5-4.2-4 0-0.6-0.5-0.8-1-0.5-0.6 0.3-1.2-0.2-1.5-1-0.3-0.8-1.1-1.2-1.8-0.9-0.6 0.3-2-0.2-3-1-0.9-0.9-1.9-1.3-2.2-0.9-0.3 0.5-0.5 0.2-0.5-0.5 0-0.7-0.8-1-2-0.7-1.1 0.3-2 0.2-2-0.3 0-0.4-1.4-0.6-3-0.5-1.7 0.2-3.1-0.1-3.2-0.5-0.1-0.5-3.1-0.8-6.7-0.8-3.6 0-6.4 0.3-6.3 0.8z"/><path class="f" d="m274.5 583.7c9.4 0.2 25.1 0.2 35 0 9.9-0.1 2.3-0.2-17-0.2-19.3-0.1-27.4 0.1-18 0.2z"/><path class="a" d="m282 549.4c-1.9 0.7-4.9 2.1-6.5 3.1-1.6 1-4.3 3-5.9 4.4-1.5 1.4-3.8 4.2-5.1 6.1-1.2 1.9-3.2 6.1-4.3 9.3-1.2 3.1-2.2 6.8-2.2 8.2v2.5h69c-0.9-6.6-1.8-10.7-2.6-13.5-0.7-2.7-2.8-7.2-4.6-9.9-2.2-3.2-5.2-5.9-8.8-8-5-2.8-6.4-3.1-15.5-3.3-6.4-0.2-11.2 0.2-13.5 1.1z"/><path class="c" d="m289 546.7c2.5 0.2 6.8 0.2 9.5 0 2.8-0.2 0.7-0.3-4.5-0.3-5.2 0-7.5 0.1-5 0.3z"/><path class="h" d="m113.1 538.4c-0.3 0.4-1.6 0.7-2.8 0.5-1.3-0.2-2.3-0.1-2.3 0.4 0 0.4-0.9 0.5-2 0.2-1.1-0.3-2-0.2-2 0.3 0 0.4-1.2 1.3-2.7 2-1.5 0.7-2.9 1-3 0.7-0.2-0.3-1.3 0.5-2.6 1.8-1.2 1.2-4.5 4.2-7.2 6.6-2.8 2.4-4.3 4.1-3.5 3.7 0.8-0.4 0.7-0.2-0.2 0.6-1 0.7-1.5 1.5-1.3 1.8 0.3 0.3-0.2 1.2-1 2q-1.6 1.5-2.6 0.5c-0.5-0.6-0.8-4.9-0.7-9.8l0.3-8.7h-12.5c0 5.4 0.5 7.2 1 7.5 0.6 0.3 1 17.2 1 47.5v47h10c0-57.7 0.4-70 1-70 0.6 0 0.8-0.7 0.5-1.5-0.3-0.8 0-1.5 0.5-1.5 0.6 0 0.8-0.5 0.5-1-0.3-0.5 0-1 0.5-1 0.6 0 0.8-0.5 0.5-1-0.3-0.5 0-1 0.5-1 0.6 0 0.9-0.3 0.8-0.7 0-0.5 0.2-1.6 0.5-2.5 0.4-1.1 1.2-1.5 1.9-1 0.8 0.4 1 0.3 0.6-0.3-0.4-0.5 1.1-2.8 3.3-5 2.1-2.2 3.9-3.7 3.9-3.2 0 0.4 0.9-0.2 2-1.3 1.1-1.1 2.5-1.8 3-1.5 0.6 0.3 1 0 1-0.5 0-0.5 0.5-0.8 1-0.5 0.6 0.3 1 0 1-0.5 0-0.5 0.7-0.8 1.5-0.5 0.8 0.3 1.5 0 1.5-0.5 0-0.5 0.7-0.8 1.5-0.5 0.8 0.3 1.5 0 1.5-0.5 0-0.6 3.3-1 8-1 4.7 0 8 0.4 8 1 0 0.5 0.7 0.8 1.5 0.5 0.8-0.3 1.5 0 1.5 0.5 0 0.5 0.7 0.8 1.5 0.5 0.8-0.3 2.6 0.6 4 2 1.4 1.4 2.5 2.2 2.5 1.8-0.1-0.5 0.8 0.1 1.9 1.2 1.2 1.1 1.8 2.3 1.6 2.8-0.3 0.4 0.2 0.9 1 1.2 0.8 0.3 1.3 1 1 1.5-0.3 0.5-0.1 1 0.5 1 0.6 0 0.8 0.5 0.5 1-0.3 0.5-0.1 1 0.5 1 0.6 0 0.8 0.7 0.5 1.5-0.3 0.8-0.1 1.5 0.5 1.5 0.6 0 0.8 0.9 0.5 2-0.3 1.1-0.2 2 0.3 2 0.4 0 0.6 16.8 0.4 37.2l-0.3 37.3 11.1-0.5c0.4-55.4 0.2-72.1-0.2-72.7-0.5-0.7-0.7-2.4-0.5-3.8 0.1-1.3-0.1-2.5-0.5-2.5-0.5 0-0.6-0.9-0.3-2 0.3-1.1 0.1-2-0.5-2-0.6 0-0.8-0.7-0.5-1.5 0.3-0.8 0.1-1.5-0.5-1.5-0.6 0-0.8-0.5-0.5-1 0.3-0.5 0.1-1-0.5-1-0.6 0-0.8-0.5-0.5-1 0.3-0.5 0-1-0.7-1-0.6 0-0.9-0.2-0.7-0.5 0.2-0.3-1.6-2.7-4.1-5.3-2.5-2.6-4.8-4.6-5.2-4.5-0.5 0.2-0.8-0.2-0.8-0.7 0-0.5-0.4-0.8-1-0.5-0.6 0.3-1 0.2-1-0.2 0-0.5-1.2-0.9-2.8-1-1.5-0.1-2.8-0.5-3-1-0.1-0.4-1.4-0.7-2.7-0.5-1.4 0.1-2.6-0.2-2.7-0.6-0.2-0.5-3-0.8-6.2-0.8-3.3 0-6.2 0.5-6.5 1z"/><path class="e" d="m684.4 524c0 5.2 0.1 7.3 0.3 4.5 0.2-2.8 0.2-7 0-9.5-0.2-2.5-0.3-0.2-0.3 5z"/><path class="e" d="m190.4 524c0 5.2 0.1 7.3 0.3 4.5 0.2-2.8 0.2-7 0-9.5-0.2-2.5-0.3-0.2-0.3 5z"/><path class="c" d="m685.5 511.3c-0.2 0.7-0.3 7.4-0.2 14.8l0.3 13.4c0.3-24.6 0.7-28.6 1.6-28.9 1-0.4 1-0.5 0-0.5-0.7-0.1-1.4 0.5-1.7 1.2z"/><path class="c" d="m191.5 511.3c-0.2 0.7-0.3 7.4-0.2 14.8l0.3 13.4c0.3-24.6 0.7-28.6 1.6-28.9 1-0.4 1-0.5 0-0.5-0.7-0.1-1.4 0.5-1.7 1.2z"/><path class="g" d="m697.5 523v16.5l26 0.1-25.5-0.6-0.6-32.5z"/><path class="c" d="m696.5 523.5v17l26.5 0.5v5l-25.5 0.6 26.5 0.4v-7h-27l-0.6-33.5z"/><path class="h" d="m695.2 507.8c-0.1 0.6-0.9 1-1.7 0.7-0.8-0.3-1.5-0.1-1.5 0.5 0 0.6-0.9 0.8-2 0.5-1.1-0.3-2-0.1-2 0.5 0 0.6-0.6 0.8-1.3 0.6-0.9-0.3-1.1 2.6-0.9 12.8 0.2 7.2 0.1 14.1-0.2 15.3-0.6 2.2-1.1 2.3-10.6 2.3h-10c0 5 0 5 9.2 5 6.4-0.1 9.7 0.3 10.6 1.2 0.9 1 1.1 10.1 1 40.1-0.2 21.3 0 38.7 0.4 38.7 0.5 0 0.7 1.1 0.5 2.5-0.1 1.3 0.2 2.6 0.6 2.7 0.5 0.2 0.9 1.5 1 3 0.1 1.4 0.5 2.4 0.9 2.2 0.5-0.2 0.8 0.1 0.8 0.6 0 0.5 0.1 1.4 0.2 1.9 0.2 0.5 0.7 1.3 1.1 1.8 0.5 0.4 1.3 0.9 1.8 1 0.5 0.2 1.4 0.3 1.9 0.3 0.5 0 0.8 0.5 0.5 1-0.3 0.5 0.2 0.8 1 0.5 0.8-0.3 1.5 0 1.5 0.5 0 0.5 0.9 0.8 2 0.5 1.1-0.3 2-0.2 2 0.2 0 0.5 1.6 0.7 3.5 0.5 1.9-0.1 3.5 0.3 3.5 0.8 0 0.5 1.3 1 3 1 1.6 0 3.3-0.5 3.7-1.1 0.5-0.6 1.7-0.9 2.8-0.7 1.1 0.3 2.6-0.1 3.2-0.9 0.7-0.7 1.3-2.4 1.3-3.8 0-1.4-0.7-2.7-1.5-3-0.8-0.3-1.7 0-2 0.5-0.3 0.5-3 1-6 1-3 0-5.5-0.5-5.5-1 0-0.5-0.8-0.7-1.8-0.4-1 0.4-2.9-0.5-5-2.3-1.8-1.5-3.1-3.4-2.8-4.1 0.3-0.6 0.1-1.2-0.4-1.2-0.5 0-0.8-0.9-0.5-2 0.3-1.1 0-2-0.5-2-0.6 0-1-13.6-1-38.8 0-29.1 0.3-39 1.2-40 0.8-0.8 5-1.2 13.5-1.2h12.3v-5l-26.5-0.5c-0.8-26.4-1.2-33.4-1.3-32.8z"/><path class="g" d="m203.5 523v16.5l26 0.1-25.5-0.6-0.6-32.5z"/><path class="c" d="m202.5 523.5v17l26.5 0.5v5l-25.5 0.6 26.5 0.4v-7h-27l-0.6-33.5z"/><path class="h" d="m201.2 507.8c-0.1 0.6-0.9 1-1.7 0.7-0.8-0.3-1.5-0.1-1.5 0.5 0 0.6-0.9 0.8-2 0.5-1.1-0.3-2-0.1-2 0.5 0 0.6-0.6 0.8-1.2 0.6-1-0.3-1.2 2.6-1 12.8 0.2 7.2 0.1 14.1-0.2 15.3-0.6 2.2-1.1 2.3-10.6 2.3h-10c0 5 0 5 9.3 5 6.3-0.1 9.6 0.3 10.5 1.2 0.9 1 1.1 10.1 1 40.1-0.2 25.3 0 38.7 0.7 38.7 0.6 0 0.7 1.1 0.3 3-0.5 1.8-0.4 3 0.2 3 0.6 0 0.9 0.6 0.7 1.2-0.2 0.7 0.5 2.2 1.4 3.3 1 1.1 1.6 2.3 1.4 2.7-0.3 0.5 0.3 1.4 1.3 2 1.5 1.2 1.6 1.1 0.3-0.7-0.7-1.1-0.3-0.8 1 0.6 1.3 1.4 3 2.4 3.7 2.2 0.6-0.2 1.2 0.2 1.2 0.7 0 0.5 0.7 0.8 1.5 0.5 0.8-0.3 1.5 0 1.5 0.5 0 0.6 1.5 0.7 4 0.2 3-0.5 4-0.4 4 0.5 0 0.8 1.3 1.3 3 1.3 1.7 0 3.3-0.5 3.8-1.1 0.4-0.6 1.7-1 2.9-0.8 1.3 0.2 2.3 0.1 2.3-0.4 0-0.4 0.4-0.5 1-0.2 0.6 0.3 1-1 1-3 0-2.5-0.5-3.7-1.7-4.1-1-0.3-1.9 0-2 0.5-0.2 0.6-2.8 1.1-5.8 1.1-3 0-5.5-0.5-5.5-1 0-0.5-0.9-0.8-2-0.5-1.1 0.3-2 0-2-0.5 0-0.5-0.3-0.8-0.7-0.5-0.5 0.2-1.8-0.6-3.1-1.8-1.2-1.2-1.9-2.5-1.5-3 0.3-0.4 0.1-0.7-0.5-0.7-0.7 0-1-0.9-0.7-2 0.3-1.1 0.1-2-0.5-2-0.6 0-1-13.8-1-39.3 0-29.4 0.3-39.5 1.2-40.5 0.8-0.8 5-1.2 13.5-1.2h12.3v-5l-26.5-0.5c-0.8-26.4-1.2-33.4-1.3-32.8z"/><path class="h" d="m25 570v73h12v-146h-12z"/><path class="d" d="m38.5 570c0 41 0.1 57.6 0.2 37 0.2-20.6 0.2-54.1 0-74.5-0.1-20.4-0.2-3.5-0.2 37.5z"/><path class="c" d="m30.8 496.7l6.2 0.3v146l-12.5 0.6 13.5 0.4v-148l-13.5 0.4z"/><path class="i" d="m24.5 570c0 41 0.1 57.6 0.2 37 0.2-20.6 0.2-54.1 0-74.5-0.1-20.4-0.2-3.5-0.2 37.5z"/><path class="g" d="m27.5 495.7c1.6 0.2 4.8 0.2 7 0 2.2-0.2 0.9-0.4-3-0.4-3.9 0-5.6 0.2-4 0.4z"/><path class="c" d="m756 499v5l-10.5 0.6 11.5 0.4c0-8.5-0.2-11-0.5-11-0.3 0-0.5 2.3-0.5 5z"/><path class="h" d="m746.2 498.5l-0.2 5.5h10l0.5-11h-10.2z"/><path class="c" d="m1138.2 567.3l-0.2 76.7h12l-0.5-153.5-0.5 152.5h-10l-0.5-152.5z"/><path class="g" d="m1150.5 567c0 42.6 0.1 60 0.2 38.5 0.2-21.5 0.2-56.3 0-77.5-0.1-21.2-0.2-3.6-0.2 39z"/><path class="h" d="m1138.8 566.5l0.2 76.5h10l0.5-153h-11z"/><path class="e" d="m1137.5 567c0 42.6 0.1 60 0.2 38.5 0.2-21.5 0.2-56.3 0-77.5-0.1-21.2-0.2-3.6-0.2 39z"/><path class="j" d="m643 459.7c2.5 0.2 6.1 0.2 8 0 1.9-0.2-0.1-0.4-4.5-0.4-4.4 0-6 0.2-3.5 0.4z"/><path class="j" d="m294.5 459.7c2.2 0.2 6 0.2 8.5 0 2.5-0.2 0.7-0.4-4-0.4-4.7 0-6.7 0.2-4.5 0.4z"/><path class="k" d="m641 458.7c3.6 0.2 9 0.2 12 0 3-0.2 0.1-0.3-6.5-0.3-6.6 0-9.1 0.1-5.5 0.3z"/><path class="k" d="m292.5 458.7c3.3 0.2 8.9 0.2 12.5 0 3.6-0.2 0.9-0.3-6-0.3-6.9 0-9.8 0.1-6.5 0.3z"/><path class="j" d="m79 458.7c30 0.2 79.3 0.2 109.5 0 30.3-0.1 5.7-0.2-54.5-0.2-60.2 0-85 0.1-55 0.2z"/><path class="k" d="m99.5 420.7c17.1 0.2 56.3 0.4 87.3 0.5 30.9 0.2 56.2 0 56.2-0.4 0-0.5-39.3-0.7-87.3-0.6-47.9 0.2-73.3 0.4-56.2 0.5z"/><path class="l" d="m100.5 419.7c17.1 0.2 56.3 0.4 87.2 0.5 30.8 0.2 55.9 0 55.7-0.4-0.2-0.5-39.4-0.7-87.2-0.6-47.7 0.2-72.8 0.4-55.7 0.5z"/><path class="m" d="m1048.4 377.3c-0.4 1.2-1.3 2.8-2.1 3.4-0.7 0.7-1.6 1-2 0.5-0.3-0.4-0.3-0.1 0 0.5 0.4 0.7 0.2 2.2-0.3 3.3-0.6 1.1-1.5 1.9-2.1 1.7-0.6-0.1-4.3 7-8.3 15.8-3.9 8.8-10 21.2-13.5 27.5-3.5 6.3-9.1 15.8-12.5 21-3.3 5.2-9.4 13.8-13.5 19-7.2 9.4-7.3 9.4-2.1 4.5 2.9-2.8 9.3-10 14.2-16 5-6.1 12.3-16 16.3-22 4-6.1 10-16.2 13.4-22.5 3.3-6.3 7.8-15.9 10-21.3 2.6-6.2 3.8-10.3 3.4-11.5-0.5-1.2-0.4-1.5 0.5-1 0.6 0.5 1.2 0.4 1.2-0.2 0-0.6-0.5-1.2-1-1.5-0.6-0.3-0.8-1.2-0.5-2 0.2-0.8 0.3-1.5 0-1.5-0.2 0-0.7 1-1.1 2.2z"/><path class="n" d="m1077.6 356.3c-0.4 1.9-1.7 3.2-4.3 4.3-2.1 0.9-6.7 2.7-10.2 4l-6.3 2.4c0.9-4.3 0.3-3-0.8 0-1.1 3-1.7 6.1-1.5 6.7 0.3 0.7 0.1 1.4-0.4 1.5-0.5 0.2-3 5.7-5.6 12.3-2.6 6.6-7.6 17.5-11.1 24.2-3.5 6.8-8.9 16.2-12 21-3.2 4.9-8.9 13.1-12.9 18.3-4 5.2-11 13.6-15.6 18.6-4.6 5-9.7 10.3-11.4 11.8-2.1 1.9-1.1 1.5 3-1.3 3.3-2.2 8.5-6.1 11.5-8.7 3-2.5 9.3-8.3 13.9-12.7 4.7-4.5 12.2-12.7 16.8-18.2 4.7-5.5 11.5-14.5 15.2-20 3.7-5.5 8.8-13.6 11.4-18 2.5-4.4 6.8-12.7 9.5-18.5 2.7-5.8 6.5-14.7 8.3-19.8 1.9-5.1 3.4-9.6 3.3-10-0.2-0.4-0.5 0.5-0.8 2z"/><path class="o" d="m1060.2 326.8c-3.4 5.3-6.2 10.4-6.2 11.2 0 0.8-1.5 7.6-3.4 15-1.9 7.4-4.8 17.3-6.5 22-1.6 4.7-2.7 8.8-2.3 9.3 0.4 0.4 0.1 0.7-0.6 0.7-0.6 0-1.2 0.4-1.2 1 0 0.6 0.7 0.9 1.6 0.7 0.8-0.1 1.9-1 2.5-2 0.5-0.9 0.6-2.3 0.2-3-0.3-0.6-0.3-0.9 0-0.5 0.4 0.5 1.3 0.2 2-0.5 0.7-0.6 1.8-2.3 2.5-3.7 0.7-1.4 1-1.7 0.7-0.8-0.3 1-0.1 2 0.5 2.3 0.6 0.3 2.8-5.2 4.9-12.3 2.2-7 4.5-14.7 5.2-17.2 0.6-2.5 2.4-10.6 3.9-18 1.5-7.4 2.7-13.6 2.6-13.7-0.1-0.2-3 4.1-6.4 9.5z"/><path class="e" d="m357 316.7c20.1 0.2 53.4 0.2 74 0 20.6-0.1 4.2-0.2-36.5-0.2-40.7 0-57.6 0.1-37.5 0.2z"/><path class="j" d="m320.5 386c0 38.8 0.1 54.8 0.2 35.5 0.2-19.3 0.2-51 0-70.5-0.1-19.5-0.2-3.8-0.2 35z"/><path class="k" d="m319.2 385.8c-0.1 55.1-0.5 70.3-1.4 70.6-1 0.4-1 0.5 0 0.5 0.6 0.1 1.4-0.5 1.7-1.2 0.3-0.6 0.4-32.5 0.3-70.7l-0.3-69.5z"/><path class="k" d="m357 315.7c20.1 0.2 53.4 0.2 74 0 20.6-0.1 4.2-0.2-36.5-0.2-40.7 0-57.6 0.1-37.5 0.2z"/><path class="k" d="m67.5 363c0 31.1 0.1 43.7 0.2 28 0.2-15.7 0.2-41.1 0-56.5-0.1-15.4-0.2-2.6-0.2 28.5z"/><path class="b" d="m107.5 306.7c21.4 0.2 57 0.2 79 0 22-0.1 4.4-0.2-39-0.2-43.5 0-61.5 0.1-40 0.2z"/><path class="p" d="m68.5 363c0 31.6 0.1 44.4 0.2 28.5 0.2-15.9 0.2-41.8 0-57.5-0.1-15.7-0.2-2.6-0.2 29z"/><path class="c" d="m1064.7 306c-3.1 2.2-6.3 4.1-6.9 4.3-0.7 0.1-1.7 0.7-2.3 1.4-0.5 0.7-1.6 1.3-2.4 1.5-0.8 0.2-3.2 3.7-5.4 7.8-2.1 4.1-5.5 10-7.5 13-2 3-7 9.8-11.1 15-4.2 5.2-11.8 13.7-17.1 18.9-5.2 5.2-14.2 13-20 17.4-5.8 4.4-14.5 10.7-19.5 14.1-5 3.3-13.5 8.4-19 11.3-5.5 2.9-9.8 5.3-9.5 5.3 0.3 0 2.7-0.9 5.5-1.9 2.7-1 10-4.2 16-7.1 6-2.8 14.8-7.4 19.5-10.3 4.7-2.8 11.4-7.1 15-9.6 3.6-2.5 9.4-6.8 13-9.6 3.6-2.9 9.4-7.8 12.9-11.1 3.6-3.2 10.7-10.8 15.9-16.9 5.2-6.1 12.7-15.9 16.7-22 4.1-6.1 7.5-11.7 7.7-12.5 0.2-0.8 1.1-2.3 2-3.5 0.9-1.1 1.5-2.6 1.2-3.2-0.2-0.7 0.3-1.5 1.1-1.8q1.5-0.5 0.8-2.2c-0.6-1.4-0.5-1.6 0.7-0.8 1.1 0.7 1.3 0.7 0.7-0.3-0.4-0.6-1.1-1.2-1.5-1.2-0.4 0-3.4 1.8-6.5 4z"/><path class="k" d="m226 303.3c0 1.6-4.5 1.7-78.8 2l-78.7 0.2c149.1 0.5 157.5 0.3 157.8-1 0.1-0.9 0.1-1.9 0-2.3-0.2-0.4-0.3 0.1-0.3 1z"/><path class="k" d="m470.4 297c0 5.8 0.1 8 0.3 5 0.2-3 0.2-7.8 0-10.5-0.2-2.8-0.3-0.3-0.3 5.5z"/><path class="q" d="m1048.6 291.3c-4.7 4.5-6.6 5.8-7 4.7-0.2-0.8-0.2 0.3 0.2 2.5 0.5 3.3 0.3 3.8-0.8 3-1.1-0.8-1.2-0.5-0.7 1.2 0.4 1.3 0.3 2.3-0.3 2.3-0.6 0-0.7 1-0.3 2.2 0.5 1.9 0.4 2.1-0.7 1.3-1.1-0.8-1.3-0.6-0.7 1.2 0.4 1.3 0.4 2.3 0 2.3-0.5 0-2.1 3-3.7 6.7-1.6 3.8-4.5 9.5-6.4 12.8-1.9 3.3-4.6 7.8-6.1 10-1.4 2.2-5.4 7.6-8.9 12-3.5 4.4-10.7 12.5-16 17.9-5.3 5.5-13.5 13.1-18.2 17-4.7 4-11.9 9.6-16 12.7-4.1 3-10.5 7.5-14.3 9.9-3.7 2.5-6.7 4.6-6.7 4.7 0 0.2 2.1-0.7 4.8-1.8 2.6-1.2 9.2-4.9 14.7-8.2 5.5-3.3 13.8-8.7 18.5-12 4.7-3.4 12.6-9.3 17.5-13.3 5-3.9 12.8-11.2 17.5-16 4.7-4.9 11.4-12.5 14.9-16.9 3.5-4.4 7.9-10.4 9.7-13.3 1.9-2.8 5-8.3 6.9-12.2 1.9-3.9 4.6-10.3 5.9-14.3 1.3-3.9 2.7-10.7 3-15 0.4-4.2 0.5-7.7 0.2-7.7-0.3 0-3.5 2.8-7 6.2z"/><path class="k" d="m228.4 287.5c0 4.9 0.1 7.2 0.3 5 0.2-2.2 0.2-6.3 0-9-0.2-2.8-0.3-0.9-0.3 4z"/><path class="k" d="m394 278.8c56.6 0.2 73.7 0.5 74.3 1.5q0.9 1.3 0.4-0.3c-0.3-1.3-9.4-1.5-74.3-1.5h-73.9z"/><path class="k" d="m147.3 269.7c74 0.3 78.7 0.4 79.1 2.1q0.5 1.8 0.3-0.3c-0.2-2-1-2-79.2-2h-79z"/><path class="r" d="m1100 241.3c0 1.7-0.4 5.6-0.8 8.6-0.6 4.9-1 5.5-4.5 7.2-2.8 1.4-3.8 1.6-4.2 0.6-0.2-0.6-0.1 0.2 0.2 1.8 0.5 2.2 0.4 2.8-0.5 2.2-0.8-0.5-1-0.1-0.7 1.3 0.3 1.1 0 2-0.5 2-0.5 0-0.8 0.7-0.5 1.5 0.3 0.8 0 1.5-0.5 1.5-0.5 0-0.8 0.7-0.5 1.5 0.3 0.8 0 1.5-0.5 1.5-0.6 0-0.7 1-0.3 2.2 0.5 1.9 0.4 2.1-0.7 1.3-1.2-0.8-1.3-0.6-0.7 0.7 0.4 1 0.3 1.8-0.3 1.8-0.5 0-0.8 0.7-0.5 1.5 0.3 0.8 0 1.5-0.5 1.5-0.5 0-0.8 0.4-0.5 1 0.3 0.5 0 1.2-0.5 1.5-0.5 0.3-0.8 0.9-0.5 1.5 0.3 0.5 0 1-0.5 1-0.5 0-1.3 1.2-1.6 2.7-0.4 1.6-3.5 8.4-6.9 15.3-4.8 9.7-6.6 14.5-7.9 21.5-1 4.9-3 14.5-4.7 21.2-1.6 6.8-2.6 12.9-2.2 13.5 0.6 1 0.4 1-0.6 0.3-1.2-0.8-1.3-0.4-0.7 2.5 0.5 2.6 0.4 3.1-0.3 2-0.6-0.8-1.1-1.1-1.1-0.5 0 0.5 0.4 1.5 0.8 2.2 0.5 0.8 3.4 0.2 10.4-2.5 5.4-2 10-3.5 10.4-3.2 0.3 0.3 0.2-0.4-0.3-1.5-0.5-1.5-0.4-1.8 0.5-1.3 0.9 0.6 1 0.2 0.5-1.5-0.6-1.8-0.4-2 0.7-1.2 1.1 0.8 1.2 0.5 0.5-1.5-0.7-2.1-0.6-2.3 0.5-1.5 1.2 0.8 1.3 0.6 0.7-0.8-0.4-0.9-0.3-1.7 0.3-1.7 0.5 0 0.8-0.7 0.5-1.5-0.3-0.8-0.2-1.5 0.3-1.5 0.4 0 1.5-2.3 2.4-5.2 0.9-2.9 3-10.5 4.7-16.8 1.6-6.3 4.1-17.4 5.5-24.5 1.4-7.1 3.2-19.1 4-26.5 0.8-7.4 1.7-18.3 2.1-24.3 0.3-5.9 0.4-10.7 0.1-10.7-0.3 0-0.6 1.5-0.6 3.2z"/><path class="s" d="m1086.8 235c-3.5 2.4-6.3 3.7-7 3.3q-1.3-0.8-0.5 0.5c0.4 0.7 0.2 1.3-0.5 1.3-0.7 0.1-1.6 0.1-2 0-0.5 0-0.6 0.2-0.3 0.7 0.2 0.4-1.3 1.7-3.3 2.9-2 1.3-4.1 1.9-4.6 1.5-0.5-0.4-0.6-0.3-0.3 0.3 0.3 0.6-0.7 1.8-2.4 2.8-1.6 0.9-2.9 1.5-2.9 1.2 0-0.3-1.1 0.6-2.5 2-1.5 1.5-3 2.2-3.7 1.8q-1.3-0.8-0.5 0.5c0.4 0.8-0.1 1.5-1.5 1.9-1.3 0.4-2.6 0.6-3 0.5-0.5-0.1-0.6 0.2-0.3 0.8 0.3 0.6-0.2 1-1 1-1.2 0-1.1 0.8 0.6 4.8 1.2 2.6 2.7 6.7 3.5 9.2 0.8 2.5 1.4 8.8 1.4 14 0 5.2-0.6 12-1.4 15-0.8 3-1.8 6.4-2.3 7.5-0.5 1.5-0.4 1.8 0.5 1.3q1.2-0.8 0.7 0.7c-0.3 0.8-1 1.3-1.5 1-0.5-0.3-1.2 0.3-1.5 1.3-0.3 0.9-0.3 1.9 0 2.2 0.3 0.3 0.5-0.1 0.5-0.7 0-0.7 0.5-1.1 1-0.8 0.5 0.3 1.8-0.3 2.8-1.2 1-1 2.4-1.9 3-2 0.7-0.2 3.8-2.1 7-4.3 3.1-2.2 6-4 6.5-4 0.4 0 0.5 0.8 0.2 1.8-0.3 0.9 1.7-2.8 4.4-8.3 2.8-5.5 7-16.1 9.5-23.5 2.4-7.4 5.6-19.1 7-26 1.4-6.9 2.6-13.1 2.6-13.7 0-0.7-0.6-1.3-1.2-1.3-0.7 0-3.9 1.8-7 4z"/><path class="t" d="m994 215.5c-5.2 0.8-17.4 2.1-27 3-9.6 0.9-22.7 2.5-29 3.6-6.3 1.1-14.9 2.9-19 4-4.1 1.1-11.2 3.7-15.8 5.7-4.5 2-8.1 3.8-8 3.9 0.2 0.1 2.8-0.6 5.8-1.6 3-1 10.5-2.7 16.5-3.6 9-1.4 14.3-1.6 29-1.1 9.9 0.4 19.4 0.8 21 1 1.6 0.2 3.5 0.4 4 0.6 0.5 0.1 2 0.2 3.3 0.1q2.2-0.1 1.5 1.2c-0.4 0.7 0.1 0.6 1.1-0.3 0.9-0.8 1.7-1.1 1.6-0.5 0 0.6 0.7 0.1 1.6-1 0.8-1.1 1.3-1.4 1-0.7-0.4 1.1-0.1 1.2 1.5 0.3 1-0.6 1.9-1.3 1.9-1.6 0-0.3-0.6-0.2-1.2 0.2q-1.3 0.8-0.5-0.5c0.4-0.6 1.2-1 1.7-0.7 0.5 0.3 1.9-0.1 3-0.7 1.1-0.7 1.8-1.5 1.5-1.8-0.2-0.3 0.5-1.1 1.5-1.7 1.1-0.7 1.8-0.9 1.5-0.3q-0.5 1 1.5 0c1.1-0.6 2.3-1.6 2.7-2.3 0.4-0.7-0.1-0.6-1.2 0.3-1 0.8-1.5 0.9-1.1 0.3 0.5-0.7 1.7-1.8 2.7-2.4 1.4-0.8 1.8-0.8 1.4 0-0.4 0.8 0.1 0.8 1.5 0.1 1.1-0.6 2-1.2 2-1.5 0-0.3-0.6-0.2-1.2 0.2q-1.3 0.8-0.5-0.5c0.4-0.6 1.2-1 1.7-0.7 0.5 0.3 2-0.2 3.3-1 2.1-1.4 2.1-1.5 0.2-1.4-1.1 0.1-6.3 0.7-11.5 1.4z"/><path class="u" d="m1097.8 202c-0.4 17.8-1.1 26.4-2.7 35.5-1.2 6.6-3.1 15.3-4.1 19.3-1.1 3.9-2 7.5-1.9 7.9 0 0.5 0.6-0.8 1.3-2.7 0.9-2.4 2.4-4 4.9-5.3 3.3-1.5 3.7-2.2 3.8-5.5 0.1-3.3 0.2-3.5 0.9-1.2q0.9 2.5 0.3-2.5c-0.3-2.8 0-8.2 0.6-12 0.7-4.9 0.8-12.5 0.1-25.5-0.6-10.2-1.4-21.4-1.8-25-0.7-5.1-0.9-1.4-1.4 17z"/><path class="v" d="m1097 187c0 5.5-0.4 8.1-1.3 8.4-0.6 0.2-7.3 4.3-14.7 9.1-7.4 4.8-15.8 10.2-18.5 12-2.8 1.8-13.1 8.5-23 15-9.9 6.5-19.5 12.6-21.3 13.6-1.7 1.1-2.7 2.1-2.2 2.4 0.5 0.3 1.6 0.2 2.3-0.2 0.6-0.3 0.9-0.3 0.5 0-0.5 0.4 1.8 2.7 5 5.1 3.1 2.4 7 5.7 8.5 7.2 1.6 1.6 4.3 5.8 6 9.4 3.1 6.3 3.2 6.8 3.2 20 0 7.4 0.2 12.4 0.4 11 0.2-1.5 3.1-5.3 7.2-9.3 6.1-5.9 6.9-7.1 6.9-10.4 0-2.1-0.6-5.8-1.4-8.3-0.8-2.5-2.3-6.6-3.5-9.2-1.7-4-1.8-4.8-0.6-4.8 0.8 0 1.3-0.4 1-1-0.3-0.6-0.2-0.9 0.2-0.8 0.5 0.1 1.8-0.1 3-0.5 1.5-0.4 2-1.1 1.5-1.9q-0.7-1.3 0.5-0.5c0.8 0.4 2.3-0.3 3.8-1.8 1.4-1.4 2.5-2.3 2.5-2 0 0.3 1.3-0.3 2.9-1.2 1.7-1 2.7-2.2 2.4-2.8-0.3-0.6-0.2-0.7 0.3-0.3 0.5 0.4 2.6-0.2 4.6-1.5 2-1.2 3.5-2.5 3.3-2.9-0.3-0.5-0.2-0.7 0.3-0.7 0.4 0.1 1.3 0.1 2 0 0.7 0 0.9-0.6 0.5-1.3q-0.8-1.3 0.5-0.5c0.7 0.4 3.5-0.9 7-3.3 3.1-2.2 6.3-4 7-4 0.7 0 1.6-2.5 2.2-6.2 0.6-3.5 1.4-15.2 1.7-26.1 0.3-10.8 0.3-19.7-0.1-19.7-0.3 0-0.6 3.6-0.6 8z"/><path class="b" d="m668.5 309c0 81.1 0.1 114.2 0.2 73.5 0.2-40.7 0.2-107.1 0-147.5-0.1-40.4-0.2-7.1-0.2 74z"/><path class="j" d="m624.5 309c0 81.1 0.1 114.2 0.2 73.5 0.2-40.7 0.2-107.1 0-147.5-0.1-40.4-0.2-7.1-0.2 74z"/><path class="j" d="m320.5 219.5v58h147.5l-147-0.5-0.5-115.5z"/><path class="l" d="m694.5 161.7c14.3 0.2 37.9 0.2 52.5 0 14.6-0.1 2.9-0.2-26-0.2-28.9 0-40.8 0.1-26.5 0.2z"/><path class="k" d="m625.5 308.5c0 130.8 0.2 148 1.5 148.1 0.8 0 0.9-0.1 0.3-0.3-1-0.2-1.4-30.9-1.6-148l-0.2-147.8z"/><path class="l" d="m545.5 161.7c14.3 0.2 37.9 0.2 52.5 0 14.6-0.1 2.9-0.2-26-0.2-28.9 0-40.8 0.1-26.5 0.2z"/><path class="l" d="m360 161.7c21.7 0.2 57.5 0.2 79.5 0 22-0.1 4.2-0.2-39.5-0.2-43.7 0-61.7 0.1-40 0.2z"/><path class="k" d="m319.5 219c0 32.2 0.1 45.2 0.2 29 0.2-16.2 0.2-42.6 0-58.5-0.1-15.9-0.2-2.7-0.2 29.5z"/><path class="k" d="m67.5 214.5c0 29.7 0.1 41.6 0.2 26.5 0.2-15.1 0.2-39.4 0-54-0.1-14.6-0.2-2.2-0.2 27.5z"/><path class="p" d="m68.5 161.3c-0.3 0.6-0.4 25-0.3 54.2l0.3 53h157.5l-157-0.5v-107l169.5-0.5c-151.9-0.4-169.7-0.2-170 0.7z"/><path class="k" d="m479 158.8c0 0.9-16.6 1.3-79.3 1.4l-79.2 0.3c130 0.4 158.3 0.2 158.9-0.5 0.6-0.5 0.7-1.3 0.3-1.7-0.4-0.5-0.7-0.2-0.7 0.4z"/><path class="k" d="m238 157.8c0 0.9-17.7 1.3-84.8 1.4l-84.7 0.3c139.1 0.4 169.3 0.2 169.9-0.5 0.6-0.5 0.8-1.3 0.3-1.7-0.4-0.5-0.7-0.2-0.7 0.4z"/><path class="k" d="m772.8 158c-0.8 2-2 2-53 2.3l-52.3 0.2-0.5 295.5c-5.8 1.4-6.7 1.8-5.7 1.9 0.9 0.1 2.8-0.3 4.2-0.9l2.5-1v-295c104.9 0 105 0 105.3-2.1 0.2-1.1 0.3-2.2 0.3-2.5-0.1-0.2-0.4 0.5-0.8 1.6z"/><path class="k" d="m518.1 156c-0.1 0.8 0.4 2.3 1.1 3.3 1.2 1.6 4.6 1.7 53.3 1.5l52-0.3-104.5-0.5c-1.4-4.3-1.9-4.8-1.9-4z"/><path class="w" d="m1094.1 155.8c-0.1 1.2-0.7 2.5-1.3 2.9-0.9 0.6-1 0.4-0.4-0.7 0.5-0.8-0.6 0-2.4 1.7-1.9 1.8-3.7 3.3-4 3.3-0.3 0 0.6-1 2-2.1 1.7-1.4 1.9-1.7 0.5-1-1.1 0.5-2.9 1.7-4 2.6-1.1 0.9-1.4 1.4-0.7 1.1 0.6-0.3 1.2-0.4 1.2-0.1 0 0.3-0.9 0.9-2 1.5-1.5 0.8-1.8 0.7-1.3-0.3 0.4-0.6-0.8 0.3-2.5 2-1.8 1.8-3.4 3.3-3.7 3.3-0.3 0-0.2-0.6 0.1-1.3 0.3-0.6-0.4-0.1-1.6 1.3-1.2 1.4-1.9 1.8-1.5 1 0.4-0.8-0.3-0.4-1.5 1-1.2 1.4-1.8 1.8-1.4 1 0.4-0.8-0.4-0.4-1.8 1-1.3 1.4-2.3 2.8-2.1 3.2 0.2 0.5-0.1 0.9-0.5 1-0.4 0.2-2 2.4-3.5 5-1.5 2.7-5.5 7.5-8.9 10.8-4.1 3.9-9.1 7.5-14.3 10-4.4 2.2-12 5.1-17 6.5-4.9 1.4-9.8 2.5-10.7 2.5-1 0-3.1 0.9-4.8 2-1.6 1.1-3.4 1.8-4 1.5-0.5-0.3-1.3 0.1-1.7 0.7q-0.8 1.3 0.5 0.5c0.6-0.4 1.2-0.5 1.2-0.2 0 0.3-0.9 0.9-2 1.5q-2 1-1.5 0 0.5-1-1.5 0c-1.1 0.5-2.3 1.6-2.7 2.2-0.4 0.8 0.1 0.7 1.2-0.2 1.1-0.9 1.6-1 1.2-0.3-0.4 0.7-1.6 1.7-2.7 2.3q-2 1-1.5 0c0.3-0.6-0.4-0.4-1.5 0.2-1 0.7-1.7 1.5-1.5 1.8 0.3 0.3-0.4 1.1-1.5 1.7-1.1 0.7-2.4 1.1-3 0.8-0.5-0.3-1.3 0.1-1.7 0.7q-0.8 1.3 0.5 0.5c0.6-0.4 1.2-0.5 1.2-0.2 0 0.3-0.9 0.9-2 1.5-1.5 0.8-1.9 0.7-1.4-0.3 0.3-0.6 0-0.5-0.8 0.4-0.8 1-2.6 1.4-4.8 1.3-1.9-0.2-3-0.2-2.5 0.1 0.6 0.2 5.3 1.5 10.5 2.9 5.2 1.4 14 4.5 19.5 6.8 5.5 2.4 10.2 4.6 10.5 5 0.3 0.4 2.1-0.1 4-1.1 1.9-1 11.6-7.1 21.5-13.6 9.9-6.5 20.3-13.2 23-15 2.8-1.8 11.1-7.2 18.5-12 7.4-4.8 14.1-9 14.9-9.4 1.2-0.5 1.3-3.5 0.8-17.6-0.4-9.4-1.1-18.6-1.6-20.5-0.6-2.5-0.9-2.9-1-1.3z"/><path class="i" d="m1092 134.5c0 0.3 1.1 6.2 2.5 13.3 1.4 7 3.5 19.9 4.6 28.7 1.4 10.6 2.3 24.4 2.6 41 0.4 15.3 0.1 30.3-0.6 38.5-0.6 7.4-1.9 18.7-2.7 25-0.8 6.3-2.9 17.8-4.5 25.5-1.6 7.7-4.3 18.7-5.9 24.5-1.6 5.8-4.5 14.8-6.4 20-1.9 5.2-5.1 13.6-7.1 18.5-2.1 4.9-5.9 13.3-8.5 18.5-2.6 5.2-6.9 13.1-9.5 17.5-2.6 4.4-7.4 11.8-10.6 16.5-3.2 4.7-8.3 11.6-11.4 15.5-3.1 3.9-9.1 10.6-13.3 15.1-4.2 4.4-11.3 11.2-15.7 15-4.4 3.9-11.8 9.9-16.5 13.3l-8.5 6.2c17-1 26.3-1.9 31.5-2.7 5.2-0.8 13.8-2.6 19-4 5.2-1.3 13.3-3.9 18-5.6 4.7-1.7 13.5-5.5 19.5-8.5 6-3 14.8-8 19.5-11.1 4.7-3.1 11.9-8.3 16-11.6 4.1-3.4 11.5-10.1 16.4-15.1 4.8-4.9 11.9-13.1 15.6-18 3.7-4.9 9.1-12.8 12-17.5 2.8-4.7 6.9-12.1 9-16.5 2.1-4.4 5.8-13.9 8.3-21 2.4-7.1 5.4-17.9 6.6-24 1.1-6.1 2.6-15.1 3.1-20 0.5-4.9 1-13.1 1-18 0-4.9-0.5-13.7-1-19.5-0.6-5.8-2.4-16.4-4-23.5-1.5-7.2-4.4-17.3-6.3-22.5-1.9-5.2-4.9-12.7-6.7-16.5-1.7-3.8-5.7-11.3-8.7-16.5-3.1-5.2-8.6-13.6-12.3-18.5-3.7-4.9-10.1-12.6-14.1-16.9-4.1-4.4-12.2-11.9-18.1-16.8-6-4.8-11.3-8.8-11.8-8.8-0.5 0-1 0.2-1 0.5z"/><path class="k" d="m775.3 141.5c0 4.4 0.2 6 0.4 3.5 0.2-2.5 0.2-6.1 0-8-0.2-1.9-0.4 0.1-0.4 4.5z"/><path class="u" d="m1068.6 141.5c-0.4 4.9-1.9 12.4-3.2 16.5-1.3 4.1-3.7 9.8-5.3 12.5-1.6 2.8-4.8 7.2-7.2 9.9-2.4 2.7-7.1 6.7-10.4 8.9-3.3 2.3-9.4 5.6-13.5 7.5-4.1 1.8-12.4 4.6-18.5 6.2-6 1.6-18.2 4-27 5.4-8.8 1.4-22.5 3.5-30.5 4.6-8 1.2-19.7 3.5-26 5.1-6.3 1.6-15.1 4.7-19.5 6.8-4.4 2.2-10 5.8-12.5 8.1l-4.5 4.1c7-3.9 12.6-6.4 17-8.2 4.4-1.7 14.3-4.4 22-6 7.7-1.5 23.7-3.7 35.5-4.9 11.8-1.1 27.6-3 35-4 7.4-1.1 17.4-3.1 22.3-4.5 4.8-1.4 11.5-3.9 15-5.6 3.4-1.7 8.5-4.8 11.2-6.8 2.8-2.1 6.9-6.2 9.2-9.2 2.4-3 5.6-8.8 7.2-12.9 1.6-4.1 3.4-11.1 4.1-15.5 0.6-4.4 1-12.3 0.8-17.5l-0.3-9.5z"/><path class="k" d="m240.4 141.5c0 5.5 0.1 7.5 0.3 4.5 0.2-3 0.2-7.5 0-10-0.2-2.5-0.3 0-0.3 5.5z"/><path class="k" d="m481.4 141.5c0 6.1 0.1 8.3 0.3 5 0.2-3.3 0.2-8.3 0-11-0.2-2.8-0.3-0.1-0.3 6z"/><path class="o" d="m1068.4 133c0 5.2 0.1 7.3 0.3 4.5 0.2-2.8 0.2-7 0-9.5-0.2-2.5-0.3-0.2-0.3 5z"/><path class="k" d="m277.5 289.7c0 147.5 0.2 166.8 1.5 166.9 0.8 0 0.9-0.1 0.3-0.3-1-0.2-1.4-34.6-1.6-166.8l-0.2-166.5z"/><path class="k" d="m25 290.5v167.5c205 0 218.1-0.2 218.5-1.5 0.3-0.8 0.5-2.1 0.4-2.8 0-0.6-0.4-0.2-1 1l-0.9 2.3h-216c0.4-258.9 0.2-334-0.3-334-0.4 0-0.7 75.4-0.7 167.5z"/><path class="p" d="m584 122.7c34.9 0.2 91.6 0.2 126 0 34.4-0.1 5.8-0.2-63.5-0.2-69.3 0-97.4 0.1-62.5 0.2z"/><path class="x" d="m520.6 123.3c0.2 0.4-0.3 0.9-1.1 1.2-0.9 0.3-1.3 1.3-1 2.5 0.3 1.1 0.2 2-0.3 2-0.4 0-0.5 1.5-0.3 3.3 0.2 1.7-0.1 3.5-0.8 4-0.6 0.4-1.1 2.7-1.1 5.2 0 2.5 0.3 4.7 0.7 4.9 0.5 0.2 1.2 2.8 1.6 5.7 0.4 3 0.9 6.1 1 6.9 0.1 1.3 6.4 1.5 51.2 1.2 28-0.1 52 0 53.2 0.3l2.3 0.5c0 277.9 0.2 295 1.5 295 0.8 0 1.5 0.4 1.5 1 0 0.6 0.7 0.8 1.5 0.5 0.8-0.3 2-0.3 2.5 0 0.5 0.3 6.9 0.6 14 0.8 7.2 0.1 13-0.1 13-0.5 0-0.5 1.6-1 3.5-1.3l3.5-0.5 0.5-295.5c103.6-0.5 104.5-0.5 105-2.5 0.3-1.1 0.8-2 1.2-2 0.5 0 0.7-1.2 0.5-2.5-0.1-1.4 0.1-2.5 0.5-2.5 0.5 0 0.7-3.9 0.6-8.7-0.1-4.9-0.5-9.7-0.8-10.8-0.4-1.1-0.4-2.6-0.1-3.2 0.3-0.7 0.1-1.3-0.4-1.3-0.5 0-0.8-0.7-0.5-1.5 0.3-0.8 0-1.5-0.5-1.5-0.5 0-0.8-0.3-0.6-0.7 0.2-0.5-56.4-0.8-125.9-0.8-69.5 0-126.1 0.3-125.9 0.8z"/><path class="p" d="m327.5 122.7c27.5 0.2 72.7 0.2 100.5 0 27.8-0.1 5.3-0.2-50-0.2-55.3 0-78 0.1-50.5 0.2z"/><path class="x" d="m277.8 289.3c0.2 147.4 0.4 166.7 1.7 166.7 0.8 0 1.5 0.3 1.5 0.8 0 0.4 1.2 0.6 2.5 0.4 1.4-0.1 2.5 0.1 2.5 0.5 0 0.5 5.9 0.8 13 0.8 7.1 0 13-0.3 13-0.8 0-0.4 0.9-0.7 2-0.7 1.1 0 2.7-0.2 3.5-0.5 1.3-0.4 1.5-9.2 1.5-70.5 0-61.3 0.2-70.1 1.5-70.5 0.8-0.3 34.6-0.5 75-0.5 64.9 0 73.4-0.2 73-1.5-0.3-0.8-0.1-1.5 0.5-1.5 0.6 0 0.8-0.9 0.5-2-0.3-1.1-0.2-2 0.2-2 0.5 0 0.8-4.9 0.8-11 0-6.1-0.3-11-0.8-11-0.4 0-0.7-0.9-0.7-2 0-1.1-0.2-2.7-0.5-3.5-0.4-1.3-9.5-1.5-73.8-1.5-57.7 0-73.5-0.2-74.5-1.2-1-1-1.2-13.8-1.2-59 0-50.5 0.2-57.9 1.5-58.3 0.8-0.3 36.8-0.5 80-0.5 68.9 0 78.6-0.2 79-1.5 0.3-0.8 0.5-2.4 0.5-3.5 0-1.1 0.3-2 0.7-2 0.5 0 0.8-5.2 0.8-11.5 0-6.3-0.3-11.5-0.8-11.5-0.4 0-0.5-0.9-0.2-2 0.3-1.1 0-2-0.5-2-0.6 0-0.9-0.7-0.8-1.5 0.3-1.3-11.6-1.5-100.7-1.7l-101-0.3z"/><path class="b" d="m276.5 289c0 92.1 0.1 129.7 0.2 83.5 0.2-46.2 0.2-121.6 0-167.5-0.1-45.9-0.2-8.1-0.2 84z"/><path class="x" d="m132 123l-105.5 0.5-0.5 333.5c215.2 0 216 0 216.5-2 0.3-1.1 0.8-2 1.3-2 0.4 0 0.5-1.5 0.3-3.3-0.2-1.7 0.3-5 1-7.2 0.9-3 1-4.7 0.1-7-0.6-1.6-1.2-5.3-1.4-8-0.2-2.8-0.7-5.3-1.3-5.7-0.6-0.4-39.7-0.8-87-0.8-68.1 0-86.3-0.2-87.3-1.2-1-1-1.2-13.3-1.2-56.8 0-42.2 0.3-55.8 1.2-56.8 0.9-0.9 18.2-1.2 79.5-1.2 68.9 0 78.3-0.2 78.3-1.5 0-0.8 0.3-1.5 0.7-1.5 0.5 0 0.7-1.2 0.5-2.5-0.1-1.4 0.1-2.5 0.5-2.5 0.5 0 0.8-4.5 0.8-10 0-5.5-0.3-10-0.8-10-0.4 0-0.5-0.9-0.2-2 0.3-1.1 0.1-2-0.5-2-0.6 0-0.8-0.8-0.7-1.8 0.4-1.6-3.8-1.7-78-1.5-68.5 0.3-78.5 0.1-79.8-1.2-1.3-1.3-1.5-8.7-1.5-54 0-44.5 0.2-52.7 1.5-54 1.2-1.3 11.6-1.5 85.8-1.3 67.2 0.2 84.4 0 84.1-1-0.2-0.6-0.1-1.2 0.4-1.2 0.4 0 0.6-1.2 0.5-2.5-0.2-1.4 0-2.5 0.5-2.5 0.4 0 0.7-4.7 0.7-10.5 0-5.8-0.3-10.5-0.7-10.5-0.5 0-1-1.5-1.3-3.3-0.3-1.7-0.6-3.8-0.7-4.5-0.1-0.6-0.2-1.1-0.2-1-0.1 0.2-47.6 0.5-105.6 0.8z"/><path class="p" d="m79 122.7c29.4 0.2 77.1 0.2 106 0 28.9-0.1 4.8-0.2-53.5-0.2-58.3 0-81.9 0.1-52.5 0.2z"/><path class="e" d="m24.5 290.5c0 92.9 0.1 130.8 0.2 84 0.2-46.8 0.2-122.8 0-169-0.1-46.2-0.2-7.9-0.2 85z"/><path class="f" d="m583.5 121.7c35.2 0.2 92.4 0.2 127 0 34.6-0.1 5.9-0.2-64-0.2-69.9 0-98.2 0.1-63 0.2z"/><path class="f" d="m327 121.7c27.8 0.2 73.4 0.2 101.5 0 28.1-0.1 5.3-0.2-50.5-0.2-55.8 0-78.8 0.1-51 0.2z"/><path class="f" d="m77.5 121.7c29.2 0.2 77.3 0.2 107 0 29.7-0.1 5.8-0.2-53-0.2-58.8 0-83.2 0.1-54 0.2z"/><path class="f" d="m961 99.6c-1.9 0.3-8.7 1.4-15 2.5-6.3 1.2-17.6 4.1-25 6.5-7.4 2.5-18.7 7-25 10.2-6.3 3.1-15.8 8.6-21 12.1-5.2 3.5-12.9 9.2-17 12.6-4.1 3.5-11.3 10.3-16 15.1-4.7 4.9-11.1 12.3-14.2 16.4-3 4.1-7.6 10.7-10.1 14.5-2.4 3.9-6.1 10.4-8.2 14.5-2.1 4.1-5.2 10.9-7 15-1.8 4.1-4.8 13.1-6.8 20-2 6.9-4.4 17-5.4 22.5-1.3 7.6-1.7 15.2-1.7 31.5 0 18 0.3 23.4 2.2 33.5 1.3 6.6 3.6 16.3 5.1 21.5 1.6 5.2 4.3 13.1 6.1 17.5 1.7 4.4 5.6 12.7 8.6 18.5 3.1 5.8 8.4 14.6 11.9 19.5 3.6 4.9 10.1 13.2 14.5 18.3 4.4 5 12.2 12.8 17.3 17.2 5 4.5 13.7 11.1 19.2 14.8 5.5 3.7 15.6 9.5 22.5 12.9 6.9 3.5 17.2 7.9 23 9.8 5.8 1.9 14.5 4.4 19.5 5.6 5 1.1 13.7 2.7 19.5 3.5 5.8 0.7 12.7 1.4 15.5 1.4 4.6 0 5.3-0.3 9.1-4.2 2.3-2.4 6.5-7.2 9.4-10.8 2.9-3.6 9-12.1 13.5-19 4.5-6.9 10.7-17 13.7-22.5 3-5.5 8.4-16.5 12-24.5 3.6-8 8.7-20.6 11.2-28 2.6-7.4 6-18.8 7.7-25.2 1.6-6.5 2.9-12.2 2.9-12.8 0-0.6-0.3-1-0.7-1-0.5 0-2.4 2.1-4.3 4.7-1.9 2.6-9.3 10.7-16.5 17.9-7.1 7.1-18 16.7-24 21.2-6 4.4-15.7 10.9-21.5 14.3-5.8 3.5-15.2 8.5-21 11.2-5.8 2.7-15.2 6.7-21 8.8-5.8 2.2-10.7 3.7-11 3.3-0.3-0.4 0-0.8 0.5-1 0.5-0.2 6.2-3.6 12.5-7.6 6.3-4.1 15.3-10.3 20-13.8 4.7-3.6 11.4-9 15-12.1 3.6-3.1 9-8.1 12-11 3.1-3 9.3-9.7 13.9-14.9 4.6-5.2 11.2-13.8 14.7-19 3.4-5.2 8.3-13.8 10.7-19 2.5-5.2 5.4-13.3 6.6-18 1.3-5.1 2.1-11.7 2.1-16.5 0-4.5-0.7-10.4-1.6-13.5-0.9-3-2.9-7.3-4.4-9.5-1.5-2.2-4.9-5.9-7.6-8.1-2.7-2.3-7.6-5.8-10.9-7.7-3.3-2-9.4-5-13.5-6.8-4.1-1.7-12-4.5-17.5-6-5.5-1.6-14.8-3.6-20.8-4.4-5.9-0.8-16.7-1.5-23.9-1.5-7.3 0-17.8 0.7-23.3 1.5-5.5 0.9-14.4 3-19.7 4.8-5.4 1.8-9.8 3-9.8 2.7-0.1-0.3 2-2.4 4.5-4.7 2.5-2.4 6.2-5.4 8.3-6.7 2-1.3 6.8-3.7 10.7-5.3 3.9-1.7 12-4.2 18-5.6 6-1.5 20-4 31-5.6 11-1.7 24-3.7 29-4.5 5-0.8 11.3-2 14-2.6 2.8-0.6 8.8-2.3 13.5-3.7 4.7-1.4 11.8-4.2 15.9-6.2 4-2 9.9-5.6 13-8.1 3.1-2.5 7.3-6.8 9.3-9.5 2.1-2.8 4.9-7.2 6.2-10 1.3-2.7 3.2-7.9 4.2-11.5 1.3-4.7 1.9-11 2.1-22.5 0.2-8.8 0.1-15.7-0.2-15.2-0.3 0.4-4.7-1.1-9.8-3.2-5-2.1-13.7-5.3-19.2-7-5.5-1.7-15-4-21-5.2-8.6-1.7-15.5-2.2-32-2.4-11.5-0.2-22.6-0.1-24.5 0.1z"/><path class="q" d="m1009.8 173.8l-6.8 2.7c-4.1-3.7-4.1-3.5-2-1.1 1.4 1.5 3.7 3.4 5.3 4.2 1.5 0.8 3.5 1.4 4.5 1.4 0.9 0 3.1-1.9 4.7-4.1 1.7-2.2 2.9-4.4 2.8-4.7-0.2-0.4-0.6-0.8-1-0.9-0.5-0.1-3.8 1.1-7.5 2.5z"/><path class="w" d="m1033.3 153.2c-0.6 0.7-1.7 2.7-2.5 4.3-0.9 1.7-3.7 5.4-6.4 8.4-2.7 2.9-5.3 6.1-5.9 7-0.5 0.9 0.6 0.5 2.5-1.1 1.9-1.4 4.9-4.4 6.6-6.5 1.7-2.1 4.1-5.8 5.2-8.3 1.2-2.5 2-4.6 1.9-4.8-0.2-0.1-0.8 0.3-1.4 1z"/><path class="t" d="m1029 156.7c-1.9 2.6-5.2 6.9-7.4 9.6-2.3 2.6-3.9 4.9-3.6 5.2 0.3 0.3 2.9-2.1 5.9-5.2 2.9-3.2 6.2-7.5 7.2-9.5 1.1-2.1 1.8-4.1 1.6-4.4-0.2-0.3-1.9 1.6-3.7 4.3z"/><path class="v" d="m1037.9 147.2c-0.9 1.3-3 5.2-4.6 8.8-1.7 3.6-5 8.5-7.4 11-2.4 2.5-5.5 5.4-6.9 6.5-1.4 1.1-3.4 3.2-4.5 4.6-1.1 1.4-2.7 2.8-3.5 3.1-0.8 0.4 0.7 0.7 3.3 0.7 4.7 0.1 5-0.1 12.5-7.6 4.4-4.4 9.1-10.4 10.9-13.8 1.9-3.4 3.2-7.5 3.3-9.5 0-1.9-0.4-4.1-0.8-4.8-0.6-1-1.2-0.7-2.3 1z"/><path class="c" d="m1045.9 145.8c0.8 1.5 0.8 4.3 0.1 8.9-0.6 3.8-2 8.8-3.3 11.2-1.2 2.5-4.2 6.5-6.7 9.1-2.5 2.5-7.2 5.9-10.5 7.6-4.5 2.2-7.4 2.9-11.7 2.9-3.1 0-5.4 0.3-5.2 0.7 0.2 0.5 2.5 1.5 5.1 2.3 2.7 0.8 7.2 1.5 10 1.5 2.9 0 7.7-0.9 10.5-1.9 3.8-1.4 6.7-3.5 10.1-7.3 3.2-3.5 5.3-7 6.3-10.3 0.8-2.8 1.4-6.6 1.4-8.5 0-1.9-0.6-5.8-1.4-8.5-0.8-2.8-2.4-6.1-3.6-7.5-1.9-2.3-2-2.3-1.1-0.3z"/><path class="q" d="m1032.5 144.5c0 4 0.3 7.6 0.8 7.9 0.4 0.3 1.8-1.2 3.2-3.4 1.8-2.9 2.2-4.5 1.6-5.8-0.5-0.9-2-2.7-3.3-3.9l-2.3-2.2z"/><path class="y" d="m1023.6 138.3c-1.4 1.7-4 6.1-5.8 9.7-2.1 4-5.1 7.9-8.1 10.5-2.7 2.2-6 5.8-7.5 7.9-1.5 2.2-2.8 4.4-2.9 5-0.1 0.6 0.7 2 1.8 3.1 1.9 2 1.9 2 9.2-0.7 5.8-2.2 8-3.7 11.3-7.5 2.2-2.6 5.4-6.8 7.1-9.3 2.5-3.7 3.1-5.8 3.5-11.7 0.5-7 0.4-7.2-2.4-8.7-1.5-0.9-3-1.6-3.3-1.6-0.2 0-1.5 1.5-2.9 3.2z"/><path class="g" d="m1013 136.6c-1.9 0.8-4 2.2-4.7 3.2-0.7 0.9-1.2 1.3-1.2 0.7-0.1-0.6-1.5 1.1-3.3 3.8-1.8 2.6-3.7 4.4-4.1 4-0.5-0.5-0.5 0.1 0 1.2 0.6 1.6 0.5 1.8-0.7 1-1.2-0.8-1.3-0.6-0.7 0.8 0.4 0.9 0.3 1.7-0.3 1.7-0.5 0-1.3 1.9-1.6 4.3-0.4 2.3-0.4 5.8 0 7.7 0.3 1.9 1.1 4.2 1.8 5 0.7 0.8 1.2 1.3 1.1 1-0.1-0.3 1.2-2.4 3-4.8 1.8-2.4 5.2-6 7.7-8.1 2.8-2.3 5.8-6.2 7.8-10.1 1.8-3.6 4.4-8 5.8-9.7l2.4-3.3c-7.4 0.1-11.1 0.7-13 1.6z"/><path class="s" d="m1032.3 137c2.9 1.9 5.4 4.5 6.7 7 1.1 2.2 2 5.5 2 7.3-0.1 1.7-1.5 5.9-3.3 9.2-1.9 3.6-6.4 9.2-11.2 13.9l-8 7.9c-8.2-0.6-11.5-1.7-13.9-3.3-2-1.4-4.8-4.3-6.2-6.5-1.8-2.8-2.3-3.3-1.9-1.5 0.4 1.4 1.5 3.8 2.5 5.5 1 1.7 3.4 4.4 5.2 6.2 3 2.9 3.8 3.1 9.3 3 4.4-0.2 7.6-1 12-3.1 3.3-1.7 8-5.1 10.5-7.6 2.5-2.6 5.5-6.6 6.7-9.1 1.3-2.4 2.7-7.3 3.3-10.9 0.6-3.6 0.7-7.4 0.3-8.5-0.4-1.1-0.6-2.3-0.5-2.8 0.1-0.4-1.5-2-3.5-3.6-2.1-1.6-5.5-3.7-7.5-4.5-2.1-0.9-4.6-1.6-5.5-1.6-1 0 0.3 1.3 3 3z"/><path class="t" d="m1045.1 36c1.2 3 3.7 9.5 5.6 14.5 1.8 5 5 14 6.9 20 2 6 4.9 16.6 6.5 23.5 1.5 6.9 3.6 17.7 4.6 24 1 6.8 1.7 17.4 1.6 26q0 14.5-1.6 21.5c-0.8 3.8-1.9 7.9-2.2 9-0.6 1.7-0.3 1.6 1.5-0.5 1.2-1.4 1.9-1.8 1.5-1-0.4 0.8 0.3 0.4 1.5-1 1.2-1.4 1.9-1.8 1.5-1-0.4 0.8 0.3 0.4 1.5-1 1.2-1.4 1.9-1.9 1.6-1.3-0.3 0.7-0.4 1.3-0.1 1.3 0.3 0 1.9-1.5 3.7-3.3 1.7-1.7 2.9-2.6 2.5-2-0.5 1-0.2 1.1 1.3 0.3 1.1-0.6 2-1.2 2-1.5 0-0.3-0.6-0.2-1.2 0.1-0.7 0.3-0.4-0.2 0.7-1.1 1.1-0.9 2.9-2.1 4-2.6 1.4-0.7 1.2-0.4-0.5 1-1.4 1.1-2.2 2.1-1.7 2.1 0.4 0 2.1-1.5 3.9-3.3 1.7-1.7 2.8-2.5 2.3-1.7-0.6 1.1-0.5 1.2 0.3 0.5 0.6-0.6 1.2-2.1 1.2-3.5 0-1.4 0-3.4-0.1-4.5-0.1-1.1-1-6.3-2.1-11.5-1-5.2-3.3-14.2-5-20-1.7-5.8-4.8-15-6.8-20.5-2-5.5-6.1-15-8.9-21-2.9-6-7.3-14.6-9.8-19-2.5-4.4-7.3-12-10.6-17-3.3-5-6.4-9.5-6.9-10-0.5-0.6 0.1 1.5 1.3 4.5z"/></svg>