<svg xmlns="http://www.w3.org/2000/svg" xmlns:xlink="http://www.w3.org/1999/xlink" width="500" zoomAndPan="magnify" viewBox="0 0 375 374.999991" height="500" preserveAspectRatio="xMidYMid meet" version="1.0"><defs><clipPath id="74ca52205b"><path d="M 99 175 L 351 175 L 351 254 L 99 254 Z M 99 175 " clip-rule="nonzero"/></clipPath><clipPath id="a17cd2e561"><path d="M -6.773438 135.109375 L 247.566406 -0.00390625 L 374.9375 239.765625 L 120.597656 374.875 Z M -6.773438 135.109375 " clip-rule="nonzero"/></clipPath><clipPath id="e2319c5ad1"><path d="M 247.554688 0.00390625 L -6.785156 135.113281 L 120.585938 374.882812 L 374.925781 239.769531 Z M 247.554688 0.00390625 " clip-rule="nonzero"/></clipPath><clipPath id="b432b50ff3"><path d="M 85 195 L 105 195 L 105 218 L 85 218 Z M 85 195 " clip-rule="nonzero"/></clipPath><clipPath id="8c31d86678"><path d="M -6.773438 135.109375 L 247.566406 -0.00390625 L 374.9375 239.765625 L 120.597656 374.875 Z M -6.773438 135.109375 " clip-rule="nonzero"/></clipPath><clipPath id="2fe9ce4621"><path d="M 247.554688 0.00390625 L -6.785156 135.113281 L 120.585938 374.882812 L 374.925781 239.769531 Z M 247.554688 0.00390625 " clip-rule="nonzero"/></clipPath><clipPath id="e5b8331ff8"><path d="M 89 199 L 95 199 L 95 210 L 89 210 Z M 89 199 " clip-rule="nonzero"/></clipPath><clipPath id="33727a4cdd"><path d="M -6.773438 135.109375 L 247.566406 -0.00390625 L 374.9375 239.765625 L 120.597656 374.875 Z M -6.773438 135.109375 " clip-rule="nonzero"/></clipPath><clipPath id="5db8de993b"><path d="M 247.554688 0.00390625 L -6.785156 135.113281 L 120.585938 374.882812 L 374.925781 239.769531 Z M 247.554688 0.00390625 " clip-rule="nonzero"/></clipPath><clipPath id="d48fc7cebd"><path d="M 61 211 L 103 211 L 103 263 L 61 263 Z M 61 211 " clip-rule="nonzero"/></clipPath><clipPath id="677dc38a15"><path d="M -6.773438 135.109375 L 247.566406 -0.00390625 L 374.9375 239.765625 L 120.597656 374.875 Z M -6.773438 135.109375 " clip-rule="nonzero"/></clipPath><clipPath id="61a7df54dd"><path d="M 247.554688 0.00390625 L -6.785156 135.113281 L 120.585938 374.882812 L 374.925781 239.769531 Z M 247.554688 0.00390625 " clip-rule="nonzero"/></clipPath><clipPath id="798fe7592c"><path d="M 101 211 L 117 211 L 117 287 L 101 287 Z M 101 211 " clip-rule="nonzero"/></clipPath><clipPath id="05ed03eb05"><path d="M -6.773438 135.109375 L 247.566406 -0.00390625 L 374.9375 239.765625 L 120.597656 374.875 Z M -6.773438 135.109375 " clip-rule="nonzero"/></clipPath><clipPath id="c7fe6a065f"><path d="M 247.554688 0.00390625 L -6.785156 135.113281 L 120.585938 374.882812 L 374.925781 239.769531 Z M 247.554688 0.00390625 " clip-rule="nonzero"/></clipPath><clipPath id="53c4e15d78"><path d="M 111 210 L 132 210 L 132 272 L 111 272 Z M 111 210 " clip-rule="nonzero"/></clipPath><clipPath id="3c083f3536"><path d="M -6.773438 135.109375 L 247.566406 -0.00390625 L 374.9375 239.765625 L 120.597656 374.875 Z M -6.773438 135.109375 " clip-rule="nonzero"/></clipPath><clipPath id="3a8e86292e"><path d="M 247.554688 0.00390625 L -6.785156 135.113281 L 120.585938 374.882812 L 374.925781 239.769531 Z M 247.554688 0.00390625 " clip-rule="nonzero"/></clipPath><clipPath id="66f285330d"><path d="M 123 214 L 201 214 L 201 290 L 123 290 Z M 123 214 " clip-rule="nonzero"/></clipPath><clipPath id="15eee38f0f"><path d="M -6.773438 135.109375 L 247.566406 -0.00390625 L 374.9375 239.765625 L 120.597656 374.875 Z M -6.773438 135.109375 " clip-rule="nonzero"/></clipPath><clipPath id="d58229374e"><path d="M 247.554688 0.00390625 L -6.785156 135.113281 L 120.585938 374.882812 L 374.925781 239.769531 Z M 247.554688 0.00390625 " clip-rule="nonzero"/></clipPath><clipPath id="f070511b88"><path d="M 124 206 L 227 206 L 227 240 L 124 240 Z M 124 206 " clip-rule="nonzero"/></clipPath><clipPath id="f0c91f9ae4"><path d="M -6.773438 135.109375 L 247.566406 -0.00390625 L 374.9375 239.765625 L 120.597656 374.875 Z M -6.773438 135.109375 " clip-rule="nonzero"/></clipPath><clipPath id="a667e39f8e"><path d="M 247.554688 0.00390625 L -6.785156 135.113281 L 120.585938 374.882812 L 374.925781 239.769531 Z M 247.554688 0.00390625 " clip-rule="nonzero"/></clipPath><clipPath id="aa8ac9c0c5"><path d="M 67 211 L 108 211 L 108 244 L 67 244 Z M 67 211 " clip-rule="nonzero"/></clipPath><clipPath id="15b5e36b45"><path d="M -6.773438 135.109375 L 247.566406 -0.00390625 L 374.9375 239.765625 L 120.597656 374.875 Z M -6.773438 135.109375 " clip-rule="nonzero"/></clipPath><clipPath id="a0bc8a409a"><path d="M 247.554688 0.00390625 L -6.785156 135.113281 L 120.585938 374.882812 L 374.925781 239.769531 Z M 247.554688 0.00390625 " clip-rule="nonzero"/></clipPath><clipPath id="c2fea06000"><path d="M 143 192 L 150 192 L 150 204 L 143 204 Z M 143 192 " clip-rule="nonzero"/></clipPath><clipPath id="d0c22bd755"><path d="M -6.773438 135.109375 L 247.566406 -0.00390625 L 374.9375 239.765625 L 120.597656 374.875 Z M -6.773438 135.109375 " clip-rule="nonzero"/></clipPath><clipPath id="1de92e792e"><path d="M 247.554688 0.00390625 L -6.785156 135.113281 L 120.585938 374.882812 L 374.925781 239.769531 Z M 247.554688 0.00390625 " clip-rule="nonzero"/></clipPath><clipPath id="839f14baf7"><path d="M 153 195 L 160 195 L 160 209 L 153 209 Z M 153 195 " clip-rule="nonzero"/></clipPath><clipPath id="4007090b26"><path d="M -6.773438 135.109375 L 247.566406 -0.00390625 L 374.9375 239.765625 L 120.597656 374.875 Z M -6.773438 135.109375 " clip-rule="nonzero"/></clipPath><clipPath id="7d9e5e481f"><path d="M 247.554688 0.00390625 L -6.785156 135.113281 L 120.585938 374.882812 L 374.925781 239.769531 Z M 247.554688 0.00390625 " clip-rule="nonzero"/></clipPath><clipPath id="9e592b291e"><path d="M 144 103 L 306 103 L 306 191 L 144 191 Z M 144 103 " clip-rule="nonzero"/></clipPath><clipPath id="415dfd173a"><path d="M -6.773438 135.109375 L 247.566406 -0.00390625 L 374.9375 239.765625 L 120.597656 374.875 Z M -6.773438 135.109375 " clip-rule="nonzero"/></clipPath><clipPath id="d9d583bcc9"><path d="M 247.554688 0.00390625 L -6.785156 135.113281 L 120.585938 374.882812 L 374.925781 239.769531 Z M 247.554688 0.00390625 " clip-rule="nonzero"/></clipPath><clipPath id="d48d349d84"><path d="M 130 23 L 237 23 L 237 182 L 130 182 Z M 130 23 " clip-rule="nonzero"/></clipPath><clipPath id="e6d9a9cd61"><path d="M -6.773438 135.109375 L 247.566406 -0.00390625 L 374.9375 239.765625 L 120.597656 374.875 Z M -6.773438 135.109375 " clip-rule="nonzero"/></clipPath><clipPath id="482b5ac544"><path d="M 247.554688 0.00390625 L -6.785156 135.113281 L 120.585938 374.882812 L 374.925781 239.769531 Z M 247.554688 0.00390625 " clip-rule="nonzero"/></clipPath><clipPath id="97e2c24ced"><path d="M 127 38 L 189 38 L 189 178 L 127 178 Z M 127 38 " clip-rule="nonzero"/></clipPath><clipPath id="677894e8ad"><path d="M -6.773438 135.109375 L 247.566406 -0.00390625 L 374.9375 239.765625 L 120.597656 374.875 Z M -6.773438 135.109375 " clip-rule="nonzero"/></clipPath><clipPath id="7f132c5b89"><path d="M 247.554688 0.00390625 L -6.785156 135.113281 L 120.585938 374.882812 L 374.925781 239.769531 Z M 247.554688 0.00390625 " clip-rule="nonzero"/></clipPath><clipPath id="ddfea55bc5"><path d="M 132 46 L 181 46 L 181 170 L 132 170 Z M 132 46 " clip-rule="nonzero"/></clipPath><clipPath id="e89dd936cc"><path d="M -6.773438 135.109375 L 247.566406 -0.00390625 L 374.9375 239.765625 L 120.597656 374.875 Z M -6.773438 135.109375 " clip-rule="nonzero"/></clipPath><clipPath id="2e19cb9d8f"><path d="M 247.554688 0.00390625 L -6.785156 135.113281 L 120.585938 374.882812 L 374.925781 239.769531 Z M 247.554688 0.00390625 " clip-rule="nonzero"/></clipPath><clipPath id="7f0e315755"><path d="M 142 51 L 184 51 L 184 153 L 142 153 Z M 142 51 " clip-rule="nonzero"/></clipPath><clipPath id="d2a134897a"><path d="M -6.773438 135.109375 L 247.566406 -0.00390625 L 374.9375 239.765625 L 120.597656 374.875 Z M -6.773438 135.109375 " clip-rule="nonzero"/></clipPath><clipPath id="1d10f252da"><path d="M 247.554688 0.00390625 L -6.785156 135.113281 L 120.585938 374.882812 L 374.925781 239.769531 Z M 247.554688 0.00390625 " clip-rule="nonzero"/></clipPath><clipPath id="a461bdf076"><path d="M 134 42 L 179 42 L 179 157 L 134 157 Z M 134 42 " clip-rule="nonzero"/></clipPath><clipPath id="9c3cb681e1"><path d="M -6.773438 135.109375 L 247.566406 -0.00390625 L 374.9375 239.765625 L 120.597656 374.875 Z M -6.773438 135.109375 " clip-rule="nonzero"/></clipPath><clipPath id="d5e873b22a"><path d="M 247.554688 0.00390625 L -6.785156 135.113281 L 120.585938 374.882812 L 374.925781 239.769531 Z M 247.554688 0.00390625 " clip-rule="nonzero"/></clipPath><clipPath id="8d49e4a08b"><path d="M 152 56 L 188 56 L 188 138 L 152 138 Z M 152 56 " clip-rule="nonzero"/></clipPath><clipPath id="5b056dca8f"><path d="M -6.773438 135.109375 L 247.566406 -0.00390625 L 374.9375 239.765625 L 120.597656 374.875 Z M -6.773438 135.109375 " clip-rule="nonzero"/></clipPath><clipPath id="ad25e74443"><path d="M 247.554688 0.00390625 L -6.785156 135.113281 L 120.585938 374.882812 L 374.925781 239.769531 Z M 247.554688 0.00390625 " clip-rule="nonzero"/></clipPath><clipPath id="65f27a3278"><path d="M 134 39 L 235 39 L 235 179 L 134 179 Z M 134 39 " clip-rule="nonzero"/></clipPath><clipPath id="baed790e60"><path d="M -6.773438 135.109375 L 247.566406 -0.00390625 L 374.9375 239.765625 L 120.597656 374.875 Z M -6.773438 135.109375 " clip-rule="nonzero"/></clipPath><clipPath id="da55816974"><path d="M 247.554688 0.00390625 L -6.785156 135.113281 L 120.585938 374.882812 L 374.925781 239.769531 Z M 247.554688 0.00390625 " clip-rule="nonzero"/></clipPath><clipPath id="dd7b2be245"><path d="M 163 36 L 234 36 L 234 125 L 163 125 Z M 163 36 " clip-rule="nonzero"/></clipPath><clipPath id="37e6e30581"><path d="M -6.773438 135.109375 L 247.566406 -0.00390625 L 374.9375 239.765625 L 120.597656 374.875 Z M -6.773438 135.109375 " clip-rule="nonzero"/></clipPath><clipPath id="4f07869ede"><path d="M 247.554688 0.00390625 L -6.785156 135.113281 L 120.585938 374.882812 L 374.925781 239.769531 Z M 247.554688 0.00390625 " clip-rule="nonzero"/></clipPath><clipPath id="4b583ec474"><path d="M 168 30 L 232 30 L 232 105 L 168 105 Z M 168 30 " clip-rule="nonzero"/></clipPath><clipPath id="5ac537546b"><path d="M -6.773438 135.109375 L 247.566406 -0.00390625 L 374.9375 239.765625 L 120.597656 374.875 Z M -6.773438 135.109375 " clip-rule="nonzero"/></clipPath><clipPath id="b136a04f7e"><path d="M 247.554688 0.00390625 L -6.785156 135.113281 L 120.585938 374.882812 L 374.925781 239.769531 Z M 247.554688 0.00390625 " clip-rule="nonzero"/></clipPath><clipPath id="71c0d8f748"><path d="M 183 25 L 229 25 L 229 70 L 183 70 Z M 183 25 " clip-rule="nonzero"/></clipPath><clipPath id="f906a651d0"><path d="M -6.773438 135.109375 L 247.566406 -0.00390625 L 374.9375 239.765625 L 120.597656 374.875 Z M -6.773438 135.109375 " clip-rule="nonzero"/></clipPath><clipPath id="6e78758a12"><path d="M 247.554688 0.00390625 L -6.785156 135.113281 L 120.585938 374.882812 L 374.925781 239.769531 Z M 247.554688 0.00390625 " clip-rule="nonzero"/></clipPath><clipPath id="f63c510590"><path d="M 137 45 L 236 45 L 236 179 L 137 179 Z M 137 45 " clip-rule="nonzero"/></clipPath><clipPath id="793e74608d"><path d="M -6.773438 135.109375 L 247.566406 -0.00390625 L 374.9375 239.765625 L 120.597656 374.875 Z M -6.773438 135.109375 " clip-rule="nonzero"/></clipPath><clipPath id="059dc046d8"><path d="M 247.554688 0.00390625 L -6.785156 135.113281 L 120.585938 374.882812 L 374.925781 239.769531 Z M 247.554688 0.00390625 " clip-rule="nonzero"/></clipPath><clipPath id="184ce69032"><path d="M 146 51 L 235 51 L 235 174 L 146 174 Z M 146 51 " clip-rule="nonzero"/></clipPath><clipPath id="68d6ce405f"><path d="M -6.773438 135.109375 L 247.566406 -0.00390625 L 374.9375 239.765625 L 120.597656 374.875 Z M -6.773438 135.109375 " clip-rule="nonzero"/></clipPath><clipPath id="17c304350d"><path d="M 247.554688 0.00390625 L -6.785156 135.113281 L 120.585938 374.882812 L 374.925781 239.769531 Z M 247.554688 0.00390625 " clip-rule="nonzero"/></clipPath><clipPath id="a302b40528"><path d="M 146 106 L 303 106 L 303 188 L 146 188 Z M 146 106 " clip-rule="nonzero"/></clipPath><clipPath id="2be3145f9d"><path d="M -6.773438 135.109375 L 247.566406 -0.00390625 L 374.9375 239.765625 L 120.597656 374.875 Z M -6.773438 135.109375 " clip-rule="nonzero"/></clipPath><clipPath id="4c1606091b"><path d="M 247.554688 0.00390625 L -6.785156 135.113281 L 120.585938 374.882812 L 374.925781 239.769531 Z M 247.554688 0.00390625 " clip-rule="nonzero"/></clipPath><clipPath id="070eea9620"><path d="M 214 57 L 235 57 L 235 68 L 214 68 Z M 214 57 " clip-rule="nonzero"/></clipPath><clipPath id="8235fb163e"><path d="M -6.773438 135.109375 L 247.566406 -0.00390625 L 374.9375 239.765625 L 120.597656 374.875 Z M -6.773438 135.109375 " clip-rule="nonzero"/></clipPath><clipPath id="188fcdfcfb"><path d="M 247.554688 0.00390625 L -6.785156 135.113281 L 120.585938 374.882812 L 374.925781 239.769531 Z M 247.554688 0.00390625 " clip-rule="nonzero"/></clipPath><clipPath id="501513e8e8"><path d="M 206 65 L 234 65 L 234 79 L 206 79 Z M 206 65 " clip-rule="nonzero"/></clipPath><clipPath id="35f4ed276d"><path d="M -6.773438 135.109375 L 247.566406 -0.00390625 L 374.9375 239.765625 L 120.597656 374.875 Z M -6.773438 135.109375 " clip-rule="nonzero"/></clipPath><clipPath id="2460e0419c"><path d="M 247.554688 0.00390625 L -6.785156 135.113281 L 120.585938 374.882812 L 374.925781 239.769531 Z M 247.554688 0.00390625 " clip-rule="nonzero"/></clipPath><clipPath id="29d9a473b0"><path d="M 198 71 L 232 71 L 232 92 L 198 92 Z M 198 71 " clip-rule="nonzero"/></clipPath><clipPath id="00f3fd420a"><path d="M -6.773438 135.109375 L 247.566406 -0.00390625 L 374.9375 239.765625 L 120.597656 374.875 Z M -6.773438 135.109375 " clip-rule="nonzero"/></clipPath><clipPath id="43f48307af"><path d="M 247.554688 0.00390625 L -6.785156 135.113281 L 120.585938 374.882812 L 374.925781 239.769531 Z M 247.554688 0.00390625 " clip-rule="nonzero"/></clipPath><clipPath id="db01178ff7"><path d="M 194 78 L 231 78 L 231 100 L 194 100 Z M 194 78 " clip-rule="nonzero"/></clipPath><clipPath id="5cb0cf212b"><path d="M -6.773438 135.109375 L 247.566406 -0.00390625 L 374.9375 239.765625 L 120.597656 374.875 Z M -6.773438 135.109375 " clip-rule="nonzero"/></clipPath><clipPath id="9d15ac2835"><path d="M 247.554688 0.00390625 L -6.785156 135.113281 L 120.585938 374.882812 L 374.925781 239.769531 Z M 247.554688 0.00390625 " clip-rule="nonzero"/></clipPath><clipPath id="1cfeafb181"><path d="M 191 85 L 228 85 L 228 106 L 191 106 Z M 191 85 " clip-rule="nonzero"/></clipPath><clipPath id="43f3f2cf6c"><path d="M -6.773438 135.109375 L 247.566406 -0.00390625 L 374.9375 239.765625 L 120.597656 374.875 Z M -6.773438 135.109375 " clip-rule="nonzero"/></clipPath><clipPath id="71a4a634a8"><path d="M 247.554688 0.00390625 L -6.785156 135.113281 L 120.585938 374.882812 L 374.925781 239.769531 Z M 247.554688 0.00390625 " clip-rule="nonzero"/></clipPath><clipPath id="bbe1124531"><path d="M 188 92 L 225 92 L 225 112 L 188 112 Z M 188 92 " clip-rule="nonzero"/></clipPath><clipPath id="0734097d5b"><path d="M -6.773438 135.109375 L 247.566406 -0.00390625 L 374.9375 239.765625 L 120.597656 374.875 Z M -6.773438 135.109375 " clip-rule="nonzero"/></clipPath><clipPath id="0eb9db6abc"><path d="M 247.554688 0.00390625 L -6.785156 135.113281 L 120.585938 374.882812 L 374.925781 239.769531 Z M 247.554688 0.00390625 " clip-rule="nonzero"/></clipPath><clipPath id="9fb66ae4f7"><path d="M 185 99 L 224 99 L 224 119 L 185 119 Z M 185 99 " clip-rule="nonzero"/></clipPath><clipPath id="efb3e845c0"><path d="M -6.773438 135.109375 L 247.566406 -0.00390625 L 374.9375 239.765625 L 120.597656 374.875 Z M -6.773438 135.109375 " clip-rule="nonzero"/></clipPath><clipPath id="4598151b88"><path d="M 247.554688 0.00390625 L -6.785156 135.113281 L 120.585938 374.882812 L 374.925781 239.769531 Z M 247.554688 0.00390625 " clip-rule="nonzero"/></clipPath><clipPath id="2563552441"><path d="M 182 106 L 220 106 L 220 127 L 182 127 Z M 182 106 " clip-rule="nonzero"/></clipPath><clipPath id="84959d646f"><path d="M -6.773438 135.109375 L 247.566406 -0.00390625 L 374.9375 239.765625 L 120.597656 374.875 Z M -6.773438 135.109375 " clip-rule="nonzero"/></clipPath><clipPath id="5715c817e8"><path d="M 247.554688 0.00390625 L -6.785156 135.113281 L 120.585938 374.882812 L 374.925781 239.769531 Z M 247.554688 0.00390625 " clip-rule="nonzero"/></clipPath><clipPath id="23f1237b8c"><path d="M 178 113 L 214 113 L 214 135 L 178 135 Z M 178 113 " clip-rule="nonzero"/></clipPath><clipPath id="9b67d7acfb"><path d="M -6.773438 135.109375 L 247.566406 -0.00390625 L 374.9375 239.765625 L 120.597656 374.875 Z M -6.773438 135.109375 " clip-rule="nonzero"/></clipPath><clipPath id="cbcb13fb05"><path d="M 247.554688 0.00390625 L -6.785156 135.113281 L 120.585938 374.882812 L 374.925781 239.769531 Z M 247.554688 0.00390625 " clip-rule="nonzero"/></clipPath><clipPath id="99cdd7e823"><path d="M 153 118 L 211 118 L 211 169 L 153 169 Z M 153 118 " clip-rule="nonzero"/></clipPath><clipPath id="0844f51089"><path d="M -6.773438 135.109375 L 247.566406 -0.00390625 L 374.9375 239.765625 L 120.597656 374.875 Z M -6.773438 135.109375 " clip-rule="nonzero"/></clipPath><clipPath id="24db110917"><path d="M 247.554688 0.00390625 L -6.785156 135.113281 L 120.585938 374.882812 L 374.925781 239.769531 Z M 247.554688 0.00390625 " clip-rule="nonzero"/></clipPath><clipPath id="cbff362bab"><path d="M 164 129 L 201 129 L 201 161 L 164 161 Z M 164 129 " clip-rule="nonzero"/></clipPath><clipPath id="130ba8726a"><path d="M -6.773438 135.109375 L 247.566406 -0.00390625 L 374.9375 239.765625 L 120.597656 374.875 Z M -6.773438 135.109375 " clip-rule="nonzero"/></clipPath><clipPath id="2e80d57148"><path d="M 247.554688 0.00390625 L -6.785156 135.113281 L 120.585938 374.882812 L 374.925781 239.769531 Z M 247.554688 0.00390625 " clip-rule="nonzero"/></clipPath><clipPath id="00cc10c3bf"><path d="M 153 181 L 206 181 L 206 187 L 153 187 Z M 153 181 " clip-rule="nonzero"/></clipPath><clipPath id="3e8d928a79"><path d="M -6.773438 135.109375 L 247.566406 -0.00390625 L 374.9375 239.765625 L 120.597656 374.875 Z M -6.773438 135.109375 " clip-rule="nonzero"/></clipPath><clipPath id="3a9711741d"><path d="M 247.554688 0.00390625 L -6.785156 135.113281 L 120.585938 374.882812 L 374.925781 239.769531 Z M 247.554688 0.00390625 " clip-rule="nonzero"/></clipPath><clipPath id="ca537031a8"><path d="M 162 176 L 215 176 L 215 185 L 162 185 Z M 162 176 " clip-rule="nonzero"/></clipPath><clipPath id="f5c3cedcf5"><path d="M -6.773438 135.109375 L 247.566406 -0.00390625 L 374.9375 239.765625 L 120.597656 374.875 Z M -6.773438 135.109375 " clip-rule="nonzero"/></clipPath><clipPath id="ea3e7646d7"><path d="M 247.554688 0.00390625 L -6.785156 135.113281 L 120.585938 374.882812 L 374.925781 239.769531 Z M 247.554688 0.00390625 " clip-rule="nonzero"/></clipPath><clipPath id="105bf2c3ff"><path d="M 172 170 L 226 170 L 226 180 L 172 180 Z M 172 170 " clip-rule="nonzero"/></clipPath><clipPath id="5f27431290"><path d="M -6.773438 135.109375 L 247.566406 -0.00390625 L 374.9375 239.765625 L 120.597656 374.875 Z M -6.773438 135.109375 " clip-rule="nonzero"/></clipPath><clipPath id="48c6c3993a"><path d="M 247.554688 0.00390625 L -6.785156 135.113281 L 120.585938 374.882812 L 374.925781 239.769531 Z M 247.554688 0.00390625 " clip-rule="nonzero"/></clipPath><clipPath id="a6dd78ca7f"><path d="M 184 164 L 235 164 L 235 175 L 184 175 Z M 184 164 " clip-rule="nonzero"/></clipPath><clipPath id="c7d8f39268"><path d="M -6.773438 135.109375 L 247.566406 -0.00390625 L 374.9375 239.765625 L 120.597656 374.875 Z M -6.773438 135.109375 " clip-rule="nonzero"/></clipPath><clipPath id="2df7c07ba8"><path d="M 247.554688 0.00390625 L -6.785156 135.113281 L 120.585938 374.882812 L 374.925781 239.769531 Z M 247.554688 0.00390625 " clip-rule="nonzero"/></clipPath><clipPath id="3b38a29b73"><path d="M 199 159 L 243 159 L 243 171 L 199 171 Z M 199 159 " clip-rule="nonzero"/></clipPath><clipPath id="50152e5920"><path d="M -6.773438 135.109375 L 247.566406 -0.00390625 L 374.9375 239.765625 L 120.597656 374.875 Z M -6.773438 135.109375 " clip-rule="nonzero"/></clipPath><clipPath id="aaa20a0da7"><path d="M 247.554688 0.00390625 L -6.785156 135.113281 L 120.585938 374.882812 L 374.925781 239.769531 Z M 247.554688 0.00390625 " clip-rule="nonzero"/></clipPath><clipPath id="937bb8c49a"><path d="M 208 153 L 250 153 L 250 167 L 208 167 Z M 208 153 " clip-rule="nonzero"/></clipPath><clipPath id="2c72a4dcf2"><path d="M -6.773438 135.109375 L 247.566406 -0.00390625 L 374.9375 239.765625 L 120.597656 374.875 Z M -6.773438 135.109375 " clip-rule="nonzero"/></clipPath><clipPath id="f7e28625fd"><path d="M 247.554688 0.00390625 L -6.785156 135.113281 L 120.585938 374.882812 L 374.925781 239.769531 Z M 247.554688 0.00390625 " clip-rule="nonzero"/></clipPath><clipPath id="6dbb5cdf7d"><path d="M 216 149 L 260 149 L 260 164 L 216 164 Z M 216 149 " clip-rule="nonzero"/></clipPath><clipPath id="e6d35b99aa"><path d="M -6.773438 135.109375 L 247.566406 -0.00390625 L 374.9375 239.765625 L 120.597656 374.875 Z M -6.773438 135.109375 " clip-rule="nonzero"/></clipPath><clipPath id="c752fe8a44"><path d="M 247.554688 0.00390625 L -6.785156 135.113281 L 120.585938 374.882812 L 374.925781 239.769531 Z M 247.554688 0.00390625 " clip-rule="nonzero"/></clipPath><clipPath id="ea3d831852"><path d="M 229 145 L 263 145 L 263 160 L 229 160 Z M 229 145 " clip-rule="nonzero"/></clipPath><clipPath id="5fd64ef241"><path d="M -6.773438 135.109375 L 247.566406 -0.00390625 L 374.9375 239.765625 L 120.597656 374.875 Z M -6.773438 135.109375 " clip-rule="nonzero"/></clipPath><clipPath id="f7f83ce0ec"><path d="M 247.554688 0.00390625 L -6.785156 135.113281 L 120.585938 374.882812 L 374.925781 239.769531 Z M 247.554688 0.00390625 " clip-rule="nonzero"/></clipPath><clipPath id="412b7565b9"><path d="M 234 142 L 270 142 L 270 154 L 234 154 Z M 234 142 " clip-rule="nonzero"/></clipPath><clipPath id="0fd7f101b3"><path d="M -6.773438 135.109375 L 247.566406 -0.00390625 L 374.9375 239.765625 L 120.597656 374.875 Z M -6.773438 135.109375 " clip-rule="nonzero"/></clipPath><clipPath id="3f23af3622"><path d="M 247.554688 0.00390625 L -6.785156 135.113281 L 120.585938 374.882812 L 374.925781 239.769531 Z M 247.554688 0.00390625 " clip-rule="nonzero"/></clipPath><clipPath id="b26d39a5c9"><path d="M 243 140 L 275 140 L 275 150 L 243 150 Z M 243 140 " clip-rule="nonzero"/></clipPath><clipPath id="b1994b6969"><path d="M -6.773438 135.109375 L 247.566406 -0.00390625 L 374.9375 239.765625 L 120.597656 374.875 Z M -6.773438 135.109375 " clip-rule="nonzero"/></clipPath><clipPath id="c9dfee4697"><path d="M 247.554688 0.00390625 L -6.785156 135.113281 L 120.585938 374.882812 L 374.925781 239.769531 Z M 247.554688 0.00390625 " clip-rule="nonzero"/></clipPath><clipPath id="e79ec43252"><path d="M 239 135 L 279 135 L 279 144 L 239 144 Z M 239 135 " clip-rule="nonzero"/></clipPath><clipPath id="5f1a64b6f6"><path d="M -6.773438 135.109375 L 247.566406 -0.00390625 L 374.9375 239.765625 L 120.597656 374.875 Z M -6.773438 135.109375 " clip-rule="nonzero"/></clipPath><clipPath id="5a8d79a83e"><path d="M 247.554688 0.00390625 L -6.785156 135.113281 L 120.585938 374.882812 L 374.925781 239.769531 Z M 247.554688 0.00390625 " clip-rule="nonzero"/></clipPath><clipPath id="92c11ab2e5"><path d="M 253 130 L 284 130 L 284 138 L 253 138 Z M 253 130 " clip-rule="nonzero"/></clipPath><clipPath id="80be702124"><path d="M -6.773438 135.109375 L 247.566406 -0.00390625 L 374.9375 239.765625 L 120.597656 374.875 Z M -6.773438 135.109375 " clip-rule="nonzero"/></clipPath><clipPath id="dae8188678"><path d="M 247.554688 0.00390625 L -6.785156 135.113281 L 120.585938 374.882812 L 374.925781 239.769531 Z M 247.554688 0.00390625 " clip-rule="nonzero"/></clipPath><clipPath id="e4535d70c9"><path d="M 265 127 L 287 127 L 287 134 L 265 134 Z M 265 127 " clip-rule="nonzero"/></clipPath><clipPath id="474968e4d4"><path d="M -6.773438 135.109375 L 247.566406 -0.00390625 L 374.9375 239.765625 L 120.597656 374.875 Z M -6.773438 135.109375 " clip-rule="nonzero"/></clipPath><clipPath id="fbf4509db9"><path d="M 247.554688 0.00390625 L -6.785156 135.113281 L 120.585938 374.882812 L 374.925781 239.769531 Z M 247.554688 0.00390625 " clip-rule="nonzero"/></clipPath><clipPath id="6f5ba7b1d0"><path d="M 276 121 L 295 121 L 295 130 L 276 130 Z M 276 121 " clip-rule="nonzero"/></clipPath><clipPath id="b1b547225f"><path d="M -6.773438 135.109375 L 247.566406 -0.00390625 L 374.9375 239.765625 L 120.597656 374.875 Z M -6.773438 135.109375 " clip-rule="nonzero"/></clipPath><clipPath id="14642242ca"><path d="M 247.554688 0.00390625 L -6.785156 135.113281 L 120.585938 374.882812 L 374.925781 239.769531 Z M 247.554688 0.00390625 " clip-rule="nonzero"/></clipPath><clipPath id="5897576011"><path d="M 281 117 L 299 117 L 299 124 L 281 124 Z M 281 117 " clip-rule="nonzero"/></clipPath><clipPath id="6ba05ee7c5"><path d="M -6.773438 135.109375 L 247.566406 -0.00390625 L 374.9375 239.765625 L 120.597656 374.875 Z M -6.773438 135.109375 " clip-rule="nonzero"/></clipPath><clipPath id="f5d2c0c6bc"><path d="M 247.554688 0.00390625 L -6.785156 135.113281 L 120.585938 374.882812 L 374.925781 239.769531 Z M 247.554688 0.00390625 " clip-rule="nonzero"/></clipPath><clipPath id="5c2f58f2d4"><path d="M 291 113 L 302 113 L 302 121 L 291 121 Z M 291 113 " clip-rule="nonzero"/></clipPath><clipPath id="a933395a52"><path d="M -6.773438 135.109375 L 247.566406 -0.00390625 L 374.9375 239.765625 L 120.597656 374.875 Z M -6.773438 135.109375 " clip-rule="nonzero"/></clipPath><clipPath id="194384338e"><path d="M 247.554688 0.00390625 L -6.785156 135.113281 L 120.585938 374.882812 L 374.925781 239.769531 Z M 247.554688 0.00390625 " clip-rule="nonzero"/></clipPath><clipPath id="4b311c4f08"><path d="M 296 110 L 303 110 L 303 114 L 296 114 Z M 296 110 " clip-rule="nonzero"/></clipPath><clipPath id="0dae0d3967"><path d="M -6.773438 135.109375 L 247.566406 -0.00390625 L 374.9375 239.765625 L 120.597656 374.875 Z M -6.773438 135.109375 " clip-rule="nonzero"/></clipPath><clipPath id="b28b5249fc"><path d="M 247.554688 0.00390625 L -6.785156 135.113281 L 120.585938 374.882812 L 374.925781 239.769531 Z M 247.554688 0.00390625 " clip-rule="nonzero"/></clipPath><clipPath id="6cb6bafaa0"><path d="M 130 187 L 141 187 L 141 195 L 130 195 Z M 130 187 " clip-rule="nonzero"/></clipPath><clipPath id="3ac47bd9ff"><path d="M -6.773438 135.109375 L 247.566406 -0.00390625 L 374.9375 239.765625 L 120.597656 374.875 Z M -6.773438 135.109375 " clip-rule="nonzero"/></clipPath><clipPath id="d442292ae3"><path d="M 247.554688 0.00390625 L -6.785156 135.113281 L 120.585938 374.882812 L 374.925781 239.769531 Z M 247.554688 0.00390625 " clip-rule="nonzero"/></clipPath><clipPath id="d8316911e4"><path d="M 116 186 L 129 186 L 129 198 L 116 198 Z M 116 186 " clip-rule="nonzero"/></clipPath><clipPath id="d377b1a5d8"><path d="M -6.773438 135.109375 L 247.566406 -0.00390625 L 374.9375 239.765625 L 120.597656 374.875 Z M -6.773438 135.109375 " clip-rule="nonzero"/></clipPath><clipPath id="639acbc9b1"><path d="M 247.554688 0.00390625 L -6.785156 135.113281 L 120.585938 374.882812 L 374.925781 239.769531 Z M 247.554688 0.00390625 " clip-rule="nonzero"/></clipPath><clipPath id="8bf6b855d9"><path d="M 162 198 L 167 198 L 167 206 L 162 206 Z M 162 198 " clip-rule="nonzero"/></clipPath><clipPath id="9929bbbc66"><path d="M -6.773438 135.109375 L 247.566406 -0.00390625 L 374.9375 239.765625 L 120.597656 374.875 Z M -6.773438 135.109375 " clip-rule="nonzero"/></clipPath><clipPath id="8e8756cf5a"><path d="M 247.554688 0.00390625 L -6.785156 135.113281 L 120.585938 374.882812 L 374.925781 239.769531 Z M 247.554688 0.00390625 " clip-rule="nonzero"/></clipPath><clipPath id="fc58bf8436"><path d="M 167 199 L 172 199 L 172 207 L 167 207 Z M 167 199 " clip-rule="nonzero"/></clipPath><clipPath id="62abff0ecc"><path d="M -6.773438 135.109375 L 247.566406 -0.00390625 L 374.9375 239.765625 L 120.597656 374.875 Z M -6.773438 135.109375 " clip-rule="nonzero"/></clipPath><clipPath id="f9c1fb5044"><path d="M 247.554688 0.00390625 L -6.785156 135.113281 L 120.585938 374.882812 L 374.925781 239.769531 Z M 247.554688 0.00390625 " clip-rule="nonzero"/></clipPath><clipPath id="e8cb140ded"><path d="M 172 200 L 176 200 L 176 209 L 172 209 Z M 172 200 " clip-rule="nonzero"/></clipPath><clipPath id="d8dc5b3468"><path d="M -6.773438 135.109375 L 247.566406 -0.00390625 L 374.9375 239.765625 L 120.597656 374.875 Z M -6.773438 135.109375 " clip-rule="nonzero"/></clipPath><clipPath id="8370731c53"><path d="M 247.554688 0.00390625 L -6.785156 135.113281 L 120.585938 374.882812 L 374.925781 239.769531 Z M 247.554688 0.00390625 " clip-rule="nonzero"/></clipPath><clipPath id="78333cb25b"><path d="M 178 200 L 182 200 L 182 209 L 178 209 Z M 178 200 " clip-rule="nonzero"/></clipPath><clipPath id="a563ddfa23"><path d="M -6.773438 135.109375 L 247.566406 -0.00390625 L 374.9375 239.765625 L 120.597656 374.875 Z M -6.773438 135.109375 " clip-rule="nonzero"/></clipPath><clipPath id="2ea1f3a28d"><path d="M 247.554688 0.00390625 L -6.785156 135.113281 L 120.585938 374.882812 L 374.925781 239.769531 Z M 247.554688 0.00390625 " clip-rule="nonzero"/></clipPath><clipPath id="76383dca72"><path d="M 185 201 L 189 201 L 189 210 L 185 210 Z M 185 201 " clip-rule="nonzero"/></clipPath><clipPath id="a26ec374a2"><path d="M -6.773438 135.109375 L 247.566406 -0.00390625 L 374.9375 239.765625 L 120.597656 374.875 Z M -6.773438 135.109375 " clip-rule="nonzero"/></clipPath><clipPath id="ec03c44ef4"><path d="M 247.554688 0.00390625 L -6.785156 135.113281 L 120.585938 374.882812 L 374.925781 239.769531 Z M 247.554688 0.00390625 " clip-rule="nonzero"/></clipPath><clipPath id="3f8843a047"><path d="M 192 202 L 196 202 L 196 211 L 192 211 Z M 192 202 " clip-rule="nonzero"/></clipPath><clipPath id="76dd973569"><path d="M -6.773438 135.109375 L 247.566406 -0.00390625 L 374.9375 239.765625 L 120.597656 374.875 Z M -6.773438 135.109375 " clip-rule="nonzero"/></clipPath><clipPath id="d03374a42d"><path d="M 247.554688 0.00390625 L -6.785156 135.113281 L 120.585938 374.882812 L 374.925781 239.769531 Z M 247.554688 0.00390625 " clip-rule="nonzero"/></clipPath><clipPath id="7f74b8010a"><path d="M 198 203 L 202 203 L 202 212 L 198 212 Z M 198 203 " clip-rule="nonzero"/></clipPath><clipPath id="dc00ae2fb9"><path d="M -6.773438 135.109375 L 247.566406 -0.00390625 L 374.9375 239.765625 L 120.597656 374.875 Z M -6.773438 135.109375 " clip-rule="nonzero"/></clipPath><clipPath id="fd609b1a0c"><path d="M 247.554688 0.00390625 L -6.785156 135.113281 L 120.585938 374.882812 L 374.925781 239.769531 Z M 247.554688 0.00390625 " clip-rule="nonzero"/></clipPath><clipPath id="44498d8812"><path d="M 203 205 L 207 205 L 207 213 L 203 213 Z M 203 205 " clip-rule="nonzero"/></clipPath><clipPath id="0cd4f26f82"><path d="M -6.773438 135.109375 L 247.566406 -0.00390625 L 374.9375 239.765625 L 120.597656 374.875 Z M -6.773438 135.109375 " clip-rule="nonzero"/></clipPath><clipPath id="8501027528"><path d="M 247.554688 0.00390625 L -6.785156 135.113281 L 120.585938 374.882812 L 374.925781 239.769531 Z M 247.554688 0.00390625 " clip-rule="nonzero"/></clipPath><clipPath id="4a46eeb774"><path d="M 208 204 L 212 204 L 212 213 L 208 213 Z M 208 204 " clip-rule="nonzero"/></clipPath><clipPath id="c8a16a8935"><path d="M -6.773438 135.109375 L 247.566406 -0.00390625 L 374.9375 239.765625 L 120.597656 374.875 Z M -6.773438 135.109375 " clip-rule="nonzero"/></clipPath><clipPath id="f41283c789"><path d="M 247.554688 0.00390625 L -6.785156 135.113281 L 120.585938 374.882812 L 374.925781 239.769531 Z M 247.554688 0.00390625 " clip-rule="nonzero"/></clipPath><clipPath id="8d6a409ac2"><path d="M 213 205 L 217 205 L 217 214 L 213 214 Z M 213 205 " clip-rule="nonzero"/></clipPath><clipPath id="1c1a58f6c5"><path d="M -6.773438 135.109375 L 247.566406 -0.00390625 L 374.9375 239.765625 L 120.597656 374.875 Z M -6.773438 135.109375 " clip-rule="nonzero"/></clipPath><clipPath id="1fa56abcff"><path d="M 247.554688 0.00390625 L -6.785156 135.113281 L 120.585938 374.882812 L 374.925781 239.769531 Z M 247.554688 0.00390625 " clip-rule="nonzero"/></clipPath><clipPath id="c8bb5ff00b"><path d="M 220 206 L 224 206 L 224 215 L 220 215 Z M 220 206 " clip-rule="nonzero"/></clipPath><clipPath id="89f887fea1"><path d="M -6.773438 135.109375 L 247.566406 -0.00390625 L 374.9375 239.765625 L 120.597656 374.875 Z M -6.773438 135.109375 " clip-rule="nonzero"/></clipPath><clipPath id="0c898d5185"><path d="M 247.554688 0.00390625 L -6.785156 135.113281 L 120.585938 374.882812 L 374.925781 239.769531 Z M 247.554688 0.00390625 " clip-rule="nonzero"/></clipPath><clipPath id="fd8909b37f"><path d="M 224 207 L 230 207 L 230 215 L 224 215 Z M 224 207 " clip-rule="nonzero"/></clipPath><clipPath id="929166608e"><path d="M -6.773438 135.109375 L 247.566406 -0.00390625 L 374.9375 239.765625 L 120.597656 374.875 Z M -6.773438 135.109375 " clip-rule="nonzero"/></clipPath><clipPath id="cdeeaaad24"><path d="M 247.554688 0.00390625 L -6.785156 135.113281 L 120.585938 374.882812 L 374.925781 239.769531 Z M 247.554688 0.00390625 " clip-rule="nonzero"/></clipPath><clipPath id="1205595577"><path d="M 231 207 L 234 207 L 234 215 L 231 215 Z M 231 207 " clip-rule="nonzero"/></clipPath><clipPath id="1d0ca267c1"><path d="M -6.773438 135.109375 L 247.566406 -0.00390625 L 374.9375 239.765625 L 120.597656 374.875 Z M -6.773438 135.109375 " clip-rule="nonzero"/></clipPath><clipPath id="58a3335996"><path d="M 247.554688 0.00390625 L -6.785156 135.113281 L 120.585938 374.882812 L 374.925781 239.769531 Z M 247.554688 0.00390625 " clip-rule="nonzero"/></clipPath><clipPath id="2d864361bf"><path d="M 236 208 L 240 208 L 240 216 L 236 216 Z M 236 208 " clip-rule="nonzero"/></clipPath><clipPath id="3a342048b6"><path d="M -6.773438 135.109375 L 247.566406 -0.00390625 L 374.9375 239.765625 L 120.597656 374.875 Z M -6.773438 135.109375 " clip-rule="nonzero"/></clipPath><clipPath id="e54ba9d048"><path d="M 247.554688 0.00390625 L -6.785156 135.113281 L 120.585938 374.882812 L 374.925781 239.769531 Z M 247.554688 0.00390625 " clip-rule="nonzero"/></clipPath><clipPath id="c5823b4bc1"><path d="M 242 209 L 245 209 L 245 216 L 242 216 Z M 242 209 " clip-rule="nonzero"/></clipPath><clipPath id="5d081cc34a"><path d="M -6.773438 135.109375 L 247.566406 -0.00390625 L 374.9375 239.765625 L 120.597656 374.875 Z M -6.773438 135.109375 " clip-rule="nonzero"/></clipPath><clipPath id="81a85c8bea"><path d="M 247.554688 0.00390625 L -6.785156 135.113281 L 120.585938 374.882812 L 374.925781 239.769531 Z M 247.554688 0.00390625 " clip-rule="nonzero"/></clipPath><clipPath id="f43fee0865"><path d="M 246 209 L 251 209 L 251 217 L 246 217 Z M 246 209 " clip-rule="nonzero"/></clipPath><clipPath id="a5d2ada4c9"><path d="M -6.773438 135.109375 L 247.566406 -0.00390625 L 374.9375 239.765625 L 120.597656 374.875 Z M -6.773438 135.109375 " clip-rule="nonzero"/></clipPath><clipPath id="db413858f2"><path d="M 247.554688 0.00390625 L -6.785156 135.113281 L 120.585938 374.882812 L 374.925781 239.769531 Z M 247.554688 0.00390625 " clip-rule="nonzero"/></clipPath><clipPath id="38ca075e42"><path d="M 252 210 L 256 210 L 256 217 L 252 217 Z M 252 210 " clip-rule="nonzero"/></clipPath><clipPath id="f987d6aae1"><path d="M -6.773438 135.109375 L 247.566406 -0.00390625 L 374.9375 239.765625 L 120.597656 374.875 Z M -6.773438 135.109375 " clip-rule="nonzero"/></clipPath><clipPath id="a59c83baad"><path d="M 247.554688 0.00390625 L -6.785156 135.113281 L 120.585938 374.882812 L 374.925781 239.769531 Z M 247.554688 0.00390625 " clip-rule="nonzero"/></clipPath><clipPath id="b948440c43"><path d="M 257 211 L 260 211 L 260 217 L 257 217 Z M 257 211 " clip-rule="nonzero"/></clipPath><clipPath id="839bd4a14c"><path d="M -6.773438 135.109375 L 247.566406 -0.00390625 L 374.9375 239.765625 L 120.597656 374.875 Z M -6.773438 135.109375 " clip-rule="nonzero"/></clipPath><clipPath id="7ede216ef6"><path d="M 247.554688 0.00390625 L -6.785156 135.113281 L 120.585938 374.882812 L 374.925781 239.769531 Z M 247.554688 0.00390625 " clip-rule="nonzero"/></clipPath><clipPath id="957ef44432"><path d="M 261 211 L 265 211 L 265 218 L 261 218 Z M 261 211 " clip-rule="nonzero"/></clipPath><clipPath id="58fa7a5377"><path d="M -6.773438 135.109375 L 247.566406 -0.00390625 L 374.9375 239.765625 L 120.597656 374.875 Z M -6.773438 135.109375 " clip-rule="nonzero"/></clipPath><clipPath id="6efe6114a4"><path d="M 247.554688 0.00390625 L -6.785156 135.113281 L 120.585938 374.882812 L 374.925781 239.769531 Z M 247.554688 0.00390625 " clip-rule="nonzero"/></clipPath><clipPath id="f2d090b6cd"><path d="M 265 210 L 270 210 L 270 218 L 265 218 Z M 265 210 " clip-rule="nonzero"/></clipPath><clipPath id="2f024e5aff"><path d="M -6.773438 135.109375 L 247.566406 -0.00390625 L 374.9375 239.765625 L 120.597656 374.875 Z M -6.773438 135.109375 " clip-rule="nonzero"/></clipPath><clipPath id="5f256e7bc2"><path d="M 247.554688 0.00390625 L -6.785156 135.113281 L 120.585938 374.882812 L 374.925781 239.769531 Z M 247.554688 0.00390625 " clip-rule="nonzero"/></clipPath><clipPath id="8b5e3d9a7a"><path d="M 272 212 L 275 212 L 275 219 L 272 219 Z M 272 212 " clip-rule="nonzero"/></clipPath><clipPath id="a0a39aedff"><path d="M -6.773438 135.109375 L 247.566406 -0.00390625 L 374.9375 239.765625 L 120.597656 374.875 Z M -6.773438 135.109375 " clip-rule="nonzero"/></clipPath><clipPath id="29d359e80f"><path d="M 247.554688 0.00390625 L -6.785156 135.113281 L 120.585938 374.882812 L 374.925781 239.769531 Z M 247.554688 0.00390625 " clip-rule="nonzero"/></clipPath><clipPath id="8e8d0014f7"><path d="M 277 211 L 281 211 L 281 219 L 277 219 Z M 277 211 " clip-rule="nonzero"/></clipPath><clipPath id="187f418d60"><path d="M -6.773438 135.109375 L 247.566406 -0.00390625 L 374.9375 239.765625 L 120.597656 374.875 Z M -6.773438 135.109375 " clip-rule="nonzero"/></clipPath><clipPath id="f685c2833d"><path d="M 247.554688 0.00390625 L -6.785156 135.113281 L 120.585938 374.882812 L 374.925781 239.769531 Z M 247.554688 0.00390625 " clip-rule="nonzero"/></clipPath><clipPath id="eb8a47ca7f"><path d="M 282 212 L 286 212 L 286 219 L 282 219 Z M 282 212 " clip-rule="nonzero"/></clipPath><clipPath id="c20430954f"><path d="M -6.773438 135.109375 L 247.566406 -0.00390625 L 374.9375 239.765625 L 120.597656 374.875 Z M -6.773438 135.109375 " clip-rule="nonzero"/></clipPath><clipPath id="7ce2596e9f"><path d="M 247.554688 0.00390625 L -6.785156 135.113281 L 120.585938 374.882812 L 374.925781 239.769531 Z M 247.554688 0.00390625 " clip-rule="nonzero"/></clipPath><clipPath id="bca32f5ab3"><path d="M 288 211 L 293 211 L 293 220 L 288 220 Z M 288 211 " clip-rule="nonzero"/></clipPath><clipPath id="0aaef69df9"><path d="M -6.773438 135.109375 L 247.566406 -0.00390625 L 374.9375 239.765625 L 120.597656 374.875 Z M -6.773438 135.109375 " clip-rule="nonzero"/></clipPath><clipPath id="103c526c85"><path d="M 247.554688 0.00390625 L -6.785156 135.113281 L 120.585938 374.882812 L 374.925781 239.769531 Z M 247.554688 0.00390625 " clip-rule="nonzero"/></clipPath><clipPath id="0a0d5cb0e6"><path d="M 294 211 L 299 211 L 299 220 L 294 220 Z M 294 211 " clip-rule="nonzero"/></clipPath><clipPath id="a68301454d"><path d="M -6.773438 135.109375 L 247.566406 -0.00390625 L 374.9375 239.765625 L 120.597656 374.875 Z M -6.773438 135.109375 " clip-rule="nonzero"/></clipPath><clipPath id="9fd1d9fbc2"><path d="M 247.554688 0.00390625 L -6.785156 135.113281 L 120.585938 374.882812 L 374.925781 239.769531 Z M 247.554688 0.00390625 " clip-rule="nonzero"/></clipPath><clipPath id="1faa12984a"><path d="M 299 212 L 303 212 L 303 220 L 299 220 Z M 299 212 " clip-rule="nonzero"/></clipPath><clipPath id="776159f482"><path d="M -6.773438 135.109375 L 247.566406 -0.00390625 L 374.9375 239.765625 L 120.597656 374.875 Z M -6.773438 135.109375 " clip-rule="nonzero"/></clipPath><clipPath id="5ee9e712e3"><path d="M 247.554688 0.00390625 L -6.785156 135.113281 L 120.585938 374.882812 L 374.925781 239.769531 Z M 247.554688 0.00390625 " clip-rule="nonzero"/></clipPath><clipPath id="8946299506"><path d="M 304 213 L 309 213 L 309 222 L 304 222 Z M 304 213 " clip-rule="nonzero"/></clipPath><clipPath id="9ef1682b07"><path d="M -6.773438 135.109375 L 247.566406 -0.00390625 L 374.9375 239.765625 L 120.597656 374.875 Z M -6.773438 135.109375 " clip-rule="nonzero"/></clipPath><clipPath id="abd1e6c71e"><path d="M 247.554688 0.00390625 L -6.785156 135.113281 L 120.585938 374.882812 L 374.925781 239.769531 Z M 247.554688 0.00390625 " clip-rule="nonzero"/></clipPath><clipPath id="ccc358cb0b"><path d="M 310 214 L 315 214 L 315 223 L 310 223 Z M 310 214 " clip-rule="nonzero"/></clipPath><clipPath id="21dedf7e58"><path d="M -6.773438 135.109375 L 247.566406 -0.00390625 L 374.9375 239.765625 L 120.597656 374.875 Z M -6.773438 135.109375 " clip-rule="nonzero"/></clipPath><clipPath id="46545317dc"><path d="M 247.554688 0.00390625 L -6.785156 135.113281 L 120.585938 374.882812 L 374.925781 239.769531 Z M 247.554688 0.00390625 " clip-rule="nonzero"/></clipPath><clipPath id="a403fbec76"><path d="M 314 215 L 321 215 L 321 226 L 314 226 Z M 314 215 " clip-rule="nonzero"/></clipPath><clipPath id="424c911043"><path d="M -6.773438 135.109375 L 247.566406 -0.00390625 L 374.9375 239.765625 L 120.597656 374.875 Z M -6.773438 135.109375 " clip-rule="nonzero"/></clipPath><clipPath id="7a6bf3a264"><path d="M 247.554688 0.00390625 L -6.785156 135.113281 L 120.585938 374.882812 L 374.925781 239.769531 Z M 247.554688 0.00390625 " clip-rule="nonzero"/></clipPath><clipPath id="93c94a5403"><path d="M 319 217 L 325 217 L 325 228 L 319 228 Z M 319 217 " clip-rule="nonzero"/></clipPath><clipPath id="abb539855f"><path d="M -6.773438 135.109375 L 247.566406 -0.00390625 L 374.9375 239.765625 L 120.597656 374.875 Z M -6.773438 135.109375 " clip-rule="nonzero"/></clipPath><clipPath id="3f95ac85d1"><path d="M 247.554688 0.00390625 L -6.785156 135.113281 L 120.585938 374.882812 L 374.925781 239.769531 Z M 247.554688 0.00390625 " clip-rule="nonzero"/></clipPath><clipPath id="ec19093ff8"><path d="M 322 220 L 329 220 L 329 229 L 322 229 Z M 322 220 " clip-rule="nonzero"/></clipPath><clipPath id="a58aef5e8f"><path d="M -6.773438 135.109375 L 247.566406 -0.00390625 L 374.9375 239.765625 L 120.597656 374.875 Z M -6.773438 135.109375 " clip-rule="nonzero"/></clipPath><clipPath id="2e9951c788"><path d="M 247.554688 0.00390625 L -6.785156 135.113281 L 120.585938 374.882812 L 374.925781 239.769531 Z M 247.554688 0.00390625 " clip-rule="nonzero"/></clipPath><clipPath id="437595c083"><path d="M 325 223 L 333 223 L 333 233 L 325 233 Z M 325 223 " clip-rule="nonzero"/></clipPath><clipPath id="82138ba05e"><path d="M -6.773438 135.109375 L 247.566406 -0.00390625 L 374.9375 239.765625 L 120.597656 374.875 Z M -6.773438 135.109375 " clip-rule="nonzero"/></clipPath><clipPath id="080b73780e"><path d="M 247.554688 0.00390625 L -6.785156 135.113281 L 120.585938 374.882812 L 374.925781 239.769531 Z M 247.554688 0.00390625 " clip-rule="nonzero"/></clipPath><clipPath id="b7ad23e020"><path d="M 328 226 L 336 226 L 336 237 L 328 237 Z M 328 226 " clip-rule="nonzero"/></clipPath><clipPath id="11d5545fd6"><path d="M -6.773438 135.109375 L 247.566406 -0.00390625 L 374.9375 239.765625 L 120.597656 374.875 Z M -6.773438 135.109375 " clip-rule="nonzero"/></clipPath><clipPath id="c3860d9744"><path d="M 247.554688 0.00390625 L -6.785156 135.113281 L 120.585938 374.882812 L 374.925781 239.769531 Z M 247.554688 0.00390625 " clip-rule="nonzero"/></clipPath><clipPath id="9d3a704846"><path d="M 331 231 L 341 231 L 341 241 L 331 241 Z M 331 231 " clip-rule="nonzero"/></clipPath><clipPath id="ac8a949df6"><path d="M -6.773438 135.109375 L 247.566406 -0.00390625 L 374.9375 239.765625 L 120.597656 374.875 Z M -6.773438 135.109375 " clip-rule="nonzero"/></clipPath><clipPath id="4893eef7ff"><path d="M 247.554688 0.00390625 L -6.785156 135.113281 L 120.585938 374.882812 L 374.925781 239.769531 Z M 247.554688 0.00390625 " clip-rule="nonzero"/></clipPath><clipPath id="af5b251f33"><path d="M 335 237 L 344 237 L 344 245 L 335 245 Z M 335 237 " clip-rule="nonzero"/></clipPath><clipPath id="37fae71f27"><path d="M -6.773438 135.109375 L 247.566406 -0.00390625 L 374.9375 239.765625 L 120.597656 374.875 Z M -6.773438 135.109375 " clip-rule="nonzero"/></clipPath><clipPath id="25b912d477"><path d="M 247.554688 0.00390625 L -6.785156 135.113281 L 120.585938 374.882812 L 374.925781 239.769531 Z M 247.554688 0.00390625 " clip-rule="nonzero"/></clipPath><clipPath id="26f0ff59ac"><path d="M 338 242 L 346 242 L 346 249 L 338 249 Z M 338 242 " clip-rule="nonzero"/></clipPath><clipPath id="eac0ee8757"><path d="M -6.773438 135.109375 L 247.566406 -0.00390625 L 374.9375 239.765625 L 120.597656 374.875 Z M -6.773438 135.109375 " clip-rule="nonzero"/></clipPath><clipPath id="a5b50ce9fc"><path d="M 247.554688 0.00390625 L -6.785156 135.113281 L 120.585938 374.882812 L 374.925781 239.769531 Z M 247.554688 0.00390625 " clip-rule="nonzero"/></clipPath><clipPath id="5b5d57d2f8"><path d="M 340 247 L 348 247 L 348 252 L 340 252 Z M 340 247 " clip-rule="nonzero"/></clipPath><clipPath id="7aa56db53e"><path d="M -6.773438 135.109375 L 247.566406 -0.00390625 L 374.9375 239.765625 L 120.597656 374.875 Z M -6.773438 135.109375 " clip-rule="nonzero"/></clipPath><clipPath id="7d7a6764d7"><path d="M 247.554688 0.00390625 L -6.785156 135.113281 L 120.585938 374.882812 L 374.925781 239.769531 Z M 247.554688 0.00390625 " clip-rule="nonzero"/></clipPath><clipPath id="f3f623b9c1"><path d="M 93 200 L 100 200 L 100 207 L 93 207 Z M 93 200 " clip-rule="nonzero"/></clipPath><clipPath id="e1f85f2725"><path d="M -6.773438 135.109375 L 247.566406 -0.00390625 L 374.9375 239.765625 L 120.597656 374.875 Z M -6.773438 135.109375 " clip-rule="nonzero"/></clipPath><clipPath id="b0fa234e10"><path d="M 247.554688 0.00390625 L -6.785156 135.113281 L 120.585938 374.882812 L 374.925781 239.769531 Z M 247.554688 0.00390625 " clip-rule="nonzero"/></clipPath><clipPath id="c31c10ac59"><path d="M 88 210 L 98 210 L 98 215 L 88 215 Z M 88 210 " clip-rule="nonzero"/></clipPath><clipPath id="e9b258296a"><path d="M -6.773438 135.109375 L 247.566406 -0.00390625 L 374.9375 239.765625 L 120.597656 374.875 Z M -6.773438 135.109375 " clip-rule="nonzero"/></clipPath><clipPath id="c030e1aa6b"><path d="M 247.554688 0.00390625 L -6.785156 135.113281 L 120.585938 374.882812 L 374.925781 239.769531 Z M 247.554688 0.00390625 " clip-rule="nonzero"/></clipPath></defs><g clip-path="url(#74ca52205b)"><g clip-path="url(#a17cd2e561)"><g clip-path="url(#e2319c5ad1)"><path fill="#864301" d="M 350.03125 253.140625 L 340.292969 231.328125 L 326.679688 218.226562 C 320.578125 213.703125 292.757812 210.738281 291.585938 210.621094 L 291.144531 210.488281 C 276.792969 214.785156 171.828125 198.824219 165.664062 197.664062 C 158.238281 192.734375 150.921875 192.183594 145.96875 192.601562 C 149.101562 189.457031 148.4375 186.113281 148.285156 185.824219 C 147.058594 183.519531 145.714844 182.382812 143.375 182.148438 C 141.03125 181.914062 138.859375 182.699219 136.707031 184.210938 C 137.230469 181.714844 136.597656 179.832031 136.597656 179.832031 L 136.292969 179.253906 C 134.625 176.8125 132.550781 175.695312 129.921875 175.617188 C 123.929688 175.472656 118.542969 182.03125 118.253906 182.183594 L 117.964844 182.335938 L 117.832031 182.777344 C 117.171875 185.714844 108.207031 195.285156 102.359375 200.976562 L 101.917969 200.84375 L 100.0625 208.484375 C 99.675781 210.539062 99.710938 211.996094 100.898438 212.84375 C 102.53125 213.824219 104.992188 212.890625 106.71875 211.96875 C 106.71875 211.96875 106.875 212.257812 107.160156 212.105469 C 109.539062 213.800781 116.207031 211.734375 118.820312 211.085938 L 123.363281 217.546875 L 127.578125 210.871094 C 127.792969 207.800781 136.058594 205.257812 140.28125 204.863281 L 140.570312 204.707031 C 146.777344 201.78125 153.816406 208.761719 153.96875 209.050781 L 154.714844 209.765625 L 160.617188 206.257812 C 186.359375 213.65625 265.203125 218.722656 270.464844 218.882812 C 274 219.964844 295.621094 220.308594 300.441406 220.335938 L 323.589844 229.113281 L 338.859375 250.203125 C 342.886719 253.609375 347.84375 253.195312 348.285156 253.332031 Z M 338.425781 232.6875 L 346.464844 250.601562 C 344.851562 250.347656 342.355469 249.824219 340.417969 248.265625 L 324.992188 226.886719 L 300.523438 217.703125 C 287.523438 217.585938 272.464844 217.082031 270.988281 216.386719 L 270.546875 216.253906 C 269.816406 216.269531 185.558594 210.753906 160.546875 203.339844 L 160.105469 203.203125 L 154.78125 206.402344 C 152.6875 204.554688 145.839844 199.320312 139.632812 202.25 C 137.597656 202.589844 126.109375 204.628906 125.371094 210.195312 L 123.542969 213.015625 L 120.207031 208.132812 L 119.34375 208.589844 C 113.984375 210.332031 109.46875 210.878906 108.71875 210.167969 L 108.378906 208.132812 L 106.648438 209.050781 C 105.070312 210.257812 102.898438 211.042969 102.59375 210.464844 C 102.59375 210.464844 102.441406 210.175781 102.847656 208.851562 L 104.449219 202.824219 C 106.585938 200.582031 119.28125 188.292969 120.765625 183.4375 C 121.613281 182.246094 126.171875 177.605469 130.417969 177.941406 C 131.875 177.902344 133.507812 178.886719 134.714844 180.464844 C 134.734375 181.191406 135.382812 183.804688 132.6875 187.085938 C 131.109375 188.292969 129.976562 189.636719 129.6875 189.789062 L 131.335938 191.5 C 132.625 190.445312 133.625 189.546875 134.335938 188.796875 C 137.203125 186.535156 140.644531 183.96875 143.425781 184.335938 C 144.597656 184.453125 145.347656 185.167969 146.113281 186.609375 C 146.113281 186.609375 146.796875 190.679688 139.859375 193.625 L 140.644531 195.796875 C 140.644531 195.796875 153.246094 191.691406 164.546875 199.734375 L 164.988281 199.871094 C 169.382812 200.492188 275.234375 216.722656 291.488281 212.523438 C 299.6875 213.34375 320.5 216.335938 325.253906 219.722656 Z M 338.425781 232.6875 " fill-opacity="1" fill-rule="nonzero"/></g></g></g><g clip-path="url(#b432b50ff3)"><g clip-path="url(#8c31d86678)"><g clip-path="url(#2fe9ce4621)"><path fill="#864301" d="M 95.015625 217.078125 C 96.167969 216.464844 97.304688 215.125 97.441406 214.683594 C 98.132812 213.203125 99.675781 210.539062 100.691406 210.367188 L 102.097656 208.140625 C 101.503906 207.71875 100.773438 207.734375 99.910156 208.195312 C 97.449219 209.132812 95.792969 212.96875 95.367188 213.566406 C 94.386719 215.195312 93.65625 215.214844 93.65625 215.214844 C 93.65625 215.214844 92.90625 214.5 93.042969 214.058594 L 92.738281 213.484375 L 92.296875 213.347656 C 89.78125 212.097656 88.179688 206.292969 87.546875 204.410156 C 87.222656 203.105469 87.1875 201.644531 87.898438 200.894531 C 88.898438 199.996094 90.953125 200.382812 90.953125 200.382812 L 91.683594 200.363281 L 92.105469 199.769531 C 93.242188 198.429688 94.683594 197.660156 95.855469 197.777344 C 98.640625 198.148438 101.359375 201.878906 102.125 203.320312 L 104.433594 202.09375 C 104.277344 201.808594 100.910156 195.464844 96.378906 195.285156 C 94.476562 195.183594 92.59375 195.816406 91.035156 197.753906 C 89.863281 197.636719 88.117188 197.824219 86.539062 199.03125 C 85.402344 200.375 84.863281 202.140625 85.511719 204.753906 C 85.683594 205.769531 87.457031 212.589844 91.023438 215.132812 C 91.484375 215.996094 92.097656 217.148438 93.421875 217.554688 C 93.863281 217.691406 94.441406 217.382812 95.015625 217.078125 Z M 95.015625 217.078125 " fill-opacity="1" fill-rule="nonzero"/></g></g></g><g clip-path="url(#e5b8331ff8)"><g clip-path="url(#33727a4cdd)"><g clip-path="url(#5db8de993b)"><path fill="#864301" d="M 91.359375 199.058594 C 88.222656 202.203125 89.710938 209.175781 94.394531 209.644531 C 91.675781 205.914062 92.042969 203.132812 91.359375 199.058594 Z M 91.359375 199.058594 " fill-opacity="1" fill-rule="nonzero"/></g></g></g><g clip-path="url(#d48fc7cebd)"><g clip-path="url(#677dc38a15)"><g clip-path="url(#61a7df54dd)"><path fill="#864301" d="M 64.003906 262.386719 C 64.6875 254.632812 86.664062 239.628906 95.007812 234.457031 L 95.582031 234.152344 L 95.566406 233.421875 C 94.65625 226.140625 102.800781 212.941406 102.800781 212.941406 L 100.730469 211.824219 C 100.304688 212.421875 92.582031 225.023438 92.933594 233.339844 C 87.609375 236.539062 62.308594 252.9375 61.238281 262.75 Z M 64.003906 262.386719 " fill-opacity="1" fill-rule="nonzero"/></g></g></g><g clip-path="url(#798fe7592c)"><g clip-path="url(#05ed03eb05)"><g clip-path="url(#c7fe6a065f)"><path fill="#864301" d="M 104.160156 285.789062 C 102.285156 280.867188 110.792969 258.605469 116.578125 244.441406 L 117 243.847656 L 116.695312 243.269531 C 112 236.523438 111.980469 212.132812 111.828125 211.84375 L 109.199219 211.761719 C 109.371094 212.78125 109.0625 235.863281 114.082031 243.917969 C 111.59375 249.675781 99.042969 279.632812 101.546875 286.4375 Z M 104.160156 285.789062 " fill-opacity="1" fill-rule="nonzero"/></g></g></g><g clip-path="url(#53c4e15d78)"><g clip-path="url(#3c083f3536)"><g clip-path="url(#3a8e86292e)"><path fill="#864301" d="M 119.71875 271.238281 L 121.433594 269.589844 C 116.007812 262.859375 126.351562 244.054688 130.855469 237.226562 L 131.992188 235.882812 L 130.226562 235.34375 C 127.289062 234.683594 119.054688 220.574219 113.847656 210.773438 L 111.539062 211.996094 C 113.53125 215.746094 122.722656 233.042969 128.074219 236.855469 C 124.992188 242.191406 112.800781 263.082031 119.71875 271.238281 Z M 119.71875 271.238281 " fill-opacity="1" fill-rule="nonzero"/></g></g></g><g clip-path="url(#66f285330d)"><g clip-path="url(#15eee38f0f)"><g clip-path="url(#d58229374e)"><path fill="#864301" d="M 200.621094 288.519531 C 199.492188 284.3125 192.699219 281.265625 190.492188 280.589844 L 172.195312 243.363281 C 163.941406 228.523438 125.34375 215.015625 124.019531 214.609375 L 123.34375 216.816406 C 123.34375 216.816406 161.941406 230.324219 169.886719 244.585938 L 188.933594 282.527344 L 189.375 282.664062 C 191.582031 283.339844 197.492188 286.113281 198.296875 289.015625 Z M 200.621094 288.519531 " fill-opacity="1" fill-rule="nonzero"/></g></g></g><g clip-path="url(#f070511b88)"><g clip-path="url(#f0c91f9ae4)"><g clip-path="url(#a667e39f8e)"><path fill="#864301" d="M 224.226562 239.011719 L 226.535156 237.785156 C 224.542969 234.039062 219.027344 235.488281 215.414062 237.039062 L 173.175781 206.242188 L 124.832031 211.960938 L 125.039062 214.4375 L 172.65625 208.738281 L 215.488281 239.957031 L 216.0625 239.652344 C 217.503906 238.886719 223 236.703125 224.226562 239.011719 Z M 224.226562 239.011719 " fill-opacity="1" fill-rule="nonzero"/></g></g></g><g clip-path="url(#aa8ac9c0c5)"><g clip-path="url(#15b5e36b45)"><g clip-path="url(#a0bc8a409a)"><path fill="#864301" d="M 70.375 242.367188 C 68.976562 239.042969 87.96875 227.476562 106.457031 219.132812 L 107.902344 218.367188 L 104.378906 211.734375 L 102.070312 212.960938 L 104.367188 217.285156 C 93.683594 222.222656 64.96875 236.367188 68.203125 243.152344 Z M 70.375 242.367188 " fill-opacity="1" fill-rule="nonzero"/></g></g></g><g clip-path="url(#c2fea06000)"><g clip-path="url(#d0c22bd755)"><g clip-path="url(#1de92e792e)"><path fill="#864301" d="M 149.507812 193.136719 L 147.386719 192.289062 L 143.269531 202.59375 L 145.390625 203.441406 Z M 149.507812 193.136719 " fill-opacity="1" fill-rule="nonzero"/></g></g></g><g clip-path="url(#839f14baf7)"><g clip-path="url(#4007090b26)"><g clip-path="url(#7d9e5e481f)"><path fill="#864301" d="M 159.804688 195.820312 L 157.628906 195.121094 L 153.515625 207.855469 L 155.691406 208.558594 Z M 159.804688 195.820312 " fill-opacity="1" fill-rule="nonzero"/></g></g></g><g clip-path="url(#9e592b291e)"><g clip-path="url(#415dfd173a)"><g clip-path="url(#d9d583bcc9)"><path fill="#864301" d="M 252.863281 168.347656 C 257.476562 165.898438 262.648438 162.410156 263.152344 159.183594 C 266.035156 157.652344 275.835938 152.445312 276.882812 147.453125 C 277.152344 146.570312 276.980469 145.554688 276.523438 144.6875 C 281.984375 141.046875 305.671875 124.398438 305.363281 111.992188 C 305.425781 108.628906 303.453125 105.613281 299.75 103.511719 L 299.15625 103.089844 L 298.578125 103.394531 C 273.171875 115.414062 146.878906 176.21875 144.140625 183.589844 L 146.5 184.554688 C 149.429688 178.933594 239.03125 134.660156 299.226562 106.007812 C 301.605469 107.703125 302.96875 109.566406 303.175781 112.046875 C 303.480469 124.453125 275.027344 143.265625 274.738281 143.417969 L 273.585938 144.03125 L 274.488281 145.03125 C 274.792969 145.605469 275.097656 146.183594 275.117188 146.914062 C 274.1875 150.734375 265.402344 155.769531 261.945312 157.609375 L 261.078125 158.066406 L 261.25 159.085938 C 261.746094 161.410156 253.25 166.292969 245.445312 169.699219 C 209.074219 193.085938 147.761719 188.320312 147.320312 188.183594 L 147.085938 190.527344 C 147.816406 190.507812 209.855469 195.257812 246.519531 171.71875 C 247.671875 171.105469 249.980469 169.878906 252.863281 168.347656 Z M 252.863281 168.347656 " fill-opacity="1" fill-rule="nonzero"/></g></g></g><g clip-path="url(#d48d349d84)"><g clip-path="url(#e6d9a9cd61)"><g clip-path="url(#482b5ac544)"><path fill="#864301" d="M 136.191406 181.15625 C 139.363281 179.472656 212.371094 137.363281 225.078125 95.863281 C 225.90625 93.941406 249.136719 40.9375 226.214844 23.539062 L 225.773438 23.40625 C 224.601562 23.289062 199.375 18.945312 181.730469 73.417969 C 178.109375 80.515625 160.558594 114.980469 162.960938 123.683594 C 158.015625 130.378906 128.011719 169.238281 130.992188 177.632812 L 133.164062 176.851562 C 131.273438 171.199219 151.871094 141.773438 165.324219 124.648438 L 165.746094 124.050781 L 165.441406 123.476562 C 162.988281 118.863281 175.59375 91.09375 184.089844 74.382812 C 200.246094 24.765625 222.464844 25.53125 225.097656 25.613281 C 245.808594 42.335938 222.851562 94.457031 222.714844 94.898438 C 210.28125 135.515625 135.542969 178.542969 134.96875 178.851562 Z M 136.191406 181.15625 " fill-opacity="1" fill-rule="nonzero"/></g></g></g><g clip-path="url(#97e2c24ced)"><g clip-path="url(#677894e8ad)"><g clip-path="url(#7f132c5b89)"><path fill="#864301" d="M 129.667969 177.226562 C 131.109375 164.632812 135.699219 131.511719 141.714844 126.835938 L 142.292969 126.53125 L 142.277344 125.800781 C 142.257812 125.070312 142.058594 69.722656 158.339844 60.703125 L 158.628906 60.550781 L 158.765625 60.109375 C 158.765625 60.109375 165.109375 44.910156 175.101562 41.449219 C 177.109375 45.929688 183.558594 58.765625 187.976562 60.117188 L 188.9375 57.757812 C 186.289062 56.949219 180.335938 46.433594 176.949219 39.359375 L 176.488281 38.496094 L 175.46875 38.664062 C 164.441406 41.566406 157.792969 56.191406 156.539062 58.703125 C 140.429688 68.742188 139.769531 118.996094 139.78125 125.277344 C 132.21875 132.621094 127.796875 172.308594 127.328125 176.992188 Z M 129.667969 177.226562 " fill-opacity="1" fill-rule="nonzero"/></g></g></g><g clip-path="url(#ddfea55bc5)"><g clip-path="url(#e89dd936cc)"><g clip-path="url(#2e19cb9d8f)"><path fill="#864301" d="M 135.15625 168.769531 C 134.046875 165.289062 141.382812 142.910156 146.457031 129.496094 C 154.773438 117.3125 152.808594 108.746094 152.65625 108.457031 C 148.195312 87.535156 180.390625 48.621094 180.964844 48.316406 L 179.027344 46.757812 C 177.605469 48.253906 145.546875 86.722656 150.042969 109.105469 C 150.042969 109.105469 151.699219 117.097656 144.09375 128.53125 C 141.761719 134.574219 130.957031 164.34375 132.695312 169.707031 Z M 135.15625 168.769531 " fill-opacity="1" fill-rule="nonzero"/></g></g></g><g clip-path="url(#7f0e315755)"><g clip-path="url(#d2a134897a)"><g clip-path="url(#1d10f252da)"><path fill="#864301" d="M 144.84375 152.902344 C 144.976562 152.460938 153.925781 118.503906 161.816406 106.914062 L 162.242188 106.320312 L 161.933594 105.746094 C 161.933594 105.746094 154.835938 90.292969 183.417969 52.929688 L 181.480469 51.371094 C 154.882812 86.203125 158.347656 102.472656 159.457031 105.953125 C 151.292969 118.421875 142.597656 150.765625 142.347656 152.378906 Z M 144.84375 152.902344 " fill-opacity="1" fill-rule="nonzero"/></g></g></g><g clip-path="url(#a461bdf076)"><g clip-path="url(#9c3cb681e1)"><g clip-path="url(#d5e873b22a)"><path fill="#864301" d="M 137.191406 156.597656 C 137.191406 156.597656 136.238281 141.578125 148.84375 113.808594 L 148.980469 113.367188 L 148.824219 113.078125 C 148.671875 112.789062 142.945312 69.992188 178.6875 44.722656 L 177.324219 42.855469 C 142.007812 67.53125 145.796875 108.769531 146.195312 112.996094 C 133.453125 141.207031 134.410156 156.226562 134.714844 156.804688 Z M 137.191406 156.597656 " fill-opacity="1" fill-rule="nonzero"/></g></g></g><g clip-path="url(#8d49e4a08b)"><g clip-path="url(#5b056dca8f)"><g clip-path="url(#ad25e74443)"><path fill="#864301" d="M 155.125 137.460938 C 155.125 137.460938 153.160156 128.890625 164.675781 110.203125 L 164.808594 109.761719 C 164.945312 109.320312 170.8125 68.867188 187.496094 58.523438 L 186.136719 56.660156 C 169.316406 67.445312 162.953125 105.574219 162.3125 109.242188 C 150.527344 128.808594 152.644531 137.667969 152.796875 137.953125 Z M 155.125 137.460938 " fill-opacity="1" fill-rule="nonzero"/></g></g></g><g clip-path="url(#65f27a3278)"><g clip-path="url(#baed790e60)"><g clip-path="url(#da55816974)"><path fill="#864301" d="M 136.851562 178.21875 C 136.984375 177.777344 151.941406 144.695312 168.558594 131.433594 L 168.980469 130.835938 C 169.25 129.953125 206.554688 43.59375 234.558594 42.027344 L 234.347656 39.550781 C 205.480469 41.578125 169.378906 123.234375 166.910156 129.71875 C 149.871094 143.578125 135.183594 175.777344 134.777344 177.101562 Z M 136.851562 178.21875 " fill-opacity="1" fill-rule="nonzero"/></g></g></g><g clip-path="url(#dd7b2be245)"><g clip-path="url(#37e6e30581)"><g clip-path="url(#4f07869ede)"><path fill="#864301" d="M 165.609375 124.496094 C 165.882812 123.609375 207.753906 38.890625 233.738281 38.398438 L 233.683594 36.207031 C 206.375 36.296875 165.0625 119.980469 163.25 123.53125 Z M 165.609375 124.496094 " fill-opacity="1" fill-rule="nonzero"/></g></g></g><g clip-path="url(#4b583ec474)"><g clip-path="url(#5ac537546b)"><g clip-path="url(#b136a04f7e)"><path fill="#864301" d="M 170.367188 104.222656 C 170.640625 103.339844 209.320312 31.40625 231.269531 33.054688 L 231.789062 30.558594 C 208.230469 28.65625 169.972656 99.996094 168.296875 103.105469 Z M 170.367188 104.222656 " fill-opacity="1" fill-rule="nonzero"/></g></g></g><g clip-path="url(#71c0d8f748)"><g clip-path="url(#f906a651d0)"><g clip-path="url(#6e78758a12)"><path fill="#864301" d="M 185.867188 69.371094 C 186.15625 69.21875 204.804688 31.953125 228.222656 28.015625 L 228.015625 25.539062 C 203.140625 29.511719 184.488281 66.777344 183.507812 68.40625 Z M 185.867188 69.371094 " fill-opacity="1" fill-rule="nonzero"/></g></g></g><g clip-path="url(#f63c510590)"><g clip-path="url(#793e74608d)"><g clip-path="url(#059dc046d8)"><path fill="#864301" d="M 139.789062 178.878906 C 139.921875 178.4375 161.996094 137.875 173.277344 133.359375 L 173.855469 133.054688 L 173.988281 132.613281 C 174.261719 131.730469 208.507812 45.882812 234.988281 47.714844 L 235.222656 45.371094 C 207.859375 43.269531 175.082031 123.53125 171.917969 131.496094 C 159.636719 136.910156 138.699219 176.128906 137.714844 177.761719 Z M 139.789062 178.878906 " fill-opacity="1" fill-rule="nonzero"/></g></g></g><g clip-path="url(#184ce69032)"><g clip-path="url(#68d6ce405f)"><g clip-path="url(#17c304350d)"><path fill="#864301" d="M 148.128906 173.707031 C 148.265625 173.265625 163.160156 143.542969 180.324219 134.792969 L 180.613281 134.640625 L 180.746094 134.199219 C 181.019531 133.316406 210.894531 53.859375 234.863281 54.433594 L 234.945312 51.804688 C 209.960938 51.398438 181.261719 125.421875 178.808594 132.640625 C 160.933594 142.136719 146.464844 171.265625 146.058594 172.589844 Z M 148.128906 173.707031 " fill-opacity="1" fill-rule="nonzero"/></g></g></g><g clip-path="url(#a302b40528)"><g clip-path="url(#2be3145f9d)"><g clip-path="url(#4c1606091b)"><path fill="#864301" d="M 276.289062 123.371094 C 290.417969 115.867188 300.644531 110.0625 302.777344 107.820312 L 301.128906 106.109375 C 294.300781 113.433594 196.894531 161.109375 146.519531 185.285156 L 147.589844 187.300781 C 152.066406 185.292969 233.039062 146.34375 276.289062 123.371094 Z M 276.289062 123.371094 " fill-opacity="1" fill-rule="nonzero"/></g></g></g><g clip-path="url(#070eea9620)"><g clip-path="url(#8235fb163e)"><g clip-path="url(#188fcdfcfb)"><path fill="#864301" d="M 233.835938 60.15625 L 234.800781 57.796875 C 231.554688 56.5625 218.851562 62.570312 214.816406 64.714844 L 216.039062 67.019531 C 223.25 63.191406 232.222656 59.902344 233.835938 60.15625 Z M 233.835938 60.15625 " fill-opacity="1" fill-rule="nonzero"/></g></g></g><g clip-path="url(#501513e8e8)"><g clip-path="url(#35f4ed276d)"><g clip-path="url(#2460e0419c)"><path fill="#864301" d="M 231.710938 68.679688 L 233.574219 67.320312 C 229.203125 61.875 211.519531 73.121094 206.058594 76.761719 L 207.570312 78.914062 C 217.625 72.09375 229.753906 66.390625 231.710938 68.679688 Z M 231.710938 68.679688 " fill-opacity="1" fill-rule="nonzero"/></g></g></g><g clip-path="url(#29d9a473b0)"><g clip-path="url(#00f3fd420a)"><g clip-path="url(#43f48307af)"><path fill="#864301" d="M 200.136719 91.367188 C 200.425781 91.210938 220.835938 71.867188 231.125 74.535156 L 231.644531 72.039062 C 220.03125 68.96875 199.335938 88.464844 198.335938 89.367188 Z M 200.136719 91.367188 " fill-opacity="1" fill-rule="nonzero"/></g></g></g><g clip-path="url(#db01178ff7)"><g clip-path="url(#5cb0cf212b)"><g clip-path="url(#9d15ac2835)"><path fill="#864301" d="M 195.820312 99.941406 C 206.398438 90.625 224.472656 77.328125 228.519531 81.464844 L 230.230469 79.816406 C 223.195312 72.832031 198.886719 93.878906 194.019531 97.941406 Z M 195.820312 99.941406 " fill-opacity="1" fill-rule="nonzero"/></g></g></g><g clip-path="url(#1cfeafb181)"><g clip-path="url(#43f3f2cf6c)"><g clip-path="url(#71a4a634a8)"><path fill="#864301" d="M 225.914062 88.394531 L 227.78125 87.03125 C 227.320312 86.167969 226.285156 85.609375 225.113281 85.492188 C 217.050781 84.230469 193.820312 101.746094 191.089844 103.566406 L 192.453125 105.429688 C 199.335938 100.292969 218.429688 86.824219 224.4375 87.699219 C 225.609375 87.816406 225.761719 88.105469 225.914062 88.394531 Z M 225.914062 88.394531 " fill-opacity="1" fill-rule="nonzero"/></g></g></g><g clip-path="url(#bbe1124531)"><g clip-path="url(#0734097d5b)"><g clip-path="url(#0eb9db6abc)"><path fill="#864301" d="M 223.039062 96.203125 L 224.753906 94.554688 C 217.085938 85.691406 191.46875 107.0625 188.316406 109.476562 L 189.964844 111.1875 C 200.273438 102.753906 218.382812 90.914062 223.039062 96.203125 Z M 223.039062 96.203125 " fill-opacity="1" fill-rule="nonzero"/></g></g></g><g clip-path="url(#9fb66ae4f7)"><g clip-path="url(#efb3e845c0)"><g clip-path="url(#4598151b88)"><path fill="#864301" d="M 185.765625 118.59375 C 195.128906 113.25 203.589844 106.90625 213.121094 102.582031 C 216.15625 101.339844 219.769531 99.789062 223.015625 101.023438 C 212.789062 94.996094 192.882812 111.113281 185.765625 118.59375 Z M 185.765625 118.59375 " fill-opacity="1" fill-rule="nonzero"/></g></g></g><g clip-path="url(#2563552441)"><g clip-path="url(#84959d646f)"><g clip-path="url(#5715c817e8)"><path fill="#864301" d="M 183.488281 126.828125 C 193.523438 119.277344 211.789062 107.726562 216.335938 108.636719 C 216.777344 108.773438 216.777344 108.773438 216.933594 109.0625 L 219.238281 107.835938 C 218.777344 106.972656 218.183594 106.546875 217.300781 106.277344 C 210.101562 104.554688 184.992188 122.703125 182.125 124.964844 Z M 183.488281 126.828125 " fill-opacity="1" fill-rule="nonzero"/></g></g></g><g clip-path="url(#23f1237b8c)"><g clip-path="url(#9b67d7acfb)"><g clip-path="url(#cbcb13fb05)"><path fill="#864301" d="M 180.460938 134.351562 C 191.480469 125.171875 208.28125 113.65625 212.15625 116.773438 L 213.714844 114.835938 C 207.136719 108.71875 183.523438 128.289062 178.945312 132.199219 Z M 180.460938 134.351562 " fill-opacity="1" fill-rule="nonzero"/></g></g></g><g clip-path="url(#99cdd7e823)"><g clip-path="url(#0844f51089)"><g clip-path="url(#24db110917)"><path fill="#864301" d="M 155.746094 168.550781 C 155.878906 168.109375 181.0625 129.226562 210.074219 121.207031 L 209.578125 118.882812 C 179.550781 127.070312 154.789062 165.363281 153.808594 166.992188 Z M 155.746094 168.550781 " fill-opacity="1" fill-rule="nonzero"/></g></g></g><g clip-path="url(#cbff362bab)"><g clip-path="url(#130ba8726a)"><g clip-path="url(#2e80d57148)"><path fill="#864301" d="M 167.089844 160.679688 C 167.375 160.523438 181.277344 137.980469 200.703125 132.097656 L 199.921875 129.929688 C 179.628906 136.269531 165.285156 158.675781 164.726562 159.714844 Z M 167.089844 160.679688 " fill-opacity="1" fill-rule="nonzero"/></g></g></g><g clip-path="url(#00cc10c3bf)"><g clip-path="url(#3e8d928a79)"><g clip-path="url(#3a9711741d)"><path fill="#864301" d="M 203.648438 186.355469 L 205.515625 184.996094 C 199.632812 177.402344 158.003906 183.246094 153.203125 183.949219 L 153.410156 186.429688 C 170.871094 183.804688 199.738281 181.78125 203.648438 186.355469 Z M 203.648438 186.355469 " fill-opacity="1" fill-rule="nonzero"/></g></g></g><g clip-path="url(#ca537031a8)"><g clip-path="url(#f5c3cedcf5)"><g clip-path="url(#ea3e7646d7)"><path fill="#864301" d="M 212.660156 184.527344 L 214.21875 182.589844 C 200.8125 171.96875 164.449219 177.976562 162.988281 178.011719 L 163.484375 180.335938 C 163.636719 180.625 200.289062 174.464844 212.660156 184.527344 Z M 212.660156 184.527344 " fill-opacity="1" fill-rule="nonzero"/></g></g></g><g clip-path="url(#105bf2c3ff)"><g clip-path="url(#5f27431290)"><g clip-path="url(#48c6c3993a)"><path fill="#864301" d="M 223.921875 179.285156 L 225.632812 177.636719 C 215.128906 166.210938 174.675781 172.175781 172.925781 172.363281 L 173.421875 174.6875 C 173.863281 174.824219 214.316406 168.859375 223.921875 179.285156 Z M 223.921875 179.285156 " fill-opacity="1" fill-rule="nonzero"/></g></g></g><g clip-path="url(#a6dd78ca7f)"><g clip-path="url(#c7d8f39268)"><g clip-path="url(#2df7c07ba8)"><path fill="#864301" d="M 233.4375 174.230469 L 234.996094 172.292969 C 220.398438 160.824219 186.054688 165.761719 184.746094 166.085938 L 184.953125 168.5625 C 185.242188 168.410156 219.742188 163.761719 233.4375 174.230469 Z M 233.4375 174.230469 " fill-opacity="1" fill-rule="nonzero"/></g></g></g><g clip-path="url(#3b38a29b73)"><g clip-path="url(#50152e5920)"><g clip-path="url(#aaa20a0da7)"><path fill="#864301" d="M 240.933594 170.25 L 242.644531 168.597656 C 233.328125 158.023438 200.945312 159.695312 199.640625 160.019531 L 199.847656 162.5 C 200.136719 162.34375 232.363281 160.382812 240.933594 170.25 Z M 240.933594 170.25 " fill-opacity="1" fill-rule="nonzero"/></g></g></g><g clip-path="url(#937bb8c49a)"><g clip-path="url(#2c72a4dcf2)"><g clip-path="url(#f7e28625fd)"><path fill="#864301" d="M 247.410156 166.4375 L 249.566406 164.921875 C 242.746094 154.867188 210.15625 154.066406 208.984375 153.949219 L 208.902344 156.578125 C 217.96875 156.941406 242.546875 158.671875 247.410156 166.4375 Z M 247.410156 166.4375 " fill-opacity="1" fill-rule="nonzero"/></g></g></g><g clip-path="url(#6dbb5cdf7d)"><g clip-path="url(#e6d35b99aa)"><g clip-path="url(#c752fe8a44)"><path fill="#864301" d="M 259.59375 162.921875 C 255.25 152.660156 220.570312 150.011719 216.769531 149.8125 L 216.535156 152.15625 C 226.769531 152.632812 253.878906 156.347656 257.132812 163.859375 Z M 259.59375 162.921875 " fill-opacity="1" fill-rule="nonzero"/></g></g></g><g clip-path="url(#ea3d831852)"><g clip-path="url(#5fd64ef241)"><g clip-path="url(#f7f83ce0ec)"><path fill="#864301" d="M 262.980469 158.167969 C 258.519531 149.074219 232.15625 146.074219 229.375 145.703125 L 229.140625 148.046875 C 236.898438 148.730469 257.726562 152.453125 260.960938 159.238281 Z M 262.980469 158.167969 " fill-opacity="1" fill-rule="nonzero"/></g></g></g><g clip-path="url(#412b7565b9)"><g clip-path="url(#0fd7f101b3)"><g clip-path="url(#3f23af3622)"><path fill="#864301" d="M 269.132812 153.050781 C 266.746094 145.074219 253.402344 142.921875 242.4375 142.460938 C 237.90625 142.28125 235.140625 142.640625 234.699219 142.507812 L 234.90625 144.984375 C 234.90625 144.984375 238.113281 144.757812 242.203125 144.804688 C 256.089844 145.191406 265.070312 148.183594 266.519531 153.699219 Z M 269.132812 153.050781 " fill-opacity="1" fill-rule="nonzero"/></g></g></g><g clip-path="url(#b26d39a5c9)"><g clip-path="url(#b1994b6969)"><g clip-path="url(#c9dfee4697)"><path fill="#864301" d="M 243.914062 143.15625 C 254.285156 143.191406 267.351562 139.949219 274.304688 149.5625 C 270.214844 137.6875 253.464844 139.5625 243.914062 143.15625 Z M 243.914062 143.15625 " fill-opacity="1" fill-rule="nonzero"/></g></g></g><g clip-path="url(#e79ec43252)"><g clip-path="url(#5f1a64b6f6)"><g clip-path="url(#5a8d79a83e)"><path fill="#864301" d="M 239.113281 143.859375 C 251.414062 139.171875 266.476562 134.128906 278.503906 142.15625 C 268 130.730469 250.015625 135.847656 239.113281 143.859375 Z M 239.113281 143.859375 " fill-opacity="1" fill-rule="nonzero"/></g></g></g><g clip-path="url(#92c11ab2e5)"><g clip-path="url(#80be702124)"><g clip-path="url(#dae8188678)"><path fill="#864301" d="M 253.898438 133.414062 C 260.195312 134.136719 283.441406 129.183594 283.660156 137.941406 C 285.273438 126.363281 260.261719 130.777344 253.898438 133.414062 Z M 253.898438 133.414062 " fill-opacity="1" fill-rule="nonzero"/></g></g></g><g clip-path="url(#e4535d70c9)"><g clip-path="url(#474968e4d4)"><g clip-path="url(#fbf4509db9)"><path fill="#864301" d="M 265.925781 129.613281 C 273.242188 130.164062 280.792969 128.371094 286.605469 133.046875 C 283.488281 125.089844 271.980469 126.398438 265.925781 129.613281 Z M 265.925781 129.613281 " fill-opacity="1" fill-rule="nonzero"/></g></g></g><g clip-path="url(#6f5ba7b1d0)"><g clip-path="url(#b1b547225f)"><g clip-path="url(#14642242ca)"><path fill="#864301" d="M 276.308594 124.101562 C 283.164062 123.785156 289.730469 123.621094 294.101562 129.066406 C 292.445312 121.074219 281.902344 120.019531 276.308594 124.101562 Z M 276.308594 124.101562 " fill-opacity="1" fill-rule="nonzero"/></g></g></g><g clip-path="url(#5897576011)"><g clip-path="url(#6ba05ee7c5)"><g clip-path="url(#f5d2c0c6bc)"><path fill="#864301" d="M 281.152344 119.308594 C 287.027344 120.621094 294.003906 119.136719 298.640625 123.695312 C 297.15625 116.722656 286.496094 116.839844 281.152344 119.308594 Z M 281.152344 119.308594 " fill-opacity="1" fill-rule="nonzero"/></g></g></g><g clip-path="url(#5c2f58f2d4)"><g clip-path="url(#a933395a52)"><g clip-path="url(#194384338e)"><path fill="#864301" d="M 291.667969 113.351562 C 294.949219 116.046875 298.902344 116.53125 301.183594 120.128906 C 302.382812 115.425781 295.742188 112.667969 291.667969 113.351562 Z M 291.667969 113.351562 " fill-opacity="1" fill-rule="nonzero"/></g></g></g><g clip-path="url(#4b311c4f08)"><g clip-path="url(#0dae0d3967)"><g clip-path="url(#b28b5249fc)"><path fill="#864301" d="M 296.570312 110.746094 C 298.371094 112.75 299.832031 112.710938 302.191406 113.675781 C 303.003906 111.027344 299.011719 109.082031 296.570312 110.746094 Z M 296.570312 110.746094 " fill-opacity="1" fill-rule="nonzero"/></g></g></g><g clip-path="url(#6cb6bafaa0)"><g clip-path="url(#3ac47bd9ff)"><g clip-path="url(#d442292ae3)"><path fill="#864301" d="M 140.183594 194.933594 C 140.90625 188.636719 133.191406 183.859375 130.300781 190.941406 C 135.777344 188.03125 136.867188 190.78125 140.183594 194.933594 Z M 140.183594 194.933594 " fill-opacity="1" fill-rule="nonzero"/></g></g></g><g clip-path="url(#d8316911e4)"><g clip-path="url(#d377b1a5d8)"><g clip-path="url(#639acbc9b1)"><path fill="#864301" d="M 116.289062 197.273438 C 120.289062 193.671875 122.757812 187.183594 128.902344 187.617188 C 122.957031 183.382812 116.894531 192.148438 116.289062 197.273438 Z M 116.289062 197.273438 " fill-opacity="1" fill-rule="nonzero"/></g></g></g><g clip-path="url(#8bf6b855d9)"><g clip-path="url(#9929bbbc66)"><g clip-path="url(#8e8756cf5a)"><path fill="#864301" d="M 166.597656 199.171875 L 164.078125 198.480469 L 162.441406 204.464844 L 164.960938 205.152344 Z M 166.597656 199.171875 " fill-opacity="1" fill-rule="nonzero"/></g></g></g><g clip-path="url(#fc58bf8436)"><g clip-path="url(#62abff0ecc)"><g clip-path="url(#f9c1fb5044)"><path fill="#864301" d="M 171.300781 199.648438 L 168.722656 199.214844 L 167.644531 205.65625 L 170.21875 206.085938 Z M 171.300781 199.648438 " fill-opacity="1" fill-rule="nonzero"/></g></g></g><g clip-path="url(#e8cb140ded)"><g clip-path="url(#d8dc5b3468)"><g clip-path="url(#8370731c53)"><path fill="#864301" d="M 175.394531 200.167969 L 172.785156 200.285156 L 173.136719 208.113281 L 175.746094 207.996094 Z M 175.394531 200.167969 " fill-opacity="1" fill-rule="nonzero"/></g></g></g><g clip-path="url(#78333cb25b)"><g clip-path="url(#a563ddfa23)"><g clip-path="url(#2ea1f3a28d)"><path fill="#864301" d="M 181.277344 208.960938 L 181.234375 201.222656 L 178.890625 200.988281 L 178.933594 208.726562 Z M 181.277344 208.960938 " fill-opacity="1" fill-rule="nonzero"/></g></g></g><g clip-path="url(#76383dca72)"><g clip-path="url(#a26ec374a2)"><g clip-path="url(#ec03c44ef4)"><path fill="#864301" d="M 188.121094 201.867188 L 185.839844 202.027344 L 186.378906 209.84375 L 188.660156 209.683594 Z M 188.121094 201.867188 " fill-opacity="1" fill-rule="nonzero"/></g></g></g><g clip-path="url(#3f8843a047)"><g clip-path="url(#76dd973569)"><g clip-path="url(#d03374a42d)"><path fill="#864301" d="M 194.324219 202.886719 L 192.050781 203.148438 L 192.949219 210.933594 L 195.21875 210.671875 Z M 194.324219 202.886719 " fill-opacity="1" fill-rule="nonzero"/></g></g></g><g clip-path="url(#7f74b8010a)"><g clip-path="url(#dc00ae2fb9)"><g clip-path="url(#fd609b1a0c)"><path fill="#864301" d="M 200.515625 203.550781 L 198.253906 203.886719 L 199.414062 211.636719 L 201.671875 211.300781 Z M 200.515625 203.550781 " fill-opacity="1" fill-rule="nonzero"/></g></g></g><g clip-path="url(#44498d8812)"><g clip-path="url(#0cd4f26f82)"><g clip-path="url(#8501027528)"><path fill="#864301" d="M 205.980469 205.019531 L 203.394531 205.371094 L 204.363281 212.488281 L 206.949219 212.136719 Z M 205.980469 205.019531 " fill-opacity="1" fill-rule="nonzero"/></g></g></g><g clip-path="url(#4a46eeb774)"><g clip-path="url(#c8a16a8935)"><g clip-path="url(#f41283c789)"><path fill="#864301" d="M 210.875 204.96875 L 208.265625 205.078125 L 208.582031 212.582031 L 211.191406 212.472656 Z M 210.875 204.96875 " fill-opacity="1" fill-rule="nonzero"/></g></g></g><g clip-path="url(#8d6a409ac2)"><g clip-path="url(#1c1a58f6c5)"><g clip-path="url(#1fa56abcff)"><path fill="#864301" d="M 216.136719 205.625 L 213.539062 205.910156 L 214.359375 213.375 L 216.957031 213.089844 Z M 216.136719 205.625 " fill-opacity="1" fill-rule="nonzero"/></g></g></g><g clip-path="url(#c8bb5ff00b)"><g clip-path="url(#89f887fea1)"><g clip-path="url(#0c898d5185)"><path fill="#864301" d="M 223.75 213.757812 L 222.550781 206.628906 L 220.074219 206.835938 L 220.984375 214.117188 Z M 223.75 213.757812 " fill-opacity="1" fill-rule="nonzero"/></g></g></g><g clip-path="url(#fd8909b37f)"><g clip-path="url(#929166608e)"><g clip-path="url(#cdeeaaad24)"><path fill="#864301" d="M 227.425781 207.386719 L 224.917969 208.117188 L 226.835938 214.699219 L 229.34375 213.96875 Z M 227.425781 207.386719 " fill-opacity="1" fill-rule="nonzero"/></g></g></g><g clip-path="url(#1205595577)"><g clip-path="url(#1d0ca267c1)"><g clip-path="url(#58a3335996)"><path fill="#864301" d="M 233.929688 208.058594 L 231.648438 207.945312 L 231.320312 214.464844 L 233.601562 214.578125 Z M 233.929688 208.058594 " fill-opacity="1" fill-rule="nonzero"/></g></g></g><g clip-path="url(#2d864361bf)"><g clip-path="url(#3a342048b6)"><g clip-path="url(#e54ba9d048)"><path fill="#864301" d="M 239.136719 208.679688 L 236.527344 208.8125 L 236.863281 215.335938 L 239.46875 215.203125 Z M 239.136719 208.679688 " fill-opacity="1" fill-rule="nonzero"/></g></g></g><g clip-path="url(#c5823b4bc1)"><g clip-path="url(#5d081cc34a)"><g clip-path="url(#81a85c8bea)"><path fill="#864301" d="M 244.390625 209.339844 L 242.105469 209.332031 L 242.089844 215.863281 L 244.375 215.867188 Z M 244.390625 209.339844 " fill-opacity="1" fill-rule="nonzero"/></g></g></g><g clip-path="url(#f43fee0865)"><g clip-path="url(#a5d2ada4c9)"><g clip-path="url(#db413858f2)"><path fill="#864301" d="M 249.390625 209.96875 L 246.8125 210.394531 L 247.820312 216.511719 L 250.398438 216.089844 Z M 249.390625 209.96875 " fill-opacity="1" fill-rule="nonzero"/></g></g></g><g clip-path="url(#38ca075e42)"><g clip-path="url(#f987d6aae1)"><g clip-path="url(#a59c83baad)"><path fill="#864301" d="M 254.695312 210.183594 L 252.441406 210.550781 L 253.441406 216.671875 L 255.695312 216.304688 Z M 254.695312 210.183594 " fill-opacity="1" fill-rule="nonzero"/></g></g></g><g clip-path="url(#b948440c43)"><g clip-path="url(#839bd4a14c)"><g clip-path="url(#7ede216ef6)"><path fill="#864301" d="M 259.476562 211.3125 L 257.195312 211.234375 L 257.03125 216.128906 L 259.316406 216.207031 Z M 259.476562 211.3125 " fill-opacity="1" fill-rule="nonzero"/></g></g></g><g clip-path="url(#957ef44432)"><g clip-path="url(#58fa7a5377)"><g clip-path="url(#6efe6114a4)"><path fill="#864301" d="M 264.160156 211.207031 L 261.546875 211.15625 L 261.433594 217.03125 L 264.046875 217.082031 Z M 264.160156 211.207031 " fill-opacity="1" fill-rule="nonzero"/></g></g></g><g clip-path="url(#f2d090b6cd)"><g clip-path="url(#2f024e5aff)"><g clip-path="url(#5f256e7bc2)"><path fill="#864301" d="M 269.550781 211.332031 L 266.972656 210.910156 L 265.96875 217.03125 L 268.546875 217.453125 Z M 269.550781 211.332031 " fill-opacity="1" fill-rule="nonzero"/></g></g></g><g clip-path="url(#8b5e3d9a7a)"><g clip-path="url(#a0a39aedff)"><g clip-path="url(#29d359e80f)"><path fill="#864301" d="M 274.539062 218.199219 L 274.699219 212.9375 L 272.359375 212.703125 L 272.195312 217.964844 Z M 274.539062 218.199219 " fill-opacity="1" fill-rule="nonzero"/></g></g></g><g clip-path="url(#8e8d0014f7)"><g clip-path="url(#187f418d60)"><g clip-path="url(#f685c2833d)"><path fill="#864301" d="M 280.691406 212.253906 L 278.421875 211.972656 L 277.65625 218.125 L 279.921875 218.410156 Z M 280.691406 212.253906 " fill-opacity="1" fill-rule="nonzero"/></g></g></g><g clip-path="url(#eb8a47ca7f)"><g clip-path="url(#c20430954f)"><g clip-path="url(#7ce2596e9f)"><path fill="#864301" d="M 285.902344 212.46875 L 283.304688 212.195312 L 282.652344 218.363281 L 285.25 218.636719 Z M 285.902344 212.46875 " fill-opacity="1" fill-rule="nonzero"/></g></g></g><g clip-path="url(#bca32f5ab3)"><g clip-path="url(#0aaef69df9)"><g clip-path="url(#103c526c85)"><path fill="#864301" d="M 292.628906 211.714844 L 290.046875 211.308594 L 288.875 218.726562 L 291.453125 219.132812 Z M 292.628906 211.714844 " fill-opacity="1" fill-rule="nonzero"/></g></g></g><g clip-path="url(#0a0d5cb0e6)"><g clip-path="url(#a68301454d)"><g clip-path="url(#9fd1d9fbc2)"><path fill="#864301" d="M 298.003906 212.335938 L 295.429688 211.886719 L 294.242188 218.636719 L 296.816406 219.089844 Z M 298.003906 212.335938 " fill-opacity="1" fill-rule="nonzero"/></g></g></g><g clip-path="url(#1faa12984a)"><g clip-path="url(#776159f482)"><g clip-path="url(#5ee9e712e3)"><path fill="#864301" d="M 302.941406 213.277344 L 300.367188 212.820312 L 299.28125 218.925781 L 301.855469 219.386719 Z M 302.941406 213.277344 " fill-opacity="1" fill-rule="nonzero"/></g></g></g><g clip-path="url(#8946299506)"><g clip-path="url(#9ef1682b07)"><g clip-path="url(#abd1e6c71e)"><path fill="#864301" d="M 308.167969 214.039062 L 305.902344 213.730469 L 304.890625 221.167969 L 307.15625 221.476562 Z M 308.167969 214.039062 " fill-opacity="1" fill-rule="nonzero"/></g></g></g><g clip-path="url(#ccc358cb0b)"><g clip-path="url(#21dedf7e58)"><g clip-path="url(#46545317dc)"><path fill="#864301" d="M 314.515625 215.140625 L 311.949219 214.648438 L 310.472656 222.34375 L 313.039062 222.835938 Z M 314.515625 215.140625 " fill-opacity="1" fill-rule="nonzero"/></g></g></g><g clip-path="url(#a403fbec76)"><g clip-path="url(#424c911043)"><g clip-path="url(#7a6bf3a264)"><path fill="#864301" d="M 320.015625 216.632812 L 317.550781 215.761719 L 314.398438 224.691406 L 316.863281 225.558594 Z M 320.015625 216.632812 " fill-opacity="1" fill-rule="nonzero"/></g></g></g><g clip-path="url(#93c94a5403)"><g clip-path="url(#abb539855f)"><g clip-path="url(#3f95ac85d1)"><path fill="#864301" d="M 324.324219 217.753906 L 322.113281 217.171875 L 319.605469 226.636719 L 321.816406 227.222656 Z M 324.324219 217.753906 " fill-opacity="1" fill-rule="nonzero"/></g></g></g><g clip-path="url(#ec19093ff8)"><g clip-path="url(#a58aef5e8f)"><g clip-path="url(#2e9951c788)"><path fill="#864301" d="M 328.585938 221.191406 L 326.527344 220.203125 L 322.992188 227.558594 L 325.050781 228.546875 Z M 328.585938 221.191406 " fill-opacity="1" fill-rule="nonzero"/></g></g></g><g clip-path="url(#437595c083)"><g clip-path="url(#82138ba05e)"><g clip-path="url(#080b73780e)"><path fill="#864301" d="M 332.507812 224.921875 L 330.273438 223.566406 L 325.875 230.828125 L 328.109375 232.179688 Z M 332.507812 224.921875 " fill-opacity="1" fill-rule="nonzero"/></g></g></g><g clip-path="url(#b7ad23e020)"><g clip-path="url(#11d5545fd6)"><g clip-path="url(#c3860d9744)"><path fill="#864301" d="M 335.710938 227.902344 L 333.457031 226.582031 L 328.503906 235.03125 L 330.757812 236.351562 Z M 335.710938 227.902344 " fill-opacity="1" fill-rule="nonzero"/></g></g></g><g clip-path="url(#9d3a704846)"><g clip-path="url(#ac8a949df6)"><g clip-path="url(#4893eef7ff)"><path fill="#864301" d="M 340.136719 232.671875 L 338.429688 231.148438 L 331.472656 238.945312 L 333.179688 240.464844 Z M 340.136719 232.671875 " fill-opacity="1" fill-rule="nonzero"/></g></g></g><g clip-path="url(#af5b251f33)"><g clip-path="url(#37fae71f27)"><g clip-path="url(#25b912d477)"><path fill="#864301" d="M 343.238281 239.617188 L 341.835938 237.808594 L 335.386719 242.808594 L 336.785156 244.617188 Z M 343.238281 239.617188 " fill-opacity="1" fill-rule="nonzero"/></g></g></g><g clip-path="url(#26f0ff59ac)"><g clip-path="url(#eac0ee8757)"><g clip-path="url(#a5b50ce9fc)"><path fill="#864301" d="M 344.519531 242.761719 L 338.464844 245.980469 L 339.6875 248.285156 L 345.742188 245.070312 Z M 344.519531 242.761719 " fill-opacity="1" fill-rule="nonzero"/></g></g></g><g clip-path="url(#5b5d57d2f8)"><g clip-path="url(#7aa56db53e)"><g clip-path="url(#7d7a6764d7)"><path fill="#864301" d="M 346.476562 247.46875 L 340.449219 248.933594 L 340.988281 251.15625 L 347.015625 249.691406 Z M 346.476562 247.46875 " fill-opacity="1" fill-rule="nonzero"/></g></g></g><g clip-path="url(#f3f623b9c1)"><g clip-path="url(#e1f85f2725)"><g clip-path="url(#b0fa234e10)"><path fill="#864301" d="M 97.511719 205.769531 C 98.953125 205.003906 99.496094 203.238281 98.730469 201.796875 C 97.964844 200.355469 96.195312 199.816406 94.753906 200.582031 C 93.3125 201.347656 92.773438 203.113281 93.539062 204.554688 C 94.304688 205.996094 96.070312 206.535156 97.511719 205.769531 Z M 95.675781 202.3125 C 95.960938 202.15625 96.402344 202.292969 96.558594 202.582031 C 96.863281 203.15625 95.710938 203.769531 95.402344 203.195312 C 95.25 202.90625 95.386719 202.464844 95.675781 202.3125 Z M 95.675781 202.3125 " fill-opacity="1" fill-rule="nonzero"/></g></g></g><g clip-path="url(#c31c10ac59)"><g clip-path="url(#e9b258296a)"><g clip-path="url(#c030e1aa6b)"><path fill="#864301" d="M 95.691406 214.871094 L 97.25 212.933594 C 96.0625 212.085938 91.152344 208.410156 88.59375 211.25 L 90.53125 212.808594 C 90.953125 212.214844 93.753906 213.3125 95.691406 214.871094 Z M 95.691406 214.871094 " fill-opacity="1" fill-rule="nonzero"/></g></g></g></svg>