<svg version="1.2" xmlns="http://www.w3.org/2000/svg" viewBox="0 0 400 505" width="400" height="505"><style>.a{opacity:.3;fill:#adaac4}.b{opacity:1;fill:#150d77}.c{fill:#9486bc}.d{fill:#c6bbd7}</style><path class="a" d="m191.5 433.7c-0.5 0.3-0.8 1.1-0.7 1.7q0.2 1.1 1-0.1c0.4-0.7 3.9-1.3 8.7-1.5l8-0.4c-12.5-0.3-16.5-0.1-17 0.3z"/><path class="a" d="m26.6 434c-0.3 0.5-0.4 1.3-0.1 1.8 0.3 0.4 0.5 0.1 0.5-0.6 0-0.8 2.2-1.2 7.5-1.2 5.1 0 7.7 0.4 8 1.3 0.3 0.6 0.4 0.5 0.2-0.3-0.3-1.1-2.2-1.6-7.9-1.8-4.6-0.2-7.9 0.1-8.2 0.8z"/><path class="a" d="m377.4 434c0 5.2 0.1 7.3 0.3 4.5 0.2-2.8 0.2-7 0-9.5-0.2-2.5-0.3-0.2-0.3 5z"/><path class="a" d="m372.3 433c0 4.7 0.2 6.5 0.4 4 0.2-2.5 0.2-6.3 0-8.5-0.2-2.2-0.4-0.2-0.4 4.5z"/><path fill-rule="evenodd" class="b" d="m354.8 421c3.8-0.1 5.2 0.4 7.5 2.7 1.5 1.5 3 4.4 3.4 6.3 0.3 1.9 0.3 5.1 0 7-0.4 2.1-1.8 4.6-3.7 6.3-2.3 2.1-4 2.7-7.5 2.7-3.2 0-5.2-0.6-7.1-2.3-1.6-1.3-2.9-3.7-3.3-6.2-0.4-2.2-0.4-5.8 0-8 0.5-2.5 1.7-4.9 3.4-6.3 1.9-1.6 3.9-2.2 7.3-2.2zm-5.9 12.5c0 2.2 0.8 5 1.6 6.3 0.9 1.3 2.5 2.2 3.9 2.2 1.4 0 3.2-0.7 4-1.5 0.9-0.8 1.9-2.7 2.2-4.3 0.3-1.5 0.3-3.8-0.1-5.2-0.4-1.4-1.5-3.3-2.4-4.3-0.9-1-2.6-1.8-3.8-1.7-1.2 0-2.9 1-3.8 2.2-1 1.3-1.7 4-1.6 6.3z"/><path class="a" d="m249.4 430.5c0 7.7 0.2 10.6 0.3 6.5 0.2-4.1 0.2-10.4 0-14-0.2-3.6-0.3-0.2-0.3 7.5z"/><path class="a" d="m317.8 426c-0.2 6.1 0 11 0.4 11 0.5 0 0.8-4.9 0.8-11 0-6.1-0.2-11-0.4-11-0.3 0-0.6 5-0.8 11z"/><path class="c" d="m295.4 428.5c0 7.7 0.2 10.6 0.3 6.5 0.2-4.1 0.2-10.4 0-14-0.2-3.6-0.3-0.2-0.3 7.5z"/><path class="a" d="m224.4 429c0 8 0.2 11.4 0.3 7.5 0.2-3.9 0.2-10.4 0-14.5-0.1-4.1-0.3-1-0.3 7z"/><path class="a" d="m377.4 413.2c-0.3 0.7-0.3 2.9-0.1 4.8 0.3 3.1 0.4 2.9 0.5-1 0.2-4.5 0.2-4.5 3.2-3.7 1.6 0.4 3 0.3 3-0.1 0-0.4-1.3-0.9-3-1-1.7-0.1-3.3 0.3-3.6 1z"/><path class="a" d="m323.4 429c0 9.6 0.2 13.4 0.3 8.5 0.2-4.9 0.2-12.8 0-17.5-0.1-4.7-0.3-0.6-0.3 9z"/><path class="a" d="m178.4 428c0 9.1 0.2 12.7 0.3 8 0.2-4.7 0.2-12.1 0-16.5-0.1-4.4-0.3-0.6-0.3 8.5z"/><path class="a" d="m172.4 428c0 9.1 0.2 12.7 0.3 8 0.2-4.7 0.2-12.1 0-16.5-0.1-4.4-0.3-0.6-0.3 8.5z"/><path class="b" d="m295.5 428c0 17 0 17 2.3 17 2.2 0 2.2-0.2 2.2-13.8v-13.7c16.6 24.8 19 27.6 20.8 27.5 2.2 0 2.2-0.1 2.4-17l0.3-17h-5c0.4 20.1 0.2 26-0.3 26-0.4 0-4.5-5.9-9.2-13-7.1-10.9-8.9-13-11-13h-2.5z"/><path class="b" d="m243.8 428l0.2 17h5l0.5-34h-6z"/><path fill-rule="evenodd" class="b" d="m205.5 410.9l2.2 4.8c1.2 2.6 2.9 7.5 3.7 10.8 0.9 3.3 1.8 8.8 2.6 18.5h-2.8c-2.2 0-2.6-0.4-2.3-2.3 0.2-1.2 0.1-3.9-0.9-9.7h-8c-7.6 0-8.1 0.1-9 2.5-0.6 1.4-1 4.1-1 6 0 3.1-0.3 3.5-2.8 3.5-2.6 0-2.7-0.1-2-4.2 0.4-2.4 1.4-6.5 2.2-9.3 0.8-2.7 3.1-7.4 5-10.2 2-2.9 3.6-5.7 3.6-6.3 0-0.6-1.3-0.8-3-0.5-1.7 0.3-3 0.3-3 0 0-0.3 0.3-1.2 0.6-2 0.4-1.1 2.3-1.5 14.9-1.6zm-9.8 13.9c-1 1.7-1.7 3.4-1.7 3.7 0 0.3 2.7 0.5 6 0.5 5 0 6-0.3 6-1.7 0-1-0.7-3.9-1.5-6.5-0.8-2.7-1.9-4.8-2.3-4.8-0.5 0-1.8 1.2-2.9 2.8-1.1 1.5-2.7 4.2-3.6 6z"/><path class="b" d="m172.8 428l0.2 17h5.5v-34h-6z"/><path fill-rule="evenodd" class="b" d="m40.5 411.5l2.2 4.5c1.2 2.5 2.9 7.4 3.7 11 0.8 3.6 1.7 9.1 2 12.3 0.6 5.7 0.6 5.7-2.2 5.7-2.2 0-2.6-0.4-2.3-2.3 0.2-1.2 0.1-3.9-0.9-9.7h-8c-7.6 0-8.1 0.1-9 2.5-0.6 1.4-1 4.1-1 6 0 3.1-0.3 3.5-2.5 3.5-2.1 0-2.5-0.5-2.5-2.8 0-1.5 0.9-5.6 1.9-9.2 1.1-3.6 3.6-9 5.5-12 2-3 3.6-5.8 3.6-6.3 0-0.4-1.4-0.5-3-0.2-1.6 0.3-3 0.3-3 0 0-0.3 0.3-1.2 0.6-2 0.5-1.3 2.1-1.5 14.9-1zm-9.9 13.2c-0.9 1.8-1.6 3.5-1.6 3.8 0 0.3 2.7 0.5 6 0.5 4.1 0 6-0.4 6-1.3 0-0.6-0.6-3.6-1.3-6.5-0.7-2.8-1.9-5.2-2.5-5.2-0.6 0-1.9 1.2-3 2.7-1.1 1.6-2.7 4.3-3.6 6z"/><path fill-rule="evenodd" class="b" d="m272.5 410.1c1.6 0 4.9 0.8 7.3 1.9 2.4 1.1 5 3.4 6.2 5.2 1 1.8 2.2 5.3 2.5 7.8 0.4 2.5 0.2 6.5-0.4 9-0.7 3-2.2 5.6-4.6 7.7-1.9 1.8-4.7 3.6-6.3 3.9-1.5 0.4-5 0.4-7.7 0.1-2.8-0.3-6.1-1.4-7.5-2.4-1.4-1.1-3.3-3.5-4.2-5.4-1.1-2.1-1.8-5.6-1.8-9.4 0-3.8 0.8-7.5 2-10.3 1.1-2.3 3-4.7 4.3-5.4 1.2-0.6 3.3-1.5 4.7-1.9 1.4-0.4 3.9-0.8 5.5-0.8zm-10.9 14.4c-0.4 2.2-0.3 5.9 0.3 8.2 0.6 2.4 2.1 5.2 3.4 6.3 1.2 1.1 3.3 2.1 4.7 2.4 1.4 0.2 4 0 5.8-0.5 2-0.6 4-2.1 5.2-4.2 1.2-1.9 2-5 2-7.7 0-2.5-0.4-6-1-7.8-0.6-2-2.1-3.8-4-4.7-1.6-0.8-4.6-1.5-6.6-1.5-2.5 0-4.3 0.8-6.3 2.7-1.7 1.7-3.1 4.5-3.5 6.8z"/><path class="b" d="m227.3 410.8c-12.4 0.2-13.3 0.3-13.8 2.2-0.5 1.8 0 2 5.5 2h6l-0.5 30h5.5v-30c8 0 10.2-0.5 10.6-1.3 0.3-0.6 0.4-1.7 0.2-2.2-0.2-0.6-5.4-0.9-13.6-0.8z"/><path class="a" d="m220 410.7c3.6 0.2 9.7 0.2 13.5 0 3.8-0.2 0.9-0.3-6.5-0.3-7.4 0-10.6 0.1-7 0.3z"/><path class="a" d="m190 411.8q0 1.7 0.8 0.5c0.4-0.7 3.8-1.3 8.2-1.5l7.5-0.4c-15.5-0.4-16.5-0.2-16.5 1.3z"/><path class="b" d="m150.5 411c-1.7 0.5-4.1 1.9-5.4 3.2-1.4 1.3-3.1 3.8-3.8 5.5-0.7 1.8-1.3 5.9-1.3 9.1 0 4 0.7 6.8 2.3 9.6 1.2 2.1 3.8 4.7 5.7 5.7 2 1.1 5.5 1.9 8.3 1.9 2.6 0 5.8-0.4 7.2-1 1.8-0.7 2.6-1.9 2.7-4 0.2-1.6 0.2-3 0-3-0.1 0-1.4 0.9-3 2-1.5 1.2-4.2 2.1-6 2-1.7 0-4.5-0.7-6.2-1.5-1.7-0.8-3.7-2.9-4.5-4.5-0.8-1.6-1.5-5.3-1.5-8 0-2.7 0.7-6.4 1.5-8 0.8-1.6 2.8-3.7 4.5-4.5 1.7-0.8 3.9-1.5 5-1.5 1.1 0 3.6 0.7 5.5 1.5 3.1 1.3 3.6 1.3 4 0 0.3-0.8 0.5-1.9 0.5-2.5 0-0.6-1.7-1.4-3.8-2-2-0.5-4.8-1-6.2-0.9-1.4 0-3.8 0.5-5.5 0.9z"/><path fill-rule="evenodd" class="b" d="m121 410.6c2.5 0.2 5.6 1.3 7 2.3 1.4 1 3.4 3.1 4.5 4.5 1.4 2 2.1 4.7 2.3 9.4 0.3 5.4-0.1 7.5-2 11.2-1.5 2.9-3.5 5.1-5.8 6.2-1.9 1-5.6 1.8-8.3 1.8-2.6 0-6.3-0.8-8.4-1.9-2.1-1.1-4.7-3.4-5.7-5.3-1-1.8-2.1-5.6-2.4-8.3-0.4-3.3 0-6.5 1.1-9.5 0.9-2.5 2.7-5.5 3.9-6.8 1.3-1.2 3.9-2.7 5.8-3.2 1.9-0.5 5.5-0.7 8-0.4zm-11.4 9.5c-0.9 1.4-1.5 4.7-1.6 7.6 0 2.9 0.5 6.4 1 7.8 0.5 1.4 2.2 3.3 3.8 4.2 1.5 0.9 4.5 1.6 6.7 1.5 3.1-0.1 4.6-0.8 6.8-3.1 2.4-2.8 2.7-3.9 2.7-10.1 0-6.4-0.2-7.2-3-10-2.3-2.3-3.9-3-6.7-3-2.1 0.1-4.8 0.7-6 1.4-1.1 0.7-2.8 2.4-3.7 3.7z"/><path class="b" d="m85.5 410.7c-1.1 0.3-3 1.5-4.3 2.6-1.5 1.4-2.2 3.3-2.2 5.5 0 2.6 1.1 4.3 6.5 9.5 5 4.7 6.5 6.9 6.5 9 0 1.7-0.7 3.1-2 3.7-1.1 0.6-3.2 1-4.8 1-1.5 0-3.7-0.7-5-1.5-2.1-1.4-2.2-1.4-2.2 1 0 1.6 0.8 2.9 2.3 3.6 1.2 0.7 4.4 0.9 7.2 0.6 3.7-0.4 5.6-1.1 7.3-3.1 1.4-1.7 2.2-3.9 2.2-6.3 0-3.4-0.7-4.5-6.5-9.8-3.6-3.4-6.5-6.9-6.5-8-0.1-1.1 0.7-2.7 1.6-3.5 1.3-1.2 2.4-1.3 5.5-0.5 3.1 0.8 3.9 0.7 4.2-0.4 0.3-0.8 0.2-1.8-0.2-2.2-0.3-0.4-2.2-1-4.1-1.2-1.9-0.3-4.4-0.3-5.5 0z"/><path class="b" d="m61.3 410.7c-1.2 0.2-3.2 1.6-4.3 3.1-1.1 1.5-2.1 3.7-2 5 0 1.3 2.7 5.1 7 9.7 3.8 4.1 7 8 7 8.5 0 0.6-0.9 1.9-2 3-1.1 1.1-3.3 2-5 2-1.6 0-4.1-0.7-5.5-1.5-2.4-1.4-2.5-1.4-2.5 1 0 1.7 0.8 2.8 2.5 3.5 1.4 0.6 4.3 1 6.6 1 3.2 0 4.7-0.6 7-3 2.2-2.2 2.9-4 2.9-6.7 0-3.4-0.7-4.5-6.5-9.8-3.7-3.4-6.5-6.9-6.5-8 0-1.1 0.5-2.6 1.2-3.2 0.7-0.7 2.2-1.3 3.5-1.3 1.3 0 3.2 0.5 4.3 1 1.6 0.8 2.1 0.6 2.4-0.7 0.2-0.9 0.1-2-0.3-2.4-0.3-0.4-2.2-1-4.1-1.2-1.9-0.3-4.5-0.3-5.7 0z"/><path class="a" d="m25 410.8c0 0.4 2.6 0.6 5.7 0.4 3.2-0.1 6.9-0.4 8.3-0.6 1.4-0.2-1.2-0.4-5.8-0.5-4.5 0-8.2 0.2-8.2 0.6z"/><path class="b" d="m375.1 409.5c-2 1.4-2.3 2.4-2.2 6.6 0.1 3.5-0.3 5-1.4 5.4-0.8 0.3-1.5 1.2-1.5 2 0 0.8 0.7 1.5 1.5 1.5 1.3 0 1.5 1.7 1.2 10l-0.2 10h5c-0.7-18.9-0.5-19.5 1.4-20.3 1.2-0.4 2.1-1.4 2.1-2.2 0-0.8-0.9-1.5-2-1.5-1.7 0-2-0.6-1.8-4.2 0.3-4 0.5-4.3 3.2-4.3 1.7 0 3-0.6 3.1-1.4 0.1-0.7-0.3-1.7-0.9-2.2-0.6-0.5-2-0.9-3.1-0.9-1.1 0-3.1 0.7-4.4 1.5z"/><path class="a" d="m217.3 396.1q-0.1 3.5 0.5 1.4c0.4-1.1 1.4-2 2.2-2 0.8 0 1.8 0.9 2.2 2 0.4 1.5 0.6 1.1 0.7-1.5 0.2-3 0-3.3-1.4-2.3-1.1 1-1.8 1-2.8 0.2-1-0.9-1.3-0.4-1.4 2.2z"/><path class="b" d="m215 394c0 2.2 0.4 4 1 4 0.6 0 1-1.2 1-2.8-0.1-2.3 0.1-2.5 1.5-1.5 1.2 1 1.8 1 3 0 1.4-1 1.6-0.8 1.5 1.5 0 1.6 0.4 2.8 1 2.8 0.6 0 1-1.8 1-4 0-2.9-0.4-4-1.5-4-0.8 0-1.9 0.8-2.5 1.8-1 1.6-1 1.6-2-0.1-0.6-0.9-1.7-1.7-2.5-1.7-1.1 0-1.5 1.1-1.5 4z"/><path class="b" d="m206.3 390.6c1.2 0.3 1.7 1.4 1.7 3.9 0 1.9 0.4 3.5 1 3.5 0.6 0 1-1.6 1-3.5 0-2.9 0.4-3.6 2.2-3.9 1.3-0.2 0-0.3-2.7-0.3-2.8-0.1-4.2 0.1-3.3 0.3z"/><path class="c" d="m125 332.1c-2.5 2.2-6.3 4.8-8.5 5.8-2.2 1-6 2.8-8.5 3.9-2.5 1.2-3.7 2.1-2.8 2.2 1 0 3.3 0.1 5 0.3 2.7 0.2 4.4-0.7 9.2-4.8 3.2-2.7 7-6.5 8.3-8.3 1.3-1.7 2.3-3.2 2.1-3.2-0.2 0.1-2.3 1.9-4.8 4.1z"/><path class="b" d="m162.2 329.6c0.3 4.4 1.2 7.7 3.8 12.8 1.9 3.8 5.5 9.2 8 11.9 2.5 2.7 5.6 5.5 7 6.2 1.4 0.7 3.1 1.1 3.8 0.9 0.6-0.2 1.2-1.2 1.2-2.2-0.1-0.9-2.8-4.5-6-8-3.9-4-7.1-8.6-9-13-1.7-3.7-3.8-8.2-4.8-10.1-0.9-1.9-2.3-3.7-3-3.9-0.9-0.3-1.2 1-1 5.4z"/><path class="c" d="m224.3 268.5c0 4.4 0.2 6 0.4 3.5 0.2-2.5 0.2-6.1 0-8-0.2-1.9-0.4 0.1-0.4 4.5z"/><path class="d" d="m218.6 248.2c-1 2.9-3.2 8-4.9 11.3-1.6 3.3-5 9.4-7.5 13.5-2.5 4.1-5.9 9.3-7.6 11.5-1.6 2.2-5.8 7.4-9.2 11.5-3.5 4.1-10.4 11.1-15.5 15.5-5.1 4.4-9.9 8.4-10.7 9-1.2 0.8-1.1 1.4 0.9 3.3 1.3 1.3 3.7 5.6 5.2 9.5 1.6 4 4.4 9.5 6.2 12.2 1.8 2.8 4.9 6.2 6.9 7.8 2.3 1.7 3.8 3.8 4.1 5.7 0.3 1.6 1.1 3.2 1.8 3.4 0.7 0.2 2.2-1.6 3.5-4.2 1.3-2.6 6-10.8 10.5-18.2 4.4-7.4 9.8-17.1 11.8-21.5 2.1-4.4 4.4-10.7 5.3-14 0.8-3.3 2.2-10.7 3-16.5 0.9-5.8 1.6-14.3 1.6-19 0-4.7-0.7-12.3-1.6-17-0.9-4.7-1.7-8.6-1.8-8.8-0.1-0.2-1 2.1-2 5z"/><path class="c" d="m216.7 236.3c-0.3 4.5-1.7 12.1-3.1 16.9-1.5 4.9-3.7 11.2-5.1 14-1.4 2.9-1.9 4.4-1 3.3 0.9-1.1 3.2-5 5.1-8.8 1.9-3.7 4.5-9.7 5.9-13.5 2.3-6.5 2.4-6.9 1-13.5-0.8-3.7-1.6-6.7-1.8-6.7-0.2 0-0.7 3.7-1 8.2z"/><path class="c" d="m163.4 240c0 6.9 0.1 9.6 0.3 6 0.2-3.6 0.2-9.2 0-12.5-0.2-3.3-0.3-0.4-0.3 6.5z"/><path class="c" d="m160.4 184.5c0 6.6 0.1 9.1 0.3 5.5 0.2-3.6 0.2-9 0-12-0.2-3-0.3-0.1-0.3 6.5z"/><path class="b" d="m124.9 175c-0.6 1-1 3.7-1 5.9 0.1 2.3 0.7 7.1 1.5 10.8 0.8 3.8 2.7 10.2 4.2 14.3 1.4 4.1 5.3 13.3 8.5 20.5 3.2 7.2 6.7 16.4 7.8 20.5 1.2 4.1 2.8 12 3.6 17.5 0.8 5.5 1.5 10.7 1.5 11.5 0 1.3 0.2 1.3 1.6 0 1.1-1.1 1.7-4.2 2.1-11 0.4-7.7 0.1-11.2-1.6-18.5-1.2-4.9-4.4-13.5-7.1-19-2.6-5.5-5.9-12.7-7.2-16-1.4-3.3-3.2-8.5-4.1-11.5-0.8-3-2-8.2-2.6-11.5-0.7-3.3-1.7-7.9-2.4-10.3-0.7-2.3-1.8-4.4-2.5-4.7-0.7-0.2-1.7 0.4-2.3 1.5z"/><path class="d" d="m172.2 115.8c-1.7 2.6-5.4 8.8-8.2 13.7-2.9 4.9-7 11.5-9.3 14.5-2.3 3-7.1 8.7-10.8 12.5-3.6 3.8-9.2 8.8-12.3 11-3.1 2.2-5.6 4.1-5.6 4.3 0 0.1 0.9 1 2 2 1.5 1.2 2.6 4.7 4.1 12.7 1.2 6.1 3.5 14.8 5.1 19.5 1.6 4.7 5.2 12.9 7.9 18.3 2.7 5.3 6.1 13.6 7.5 18.5 2.2 7.5 2.6 10.8 2.7 24.4 0.1 8.6 0.5 16 0.9 16.5 0.4 0.4 1.9-4.4 3.4-10.7 2.5-10.4 2.8-13.3 2.8-31 0.1-10.7-0.5-28.9-1.3-40.5-1.4-19.2-1.3-22.2 0.2-34.5 1-7.4 3-18.7 4.6-25 1.6-6.3 4.4-15.8 6.3-21 1.8-5.2 3.3-9.5 3.2-9.7 0-0.1-1.5 1.9-3.2 4.5z"/><path class="a" d="m281.5 108.7c2.8 0.2 6.8 0.2 9 0 2.2-0.2-0.1-0.3-5-0.3-4.9 0-6.8 0.1-4 0.3z"/><path class="c" d="m173.2 111c-2.3 1.6-5.5 4.9-7 7.3-1.6 2.3-5.5 8.7-8.6 14.2-3.2 5.5-7.6 12.5-9.9 15.5-2.3 3-7.8 9.3-12.2 13.9-7.5 7.9-7.7 8.2-3.1 5 2.7-1.9 8.4-7.2 12.8-11.9 4.4-4.7 9.9-11.4 12.3-15 2.3-3.6 6.9-11 10.2-16.5 3.2-5.5 6.4-9.9 7.1-9.8 0.8 0.2 0.9-0.3 0.5-1.4-0.5-1.3-0.4-1.6 0.5-1 0.7 0.4 1.3 0.1 1.5-0.9 0.1-0.9 0.2-1.8 0.1-2.1 0-0.2-1.9 1-4.2 2.7z"/><path class="b" d="m180.5 99.3c-3.3 1.3-8 3.7-10.5 5.4-2.5 1.7-6.1 4.8-8.2 7-2 2.1-6.9 9.2-10.8 15.8-4 6.6-9.6 15.2-12.5 19-2.9 3.8-7.7 9.3-10.7 12-3 2.8-8.1 6.4-11.4 8.2-3.2 1.7-8.6 3.8-11.9 4.7-3.3 0.9-8.5 1.6-11.5 1.6-3 0-7.1-0.4-9-1-1.9-0.5-3.6-0.7-3.8-0.5-0.1 0.3 2.2 1.8 5 3.4 2.9 1.6 7.1 3.2 9.3 3.6 2.2 0.4 4.5 1.1 5 1.6 0.6 0.5 3.2 0.4 6.5-0.3 3-0.6 7.1-1.8 9-2.6 1.9-0.8 6-3.1 9-5.2 3-2.1 8.7-7.1 12.5-11.1 3.9-4.1 8.9-9.9 11.2-12.9 2.3-3 6.7-10 9.9-15.5 3.1-5.5 6.9-11.9 8.4-14.3 1.5-2.4 4.7-5.6 7.1-7.3 2.4-1.6 4.5-2.8 4.7-2.7 0.1 0.2-1.2 3.5-2.9 7.3-1.7 3.8-4.6 12.2-6.4 18.5-1.8 6.3-4.3 17.8-5.5 25.5-2 12.5-2.2 16.2-1.7 34 0.4 11 1 22.3 1.4 25 0.4 2.8 0.8 12.9 0.8 22.5 0 13.2-0.5 19.5-1.9 25.5-0.9 4.4-2.6 10.9-3.7 14.5-1.1 3.6-4.9 12.4-8.4 19.5-5.5 11.1-8 14.8-16.8 25-5.7 6.6-13.3 14.2-16.8 17-3.5 2.7-9.2 6.1-12.6 7.5-3.4 1.4-6.7 3.1-7.5 3.8-1.1 1.1-1 1.2 0.5 0.8 0.9-0.3 1.7-0.3 1.7 0.2 0 0.4 2.1 0.6 4.8 0.4 2.6-0.1 6-0.6 7.7-1.1 1.7-0.6 5-1.7 7.5-2.6 2.5-0.9 7-3 10-4.6 3-1.6 11.2-7.5 18.1-13.1 7-5.7 16.8-13.7 21.9-17.8 5.1-4.1 12.3-10.8 16.1-14.7 3.8-4 9.5-10.8 12.7-15 3.1-4.3 7.6-11.4 9.9-15.8 2.3-4.4 5.3-12.1 6.8-17 1.4-4.9 2.9-12.8 3.2-17.5 0.5-6.6 0.8-8 1.5-6 0.5 1.4 2.3 9.7 4 18.5 2.5 13.3 2.9 17.4 2.4 24.5-0.3 4.7-0.8 9.6-1 11-0.3 1.4-1.2 6.6-2 11.5-0.9 4.9-2.4 11.5-3.4 14.5-1.1 3-3.3 8.2-4.9 11.5-1.7 3.3-6.4 11.6-10.5 18.5-4.2 6.9-9.3 16.1-11.5 20.5-2.2 4.4-4.8 10.4-5.7 13.3-0.9 2.8-1.4 5.6-1.1 6.2 0.3 0.6 0.2 1.2-0.2 1.4-0.5 0.2-0.7 3.5-0.5 7.3 0.2 3.9 1 7.5 1.8 8.6 1.3 1.6 1.7 1.4 4.8-2.5 1.9-2.4 5.6-7 8.3-10.4 2.6-3.3 11.4-13.5 19.5-22.5 8.1-9 17.4-20 20.6-24.4 3.3-4.4 8.4-12.5 11.5-18 3.1-5.5 7.4-14.3 9.6-19.5 2.2-5.2 5-13.6 6.3-18.5 2.1-8.1 2.3-11.3 2.3-32 0-18.1-0.4-24.9-1.8-32-1-4.9-2.9-12.4-4.2-16.5-1.3-4.1-6.7-18.4-11.9-31.7-5.3-13.4-11.2-29.6-13.2-36-1.9-6.5-4.2-16.5-5.1-22.3-0.9-5.8-1.8-10.7-2-11-0.3-0.3-1.1 0.4-1.9 1.5-1 1.3-1.4 4.6-1.4 10 0 4.4 0.7 11.9 1.5 16.8 0.8 4.8 3.1 13.5 5.1 19.5 2 5.9 7.4 19.9 12 31.2 4.5 11.3 9.4 24.3 10.7 29 1.4 4.7 3 12.3 3.7 17 0.6 4.7 1.1 15 1.1 23 0 8.2-0.7 18.8-1.5 24.3-0.9 5.3-2.8 13.4-4.2 18-1.4 4.5-4.5 12.3-6.9 17.2-2.4 4.9-6.7 12.6-9.5 17-2.9 4.4-7.5 10.7-10.3 14-2.8 3.3-11.5 12.9-19.2 21.2-7.7 8.4-14.1 15-14.3 14.8-0.1-0.3 4.5-8.5 10.2-18.2 5.8-9.8 12.9-23 16-29.3 3-6.3 6.4-14.4 7.6-18 1.1-3.6 3-11.4 4.2-17.5 1.6-8.7 1.9-13.1 1.5-21-0.4-6.7-2-15.4-4.8-26.5-2.2-9.1-6-22.1-8.4-29-2.3-6.9-5.2-14.5-6.4-17-1.4-2.8-2.6-4.1-3.1-3.5-0.5 0.6-1.2 7.3-1.5 15-0.3 7.7-1 18.7-1.5 24.5-0.6 6-2 13.5-3.3 17.5-1.3 3.8-4 10.1-5.9 14-2 3.9-5.7 9.9-8.3 13.5-2.7 3.6-9.3 11.2-14.9 16.8-5.6 5.7-14.5 14-19.8 18.3-5.4 4.3-10 7.9-10.3 7.9-0.3 0 2.1-4.4 5.2-9.8 3.1-5.3 7.4-14 9.5-19.2 2.2-5.2 5.1-14 6.5-19.5 2.5-9.4 2.7-11.4 2.7-33.5 0.1-12.9-0.2-28.4-0.7-34.5-0.4-6.1-1-14.2-1.3-18-0.4-4.2 0.1-12.2 1-20 0.9-7.2 3.1-18.6 4.7-25.5 1.7-6.9 4.9-17.2 7.1-23 2.1-5.8 5-12.5 6.4-15 1.9-3.6 2.2-4.8 1.2-5.8-0.7-0.7-1.5-1.2-1.8-1.2-0.3 0.1-3.2 1.1-6.5 2.3z"/><path class="d" d="m121 95.8c0 0.4-1.3 1.3-3 2-2.8 1.1-3 1.6-3 6.2 0 3.7 0.4 5 1.4 5 0.8 0 2.2-0.8 3.2-1.7 0.9-1 2.3-3.1 3-4.8 0.7-1.7 1.2-4 1-5.2-0.2-1.3-0.8-2.3-1.4-2.3-0.7 0-1.2 0.3-1.2 0.8z"/><path class="b" d="m112.5 93.5c-1.4 1.4-3 4.4-3.6 6.8-0.6 2.3-0.8 5.9-0.5 8 0.3 2 1.3 5 2.1 6.7 0.8 1.7 2.4 3.5 3.5 4 1.5 0.7 3.1 0.5 6.5-1 4.2-1.9 4.5-2.2 4.4-5.8-0.1-2 0.2-5.6 0.7-8 0.7-3.2 0.6-4.2-0.4-4.2-0.6 0-1.5 1-1.9 2.3-0.4 1.2-1.7 3.4-3 5-1.3 1.5-3 2.7-3.8 2.7-0.8 0-1.8-1.2-2.1-2.8-0.4-1.5-0.3-4.3 0.2-6.2 0.7-2.6 1.5-3.6 3.1-3.8 1.3-0.1 2.5-0.9 2.8-1.7 0.3-0.8-0.1-2.2-0.8-3-0.6-0.9-2-1.6-3-1.5-1 0-2.9 1.1-4.2 2.5z"/><path class="a" d="m119.7 92.6c1.7 1.4 3.1 3.1 3.1 3.7 0.1 0.7 1.1 2.3 2.2 3.7 1.7 2 2.1 2.2 2 0.8 0-1-0.5-1.8-1-1.8-0.6 0-1.3-0.8-1.6-1.7-0.4-1-1.9-3-3.3-4.6-1.4-1.5-3-2.7-3.5-2.7-0.5 0 0.4 1.2 2.1 2.6z"/><path class="a" d="m138.5 89c-0.3 0.5-0.3 1 0 1 0.3 0-0.3 0.9-1.2 2-1 1.2-3.1 2.1-4.8 2.2l-3 0.1c5.3 0.7 6.7 0.1 8.8-2 1.5-1.5 2.7-3.1 2.7-3.6 0-0.4-0.4-0.7-1-0.7-0.5 0-1.1 0.5-1.5 1z"/><path class="b" d="m170.5 78.8c-4.4 1.5-10.3 4.4-13 6.3-2.8 2-8.4 7.2-12.5 11.6-6.1 6.5-9.1 11-16.4 24.4-4.9 9-12.2 21.3-16.2 27.4-4 6.1-9.5 13.4-12.3 16.3l-5.1 5.2c5.8-0.6 7.8-0.8 8.2-0.9 0.5-0.1 0.5-0.7 0.1-1.3-0.5-0.8-0.4-1 0.2-0.6 0.6 0.4 3.3-1.6 6-4.5 2.8-2.8 7.2-8.1 9.7-11.7 2.5-3.6 8.8-14.2 13.8-23.5 5.1-9.3 10.5-18.8 12-21 1.5-2.2 4.9-6.3 7.6-9.1 2.7-2.8 8.1-7.1 11.9-9.6 3.8-2.5 9.7-5.5 13-6.7 3.3-1.2 6.7-2.4 7.5-2.7 1.3-0.4 1.3-0.6 0-1.4-0.8-0.5-2.6-1-4-1-1.4 0-6.1 1.3-10.5 2.8z"/><path class="c" d="m183 74.9l-3.5 0.7c5.6 1.1 6.6 1.7 6 2.2-0.6 0.5-3.9 1.9-7.5 3.2-3.6 1.2-9.7 4.3-13.5 6.8-3.8 2.5-9.2 6.8-11.9 9.6-2.7 2.8-6.1 6.9-7.6 9.1-1.5 2.2-6.9 11.7-12 21-5 9.3-11.3 19.9-13.8 23.5-2.6 3.6-6.5 8.5-8.7 10.9-2.2 2.5-3.3 4.1-2.5 3.6 1.3-0.7 1.3-0.6 0.3 0.8-0.8 1-2.1 1.5-3.3 1.2-1.1-0.3-1.8-0.1-1.5 0.5 0.3 0.6-0.1 1.1-0.8 1.1-0.6 0.1-1.9 0.3-2.7 0.4-0.8 0.1-2.2 0.3-3 0.3-1.1 0.1-1 0.5 0.5 1.6 1.7 1.1 2.8 1.1 7.5-0.1 3-0.8 8.2-2.9 11.4-4.6 3.3-1.8 8.4-5.5 11.4-8.2 3-2.8 7.8-8.2 10.7-12 2.9-3.9 8.5-12.4 12.5-19 3.9-6.6 9-13.9 11.3-16.3 2.3-2.4 6.2-5.6 8.7-7.2 2.5-1.6 7.2-3.8 10.5-5 4.8-1.6 6.3-1.8 7.3-0.8 1 1.1 0.8 2.2-1.2 5.8-1.4 2.5-4.3 9.2-6.4 15-2.2 5.8-5.4 16.1-7.1 23-1.6 6.9-3.8 18.3-4.7 25.5-0.9 7.8-1.4 15.8-1 20 0.3 3.8 0.9 11.9 1.3 18 0.5 6.1 0.8 21.6 0.7 34.5 0 22.1-0.2 24.1-2.7 33.5-1.4 5.5-4.3 14.3-6.5 19.5-2.1 5.2-6.4 13.9-9.5 19.2-3.1 5.4-5.5 9.8-5.2 9.8 0.3 0 4.9-3.6 10.3-7.9 5.3-4.3 14.2-12.6 19.8-18.3 5.6-5.6 12.2-13.2 14.9-16.8 2.6-3.6 6.3-9.6 8.3-13.5 1.9-3.9 4.6-10.2 5.9-14 1.3-4 2.7-11.5 3.3-17.5 0.5-5.8 1.2-16.8 1.5-24.5 0.3-7.7 1-14.4 1.5-15 0.5-0.6 1.7 0.7 3.1 3.5 1.2 2.5 4.1 10.1 6.4 17 2.4 6.9 6.2 19.9 8.4 29 2.8 11.1 4.4 19.8 4.8 26.5 0.4 7.9 0.1 12.3-1.5 21-1.2 6.1-3.1 13.9-4.2 17.5-1.2 3.6-4.6 11.7-7.6 18-3.1 6.3-10.2 19.5-16 29.2-5.7 9.8-10.3 18-10.2 18.3 0.2 0.2 6.6-6.4 14.3-14.8 7.7-8.3 16.4-17.9 19.2-21.2 2.8-3.3 7.4-9.6 10.3-14 2.8-4.4 7.1-12.1 9.5-17 2.4-4.9 5.5-12.7 6.9-17.3 1.4-4.5 3.3-12.6 4.2-18 0.8-5.4 1.5-16 1.5-24.2 0-8-0.5-18.3-1.1-23-0.7-4.7-2.3-12.3-3.7-17-1.3-4.7-6.2-17.7-10.7-29-4.6-11.3-10-25.3-12-31.3-2-5.9-4.3-14.6-5.1-19.5-0.8-4.8-1.5-12.3-1.5-16.7 0-5.4 0.4-8.7 1.4-10 0.8-1.1 1.6-1.8 1.9-1.5 0.2 0.3 1.1 5.2 2 11 0.9 5.8 3.2 15.8 5.1 22.2 2 6.5 7.8 22.5 13 35.5 5.2 13.1 10.4 26.7 11.6 30.3 1.2 3.6 3 10.8 4.1 16 1.5 6.8 2.2 15.1 2.6 29 0.3 12.6 0.1 22.1-0.6 27-0.7 4.1-1.4 8.6-1.7 10-0.2 1.4 0.3 0.7 1.1-1.5 0.9-2.2 2.4-8.9 3.5-15 1-6.1 1.9-15.3 1.9-20.5 0.1-5.2-0.6-15.1-1.4-22-0.9-6.9-2.6-16.6-3.9-21.5-1.3-4.9-6.7-19.8-11.9-33-5.2-13.2-10.8-28.3-12.5-33.5-1.7-5.2-4-13.6-5.1-18.5-1-5-2.2-11-2.5-13.5l-0.6-4.5c-8.1-1.6-10.5-2.5-10.5-3 0-0.6 2.2-1.6 5-2.3 3.2-0.8 8.1-1.1 13.5-0.8 4.9 0.3 12.9 1.7 19 3.5 5.8 1.6 13.4 3.5 17 4.2 3.8 0.7 9.8 1 14.5 0.6 4.4-0.3 11.8-1.7 16.5-3 4.7-1.4 11.1-3.7 14.2-5.1 3.2-1.4 5.7-2.8 5.5-3-0.1-0.2-3.8 0.1-8.2 0.6-4.4 0.5-12.7 0.7-18.5 0.4-5.8-0.3-15.2-1.7-21-3-5.8-1.3-15.2-3.8-21-5.6-7.2-2.3-13.2-3.5-19-3.8-4.7-0.2-11 0.1-14 0.6-4.8 1-5.7 0.9-7-0.7-1.3-1.5-3.4-1.7-15.5-1.7-7.7 0-15.1-0.3-16.5-0.6-1.4-0.2-4.1-0.2-6 0.1z"/><path class="b" d="m227 71.9c-3 1.1-5.9 2.5-6.5 3.1q-1 1 0.5 2.4c1.2 1.2 2.6 1.3 7 0.4 3-0.5 9.3-0.8 14-0.6 5.8 0.3 11.8 1.5 19 3.8 5.8 1.8 15.2 4.3 21 5.6 5.8 1.3 15.2 2.7 21 3 5.8 0.3 14.1 0.1 18.5-0.4 4.4-0.5 8.1-0.8 8.3-0.6 0.1 0.2-2.4 1.6-5.6 3-3.1 1.4-9.5 3.7-14.2 5.1-4.7 1.3-12.1 2.7-16.5 3-4.7 0.4-10.7 0.1-14.5-0.6-3.6-0.7-11.4-2.7-17.5-4.4-9.3-2.7-12.7-3.1-21.5-3.1-5.9 0-11.8 0.6-13.5 1.2q-3 1.3-2 2.3c0.6 0.5 4.8 1.3 9.5 1.8 5.7 0.5 13.3 2.4 23 5.6 12.9 4.3 15.7 4.9 25.5 5.3 9.2 0.4 12.5 0.1 20-1.8 4.9-1.3 11.7-3.5 15-4.9 3.3-1.4 8.7-4.1 12-5.9 3.3-1.8 9.4-6 13.5-9.5 4.6-3.8 7.6-7.1 7.7-8.5 0.2-1.2 0.1-2.2-0.2-2.2-0.3 0-2.4 1.1-4.8 2.5-2.5 1.5-7.6 3.1-12.7 3.9-5.2 0.9-12.9 1.3-20 1.1-6.3-0.3-14.9-0.9-19-1.5-4.1-0.6-11.1-2.1-15.5-3.2-4.4-1.1-11.8-3.1-16.5-4.5-5.8-1.7-11.8-2.6-19-2.9-8.8-0.4-11.4-0.1-16 1.5z"/><path class="d" d="m128.1 72.3c-0.6 1.7-1.1 4-1.1 5 0 0.9 0.6 2.8 1.3 4.2 0.7 1.5 2.1 2.6 3.2 2.6 1.1 0 2.8-0.8 3.7-1.8 1-1 2.1-3.5 2.5-5.6 0.8-3.9 0.8-3.9-1.9-3.3-2.4 0.5-2.9 0.2-3.3-1.9-0.3-1.4-1.1-2.5-1.9-2.5-0.8 0-1.9 1.5-2.5 3.3z"/><path class="c" d="m237 68.9c-2.7 0.5-1.3 0.8 6.5 1.3 6 0.4 13.4 1.7 18.5 3.1 4.7 1.4 12.1 3.4 16.5 4.5 4.4 1.1 11.4 2.6 15.5 3.2 4.1 0.6 12.7 1.2 19 1.5 6.6 0.2 14.9-0.2 19.5-0.9 4.4-0.7 9.5-2.1 11.3-3 1.7-0.9 3.2-1.8 3.2-2.1 0-0.3-1.6 0.2-3.5 1-1.9 0.8-8.1 2-13.8 2.5-7 0.7-14.3 0.7-23.2-0.1-8.7-0.7-17.4-2.2-26.5-4.6-7.4-1.9-16-4.1-19-4.9-3-0.7-8.9-1.6-13-1.8-4.1-0.3-9.1-0.1-11 0.3z"/><path class="b" d="m126.1 63.7c-1.4 1-3.1 3.3-3.8 5-0.7 1.8-1.3 5.2-1.3 7.5 0 2.4 0.5 6 1 8 0.6 2.1 2.3 5.1 4 6.8 2.1 2.1 4 3 6.3 3 2.2 0 4-0.8 5.7-2.6 1.4-1.5 1.9-2.4 1.3-2.1-0.8 0.4-1.3 0.1-1.3-0.8 0-0.8 0.6-2.7 1.4-4.3 1-1.8 1.2-3.7 0.7-5.7l-0.8-3c-2.7 6.1-4.3 7.9-6 8.5-2.3 0.8-3.1 0.7-4.6-0.7-1.2-1.2-1.8-3.3-1.8-6.3 0-3 0.7-5.4 2-7l1.9-2.5c2.1 4.3 3.3 5.8 4 6 0.6 0.3 1.9-0.6 2.7-2 0.9-1.4 1.2-3.2 0.8-4.1-0.5-0.9-2.1-2.5-3.8-3.5-1.7-1-3.7-1.9-4.5-1.9-0.8 0-2.6 0.8-3.9 1.7z"/><path class="a" d="m124.5 64.4c-1.8 1.9-3.3 4.2-3.4 5.3-0.1 1 0.6 0.3 1.7-1.7 0.9-1.9 2.9-4.1 4.5-5 2.5-1.4 3-1.3 6 0.3l3.2 1.7c-3.9-3.2-5.8-4.1-6.8-4-1.1 0-3.4 1.5-5.2 3.4z"/><path class="a" d="m192 60c0 0.5-1 1.5-2.3 2.2-1.2 0.7-4.5 1.5-7.2 1.9l-5 0.6c7.4 0.2 10.1-0.4 12.3-1.7 1.7-1.1 3.2-2.5 3.2-3 0-0.5-0.2-1-0.5-1-0.3 0-0.5 0.5-0.5 1z"/><path class="d" d="m153.2 49.7c-0.5 1-1.3 3.4-1.7 5.3-0.4 1.9-0.7 5.5-0.6 8 0.1 2.5 0.8 5.2 1.6 6 1.2 1.3 1.7 1.3 4.7-0.6 2.2-1.3 3.8-3.5 4.9-6.5 0.9-2.4 1.5-5 1.3-5.7-0.2-0.6-1.2-1.2-2.1-1.2-1.1 0-2.4-1.3-3.3-3.2-0.8-1.7-2-3.3-2.6-3.6-0.7-0.2-1.6 0.5-2.2 1.5z"/><path class="d" d="m158 53c0 0.3 0.6 1.9 1.5 3.5 0.8 1.6 1.5 2.4 1.5 1.8 0-0.7 0.4-1.3 1-1.3 0.6 0 0.8 0.7 0.5 1.5-0.3 0.8-1.2 1.5-2 1.5-0.9 0-1.3 0.6-1 1.5q0.5 1.5-1.5 1.5c-1.1 0-2 0.5-2 1 0 0.5 0.9 0.8 2 0.5 1.1-0.3 2-0.2 2 0.3-0.1 0.4-0.8 1.2-1.8 1.9-0.9 0.7-1.3 1.3-0.7 1.3 0.6 0.1 1.5-0.5 2.2-1.2 0.6-0.7 1.8-3.1 2.6-5.3 0.8-2.2 1.2-4.6 1.1-5.3-0.2-0.6-1.3-1.2-2.4-1.2-1.1 0-2.2-0.6-2.4-1.3-0.3-0.6-0.5-1-0.6-0.7z"/><path class="c" d="m153.1 48.5q-1.1 1.5-0.1 2.8c0.5 0.6 0.7 1.5 0.3 2-0.3 0.4-0.1 0.7 0.5 0.7 0.7 0 1.2-0.7 1.2-1.5 0-0.8-0.4-1.5-1-1.5-0.6 0-1-0.5-1-1q0-1 1.8 0c0.9 0.5 2.1 0.6 2.6 0.2 0.5-0.4 0.6 0.4 0.3 1.8-0.4 1.4-0.7 2.8-0.7 3.3 0 0.4-0.7 0.7-1.5 0.7-0.8 0-1.7 0.9-2 2-0.3 1.1-0.3 2.9 0 4 0.3 1.1-0.2 3.1-1 4.5-0.9 1.5-1.1 2.7-0.5 3 0.6 0.3 1.2 0 1.5-0.5 0.3-0.5 0.3-1.5 0-2-0.3-0.5 0.7-0.2 2.1 0.8 2 1.2 2.5 1.3 2.3 0.3-0.2-0.7 0.3-1.6 1.1-1.9 1.1-0.5 1.3-0.2 0.6 0.8-0.8 1.2-0.7 1.2 0.8 0 0.9-0.8 1.7-2 1.6-2.5 0-0.5-0.5-0.3-1 0.5q-1 1.5-1 0.3c0-0.8-0.8-1.1-2-0.8-1.1 0.3-2 0-2-0.5 0-0.5 0.9-1 2-1q2 0 1.5-1.5c-0.3-0.9 0.1-1.5 1-1.5 0.8 0 1.5-0.6 1.5-1.2q0-1.3 0.9 0.2c0.6 1.1 1 1.2 1.5 0.3 0.3-0.7 0.2-1.3-0.4-1.3-0.6 0-0.8-0.9-0.5-2 0.3-1.1 0.1-2-0.5-2-0.6 0-0.8 0.5-0.5 1 0.3 0.5-0.2 1.7-1 2.5-1.3 1.3-1.5 1.3-1.6-0.2-0.1-1-0.1-2.1 0-2.5 0-0.5-0.4-0.5-1.1 0-0.8 0.5-1 0-0.4-1.8 0.5-1.8 0.2-3-1.1-4.3-1-1-2.1-1.8-2.4-1.7-0.4 0-1.2 0.7-1.8 1.5z"/><path class="b" d="m150.9 42.5c-1.3 0.7-3.2 2.8-4.1 4.6-0.9 1.9-2.3 6.5-2.9 10.4-1.1 6.1-1.1 7.6 0.4 11.5 0.9 2.5 2.4 5.6 3.4 6.9 1.3 1.7 3 2.4 6.8 2.7 4 0.4 5.5 0.1 7.5-1.6 1.8-1.4 2.2-2.2 1.2-2.7-1-0.6-0.9-1.7 0.3-5.3 0.9-2.5 1.5-5.7 1.5-7.3 0-1.5-0.4-2.5-1-2.2-0.6 0.3-1.2 1.9-1.5 3.5q-0.5 3-3.8 5c-1.7 1.1-4 2-5 2-0.9 0-2.1-0.9-2.7-2-0.6-1.1-1-3.6-1-5.5 0-1.9 0.4-5.6 1-8.3 0.5-2.6 1.6-5.4 2.5-6.2 1.4-1.3 1.8-1.3 3.5 0.5 1.1 1.1 2.1 2.9 2.3 3.9 0.1 1.1 0.8 2.1 1.4 2.3 0.7 0.2 1.8-0.7 2.4-1.9 0.8-1.7 0.8-3 0-4.8-0.6-1.4-2-3.1-3.1-3.7-1.1-0.7-3.1-1.7-4.4-2.2q-2.3-0.9-4.7 0.4z"/><path class="c" d="m182.7 34.2c-0.9 1.3-2.5 5.4-3.7 9.3-1.6 5.5-1.9 7.6-1 9.7 0.8 2.3 1.4 2.7 3.3 2.1 1.2-0.3 3.7-1.2 5.5-2 2.1-0.8 3.7-2.5 4.7-4.8 0.8-1.9 1.5-4.9 1.5-6.5 0-2.1-0.5-3.1-1.7-3.3-1-0.2-2.5-1.6-3.3-3.2-0.8-1.6-2-3-2.6-3.2-0.7-0.3-1.9 0.6-2.7 1.9z"/><path class="b" d="m180.1 27.8c-1.5 1.5-4.2 6.2-5.9 10.4-1.8 4.3-3.2 9.6-3.2 11.8 0 2.2 0.6 5.5 1.3 7.2 0.8 1.8 2.1 4.1 3 5 1.1 1.2 3.2 1.8 6.2 1.8 2.5 0 5.9-0.7 7.5-1.5 1.7-0.8 3-2.3 3-3.3 0-0.9 1-4.3 2.3-7.5 1.9-5.1 2-6 0.7-6.7-1.2-0.7-1.9 0-3.2 3-1.2 2.7-2.8 4.4-5 5.3-1.8 0.8-4.3 1.7-5.5 2-1.9 0.6-2.5 0.2-3.4-2.1-0.8-2.2-0.5-4.3 1.5-10.7 1.3-4.4 3.2-8.7 4.1-9.5q1.6-1.5 2.5-0.5c0.6 0.5 1.6 2.1 2.3 3.5 0.7 1.4 2.1 2.5 3.2 2.5 1.5 0 2.1-0.8 2.3-2.8 0.1-1.5-0.2-3.6-0.8-4.7-0.6-1.1-2.5-2.9-4.2-4-1.8-1.1-3.9-2-4.6-2-0.8 0-2.6 1.2-4.1 2.7z"/><path class="a" d="m211.7 13.1l-4.2 4.2c7.7-6.5 9.5-7.3 12.6-7.3 2.1 0 5.3 0.7 6.9 1.5 1.7 0.8 3.9 2.7 5 4.3 1.2 1.5 2.1 2.3 2.1 1.7-0.1-0.6-1.3-2.2-2.8-3.6-1.6-1.5-3.8-3.2-5-3.8-1.3-0.6-4.1-1.1-6.3-1.1-3.4 0-4.8 0.7-8.3 4.1z"/><path class="b" d="m210.8 15c-3.8 4-5.3 6.5-7 12.3-1.5 4.7-2.3 9.8-2.3 14.7 0 4.8 0.7 9.6 2 13.4 1.1 3.3 3.3 7.5 5 9.3l3 3.5c9-2.3 11.3-3.8 16.1-8.6 4.8-4.8 6.4-7.2 7.7-11.6 0.9-3 2-7 2.4-8.8 0.5-2 0.4-3.2-0.2-3.2-0.6 0-1.5 1.4-2.2 3.2-0.6 1.8-3.4 5.8-6.1 8.8-2.7 3-7 6.5-9.5 7.7-2.6 1.3-5.6 2.1-6.7 1.8-1.2-0.3-2.4-1.8-2.9-3.8-0.5-1.7-1.2-5-1.6-7.2-0.3-2.2-0.1-6.9 0.5-10.5 0.6-4 2.2-8.3 4-11.3 1.7-2.6 4.2-5.5 5.6-6.5 2.4-1.5 2.9-1.6 5.3-0.2 1.4 0.9 3.1 3.1 3.7 5 1 2.9 1.6 3.5 4 3.5 2.7 0 2.9-0.3 2.9-3.5-0.1-1.9-0.9-4.7-1.8-6.3-0.9-1.5-3.2-3.6-5-4.7-1.9-1.2-5-2-7.6-2-4 0-4.9 0.5-9.3 5z"/><path class="c" d="m217.5 19.3c-1.5 1.2-3.8 4-5.1 6.2-1.2 2.2-2.8 6.9-3.4 10.5-0.6 3.6-0.8 8.3-0.5 10.5 0.4 2.2 1.1 5.5 1.6 7.2 0.5 2 1.7 3.5 2.9 3.8 1.1 0.3 4.1-0.5 6.7-1.8 2.5-1.2 6.7-4.5 9.2-7.3 4-4.3 4.6-5.7 4.9-10 0.2-2.7 0-6.4-0.3-8.2-0.4-2.3-1.1-3.3-2.7-3.5-1.5-0.1-2.4-1.2-3-3.5-0.4-1.7-1.8-3.9-3.1-4.7-1.2-0.8-2.7-1.5-3.3-1.5-0.6 0-2.4 1-3.9 2.2z"/><path class="a" d="m43.1 460.7c0 1 0.2 1.2 0.5 0.6 0.3-0.9 2.9-1.3 8.4-1.3 5.5 0 8.2 0.4 8.5 1.3 0.3 0.6 0.4 0.5 0.2-0.3-0.3-1.2-2.3-1.6-9-1.8-7.7-0.2-8.6-0.1-8.6 1.5z"/><path class="a" d="m72 459.7c2.5 0.2 6.1 0.2 8 0 1.9-0.2-0.1-0.4-4.5-0.4-4.4 0-6 0.2-3.5 0.4z"/><path class="a" d="m118.5 459.7c2.2 0.2 6 0.2 8.5 0 2.5-0.2 0.7-0.4-4-0.4-4.7 0-6.7 0.2-4.5 0.4z"/><path class="a" d="m136 459.8c0.1 0.4 1.6 2.8 3.5 5.4 1.9 2.7 3.7 4.8 4 4.8 0.3 0-1.2-2.3-3.3-5.2l-3.7-5.1c6.4 0.6 8.1 0.5 7.9 0-0.2-0.4-2.2-0.7-4.4-0.7-2.2 0-4 0.3-4 0.7z"/><path class="a" d="m158.9 463.9c-1.3 2.7-1.8 4.4-1.1 3.7 0.7-0.6 1.7-2.6 2.1-4.4 0.8-3.1 1.1-3.3 4.5-3 2 0.2 3.6 0 3.6-0.4 0-0.5-1.5-0.8-3.4-0.8-3.1 0-3.6 0.5-5.7 4.9z"/><path class="a" d="m339 460.2c-0.8 0.7-1.3 1.7-1.2 2.3 0.1 0.5 0.7 0.2 1.4-0.7 1.1-1.5 3.4-1.8 15.8-2.1l14.5-0.3c-24.7-0.3-29.5 0-30.5 0.8z"/><path fill-rule="evenodd" class="b" d="m12.5 459.8l7.7 0.4c6.7 0.3 8.1 0.7 10.3 2.8 1.4 1.4 2.8 4.1 3.1 6 0.4 2.7 0 4.3-4.4 10.5l2.5 4.5c1.3 2.5 3.6 5.7 7.8 9.9l-2.5 0.7c-1.4 0.3-3.1 0.4-3.8 0-0.6-0.3-3-3.6-5.1-7.4-3.6-6.2-4.2-6.7-10.1-6.2v7c0 7 0 7-5.5 7zm5.3 10.8c0.2 5.3 0.3 5.4 3.2 5.4 1.6 0 3.7-0.3 4.7-0.8 0.9-0.4 2-1.8 2.5-3.2 0.6-1.7 0.4-3.1-0.5-4.5-0.8-1.1-2.5-2.3-3.9-2.5-1.3-0.3-3.3-0.4-4.4-0.2-1.6 0.3-1.8 1.1-1.6 5.8z"/><path class="b" d="m44 477.5v17.5c15.6-0.4 17.5-0.8 17.8-2 0.2-1.2-1-1.5-6-1.5h-6.3l-0.5-12.5c8.3 0 9-0.3 9-2 0-1.7-0.7-2-4.5-2h-4.5v-11c10.9 0 11.9-0.3 11.5-1.5-0.3-0.8-0.5-1.7-0.5-2 0-0.3-3.6-0.5-8-0.5h-8z"/><path class="b" d="m68.5 477.5v17.5h5.5v-16c8.3 0 9-0.3 9-2 0-1.7-0.7-2-4.5-2h-4.5v-11c10.2 0 11-0.3 10.7-1.8-0.2-1.4-1.5-1.7-8.2-2l-8-0.3z"/><path class="b" d="m91.5 477.5v17.5c16.7 0 17.5-0.2 18-2 0.5-1.8 0-2-6-2h-6.5v-31h-5.5z"/><path class="b" d="m115.8 477.5l0.2 17.5c15.2 0 17.1-0.3 17.5-1.5 0.3-0.8 0.5-1.6 0.5-1.8 0-0.1-2.8-0.2-6.3-0.2h-6.2l-0.5-12.5c8.3 0 9-0.3 9-2 0-1.7-0.7-2-4.5-2h-4.5v-11c10.3 0 11-0.2 11-2 0-1.8-0.7-2-8.2-2h-8.3z"/><path class="a" d="m132 462c0 1.8-0.7 2-5.5 2h-5.5l0.5 10.5c7.8 0.5 8.6 0.9 8.9 2.8 0.3 1.8 0.4 1.7 0.5-0.5 0.1-2.7-0.1-2.8-4.4-2.8h-4.5v-9c10.7 0 11-0.1 11-2.5 0-1.4-0.2-2.5-0.5-2.5-0.3 0-0.5 0.9-0.5 2z"/><path class="b" d="m140.5 465.3c2.2 2.8 4.9 6.6 6.1 8.2l2.2 3c-6.2 7-8.9 10.7-9.9 12.7-1 2.1-1.9 4.2-1.9 4.8 0 0.6 1.3 1 3 1q3 0 3-1.5c0-0.8 0.9-3.2 1.9-5.3 1-2 3-4.7 4.3-6l2.3-2.3c9.6 14.5 10.3 15.1 13.5 15.1l3.5 0.1c-3.2-3.6-6.3-7.6-8.8-11.4l-4.7-6.7c6.7-7.4 9.4-11 10.3-12.8 0.9-1.7 1.7-3.4 1.7-3.7 0-0.3-1.3-0.5-3-0.5-2.3 0-3.1 0.5-3.5 2.2-0.2 1.3-1.9 4.2-3.7 6.6-1.8 2.3-3.6 4.2-4 4.2-0.5 0-2.7-2.9-5-6.5-3.9-6-4.6-6.5-7.7-6.5h-3.4z"/><path fill-rule="evenodd" class="b" d="m185.3 460c3.1 0 6.9 0.6 8.4 1.4 1.6 0.8 3.8 2.5 5 3.8 1.2 1.2 2.7 4.7 3.3 7.6 0.7 3.6 0.7 6.6-0.1 10-0.6 2.6-1.7 5.6-2.5 6.7-0.8 1.1-2.7 2.8-4.2 3.7-1.9 1.3-4.7 1.8-9.7 1.8-5.2 0-7.8-0.5-10.3-2-1.8-1.1-4.1-3.9-5.2-6.3-1.1-2.3-2-6.4-2-9.2 0-3.8 0.6-6.1 2.7-9.4 1.5-2.4 4.1-5.2 5.8-6.2 2-1.3 4.9-1.9 8.7-1.9zm-9.7 10c-0.8 1.6-1.5 5.1-1.5 7.8 0 2.9 0.7 5.9 2 8 1.1 1.7 3.1 3.6 4.5 4.2 1.4 0.6 3.6 1 5 1 1.4 0 3.8-0.7 5.5-1.5 1.7-0.8 3.7-3 4.5-5 0.8-1.9 1.5-5.1 1.5-7 0-1.9-0.8-5.1-1.8-7.1-1-2.1-3-4.1-5-5-1.7-0.8-4-1.4-5-1.4-0.9 0.1-3.2 0.7-5 1.5-1.7 0.8-3.9 2.9-4.7 4.5z"/><path class="b" d="m209.5 477.5v17.5c13.9 0 17.5-0.4 17.5-1 0-0.6 0.2-1.6 0.5-2.3 0.4-0.9-1.1-1.1-6-1l-6.5 0.3 0.5-31h-6z"/><path fill-rule="evenodd" class="b" d="m247.2 460.2c4.8 0.2 7.4 0.9 9.5 2.4 1.5 1.1 3.6 3.6 4.5 5.5 1.2 2.2 1.8 5.7 1.8 9.7 0 3.4-0.6 7.4-1.4 9-0.8 1.5-2.6 3.8-4.1 5.2-2.3 2.1-3.8 2.5-10.3 2.8-6.7 0.3-8.1 0.1-11.2-2-1.9-1.3-4.3-3.9-5.2-5.8-1.1-2.1-1.8-5.8-1.8-9 0-4.2 0.6-6.5 2.6-9.8 1.5-2.4 4.1-5.2 5.8-6.3 2.5-1.6 4.4-2 9.8-1.7zm-10.9 9.8c-0.7 1.4-1.3 5.1-1.3 8.3 0 4.6 0.5 6.3 2.5 8.7 1.4 1.7 3.9 3.3 5.8 3.6 1.7 0.3 4.8 0.1 6.7-0.4 1.9-0.6 4.2-2.1 5.1-3.4 0.9-1.3 1.9-4 2.2-6 0.4-2.1 0.3-5.5-0.3-7.5-0.5-2.1-1.9-4.8-3.2-6-1.3-1.3-3.9-2.5-5.8-2.8q-3.5-0.6-7 1.2c-1.9 1-4 2.9-4.7 4.3z"/><path class="b" d="m277.1 461.4c-1.9 0.7-4 2.1-4.7 3.2-0.7 1-1.9 3.5-2.8 5.4-0.8 2-1.3 5.7-1.1 8.5 0.1 2.8 1 6.4 1.8 8 0.8 1.6 2.7 4.1 4.2 5.5 2.4 2.3 3.5 2.5 11.5 2.5 4.9 0 9-0.2 9.3-0.5 0.3-0.3 0.6-4 0.8-8.2l0.4-7.8h-5.5l1.5 11.9c-4.8 1.7-7.4 1.8-9.4 1.4-1.9-0.4-4.6-2.2-6.1-3.8-1.4-1.6-2.9-4.7-3.3-6.7-0.4-2.1-0.3-5.6 0.3-7.8 0.6-2.5 2.2-4.9 4.2-6.6 2.8-2.2 4.1-2.5 8.3-2.2 2.7 0.2 5.7 0.8 6.5 1.2 1 0.5 1.8 0.1 2.3-1.1 0.6-1.3 0.3-2.2-1-3.1-1-0.7-4.5-1.2-7.8-1.2-3.3 0.1-7.5 0.7-9.4 1.4z"/><path class="b" d="m304.5 477.5v17.5h6v-35h-6z"/><path class="b" d="m320.6 462c-2.3 1.7-2.8 2.9-2.7 6.1 0.1 3.5 0.7 4.5 6.7 9.7 3.6 3.1 6.8 6.6 7.1 7.7 0.4 1.4-0.3 2.7-2.3 4.3-2.2 1.8-3.6 2.2-5.9 1.7-1.6-0.4-3.5-1.1-4-1.6-0.6-0.5-1.3-0.9-1.8-0.9-0.4 0-0.7 1.1-0.7 2.5 0 1.4 0.7 2.7 1.5 3 0.8 0.3 3.9 0.5 6.7 0.5 3.8 0.1 6.1-0.5 8-2 2.4-1.7 2.8-2.7 2.8-7 0-4.9-0.1-5.1-6.5-10.7-4.5-4-6.6-6.5-6.5-8 0-1.4 0.9-2.6 2.2-3.2 1.3-0.4 3.6-0.4 5.3 0 1.6 0.5 3.3 0.9 3.7 0.9 0.5 0 0.7-1 0.5-2.2-0.2-2-0.8-2.3-5.8-2.6-4.4-0.2-6.1 0.1-8.3 1.8z"/><path class="b" d="m339.3 461.8c-0.3 0.9-0.7 1.9-0.9 2.2-0.1 0.3 2.5 0.4 5.7 0.2l5.9-0.2v31h5.5l-0.5-31c9.3 0 12-0.2 12-0.5 0-0.3 0.2-1.2 0.5-2 0.4-1.3-1.5-1.5-13.5-1.5-12.5 0-14.1 0.2-14.7 1.7z"/><path class="b" d="m372.8 461.5c-1.6 0.9-3.1 2.7-3.4 4.3-0.3 1.5 0 4 0.8 5.6 0.7 1.6 3.7 4.8 6.6 7 3.1 2.4 5.6 5.1 5.9 6.6 0.3 1.4 0.2 3.1-0.3 3.9-0.5 0.8-2.3 1.8-3.9 2.3-2.3 0.7-3.9 0.5-6.7-0.9l-3.7-1.8c-0.1 3.5 0.8 4.9 1.9 5.5 1.1 0.6 4.5 1 7.5 1 4.6 0 6-0.4 8-2.5 1.7-1.7 2.5-3.6 2.5-6 0-1.9-0.4-4.3-0.9-5.2-0.5-1-3.4-3.7-6.5-6-3.1-2.4-5.9-5.3-6.2-6.5-0.3-1.3 0-2.8 0.8-3.6 0.7-0.7 2.2-1.3 3.3-1.4 1.1-0.1 3.2 0.1 4.7 0.5 2.1 0.5 2.9 0.3 3.4-0.9 0.3-0.9-0.1-2-0.8-2.5-0.7-0.5-3.3-0.9-5.8-0.8-2.5 0-5.7 0.6-7.3 1.4z"/><path class="a" d="m68.4 477.5c0 9.4 0.2 13.4 0.3 9 0.2-4.4 0.2-12.1 0-17-0.1-4.9-0.3-1.4-0.3 8z"/><path class="a" d="m97.2 475.8l-0.2 15.2 12.5-0.4-11.5-0.6-0.6-29.5z"/><path class="a" d="m115.2 478.3l-0.2 17.7c16.4-0.4 18.4-0.8 18.7-2 0.2-0.8 0.1-0.9-0.2-0.3-0.3 0.9-3.1 1.3-9 1.3h-8.5l-0.6-34.5z"/><path class="a" d="m215.2 475.8l-0.2 15.2 12.5-0.4-11.5-0.6-0.6-29.5z"/><path class="a" d="m12.4 477.5c0 8.8 0.2 12.2 0.3 7.5 0.2-4.7 0.2-11.9 0-16-0.1-4.1-0.3-0.3-0.3 8.5z"/><path class="a" d="m85 463c0 0.6-2.5 1-5.5 1h-5.5v11l9.5-0.3-8.5-0.7v-9c9.7 0 11-0.3 11-1.5 0-0.8-0.2-1.5-0.5-1.5-0.3 0-0.5 0.4-0.5 1z"/><path class="a" d="m91.4 478c0 9.1 0.2 12.7 0.3 8 0.2-4.7 0.2-12.1 0-16.5-0.1-4.4-0.3-0.6-0.3 8.5z"/><path class="a" d="m209.4 478c0 9.1 0.2 12.7 0.3 8 0.2-4.7 0.2-12.1 0-16.5-0.1-4.4-0.3-0.6-0.3 8.5z"/><path class="a" d="m367 462.8q0 1.2-5.8 1.4l-5.7 0.3v25.5l0.5-25c8.5 0 11.2-0.4 11.5-1 0.3-0.6 0.3-1.3 0-1.8-0.3-0.4-0.5-0.1-0.5 0.5z"/><path class="a" d="m49 469.5v5.5l10.5-0.4-9.5-0.6v-9l11.5-0.6-12.5-0.4z"/><path class="a" d="m304.4 478c0 8 0.2 11.4 0.3 7.5 0.2-3.9 0.2-10.4 0-14.5-0.1-4.1-0.3-1-0.3 7z"/><path class="a" d="m74.3 486.5c0 4.4 0.2 6 0.4 3.5 0.2-2.5 0.2-6.1 0-8-0.2-1.9-0.4 0.1-0.4 4.5z"/><path class="a" d="m296.3 487c0 4.1 0.2 5.9 0.4 4 0.2-1.9 0.2-5.3 0-7.5-0.2-2.2-0.4-0.6-0.4 3.5z"/><path class="a" d="m166.5 492.9l2 2.3c-6.4-0.5-8.1-0.4-7.9 0.1 0.2 0.4 2.2 0.7 4.4 0.7 2.2 0 4-0.3 4-0.7 0.1-0.5-1-1.7-2.2-2.8l-2.3-2z"/><path class="a" d="m109 493.3c0 1.5-1.2 1.7-9.3 2l-9.2 0.3c16.9 0.4 18.5 0.1 18.8-1.1 0.1-0.9 0.1-1.9 0-2.3-0.2-0.4-0.3 0.1-0.3 1z"/><path class="a" d="m349.1 493.8c-0.1 1.9 0.4 2.2 3.9 2.2 3.2 0 4-0.4 3.9-1.8 0-0.9-0.2-1.1-0.5-0.5-0.2 0.7-1.8 1.3-3.4 1.3-2 0-3.1-0.6-3.4-1.8-0.3-1.2-0.4-1-0.5 0.5z"/><path class="a" d="m43 494.3c0 1.5 1.1 1.7 9 1.7 5 0 9.2-0.3 9.4-0.8 0.2-0.4-3.5-0.6-8.2-0.4-6.3 0.2-8.9-0.1-9.4-1-0.6-0.9-0.8-0.8-0.8 0.4z"/><path class="a" d="m227 493.8c0 0.8-2.6 1.3-9.3 1.4l-9.2 0.2c14 0.5 18.2 0.3 18.8-0.3 0.7-0.6 0.9-1.4 0.4-1.8-0.4-0.5-0.7-0.2-0.7 0.4z"/><path class="a" d="m278.4 495.2c0.6 0.4 4 0.7 7.6 0.7 3.6-0.1 5.8-0.3 5-0.5-0.8-0.1-4.3-0.4-7.6-0.6-3.4-0.2-5.7 0-5 0.4z"/><path class="a" d="m181.5 495.7c1.7 0.2 4.8 0.2 7 0 2.2-0.2 0.8-0.4-3-0.4-3.8 0-5.7 0.2-4 0.4z"/></svg>